<?xml version="1.0" encoding="utf-8"?>
<!-- Generator: Adobe Illustrator 22.0.1, SVG Export Plug-In . SVG Version: 6.00 Build 0)  -->
<svg version="1.1" id="Layer_1" xmlns="http://www.w3.org/2000/svg" xmlns:xlink="http://www.w3.org/1999/xlink" x="0px" y="0px"
	 viewBox="0 0 60 40" style="enable-background:new 0 0 60 40;" xml:space="preserve">
<style type="text/css">
	.st0{fill:#2B52CF;}
</style>
<title>ic_bookmark_navi_right_dark_unselected</title>
<desc>Created with Sketch.</desc>
<g id="Symbols">
	<g id="ic_bookmark_navi_right_dark_unselected">
		<g id="Group-Copy" transform="translate(46.000000, 10.000000)">
			<path id="Fill-1" class="st0" d="M6,8.7L6,8.7L6,8.7z M-4.2,2c-1,0-2,0.4-2.7,1.1C-7.6,3.7-8,4.6-8,5.5C-8,6.4-7.6,7.3-6.9,8
				l6.1,5.7L5.4,8c0.7-0.7,1.1-1.5,1.1-2.5c0-0.9-0.4-1.8-1.1-2.5C3.9,1.6,1.4,1.6-0.1,3c-0.4,0.4-1,0.4-1.4,0C-2.2,2.3-3.2,2-4.2,2
				L-4.2,2z M-0.8,16.1c-0.2,0-0.5-0.1-0.7-0.3l-6.8-6.4C-9.4,8.4-10,7-10,5.5c0-1.5,0.6-2.9,1.7-3.9C-6.2-0.3-3-0.5-0.8,1
				c2.3-1.5,5.5-1.4,7.5,0.5c1.1,1,1.7,2.4,1.7,3.9S7.8,8.4,6.7,9.4l-6.8,6.4C-0.3,16-0.5,16.1-0.8,16.1L-0.8,16.1z"/>
			<path id="Fill-4" class="st0" d="M7.5,19.9H-9c-0.6,0-1-0.4-1-1V14c0-0.6,0.4-1,1-1c0.6,0,1,0.4,1,1v3.9H6.5V14c0-0.6,0.4-1,1-1
				c0.6,0,1,0.4,1,1v4.9C8.5,19.4,8,19.9,7.5,19.9"/>
		</g>
	</g>
</g>
</svg>
