<?xml version="1.0" encoding="utf-8"?>
<!-- Generator: Adobe Illustrator 22.0.1, SVG Export Plug-In . SVG Version: 6.00 Build 0)  -->
<svg version="1.1" id="Layer_1" xmlns="http://www.w3.org/2000/svg" xmlns:xlink="http://www.w3.org/1999/xlink" x="0px" y="0px"
	 viewBox="0 0 80 40" style="enable-background:new 0 0 80 40;" xml:space="preserve">
<style type="text/css">
	.st0{fill:#FFFFFF;}
	.st1{fill:#2B52CF;}
</style>
<title>ic_back_left_black_border</title>
<desc>Created with Sketch.</desc>
<g id="Symbols">
	<g id="ic_back_left_black_border">
		<g id="Page-1" transform="translate(6.000000, 9.000000)">
			<path id="Fill-1" class="st0" d="M10.5,20.5c-0.3,0-0.5-0.1-0.7-0.3l-8-8c-0.4-0.4-0.4-1,0-1.4l8-8c0.4-0.4,1-0.4,1.4,0
				s0.4,1,0,1.4l-7.3,7.3l7.3,7.3c0.4,0.4,0.4,1,0,1.4C11,20.4,10.8,20.5,10.5,20.5"/>
			<g id="Group-5">
				<path id="Fill-3" class="st0" d="M10.5,1C9.8,1,9.2,1.3,8.7,1.7l-8,8C0.3,10.2,0,10.8,0,11.5c0,0.7,0.3,1.3,0.7,1.8l8,8
					c0.5,0.5,1.1,0.7,1.8,0.7s1.3-0.3,1.8-0.7c0.5-0.5,0.7-1.1,0.7-1.8c0-0.7-0.3-1.3-0.7-1.8L6,11.5l6.2-6.2
					C12.7,4.8,13,4.2,13,3.5c0-0.7-0.3-1.3-0.7-1.8C11.8,1.3,11.2,1,10.5,1 M10.5,2.5c0.3,0,0.5,0.1,0.7,0.3c0.4,0.4,0.4,1,0,1.4
					l-7.3,7.3l7.3,7.3c0.4,0.4,0.4,1,0,1.4c-0.2,0.2-0.5,0.3-0.7,0.3s-0.5-0.1-0.7-0.3l-8-8c-0.4-0.4-0.4-1,0-1.4l8-8
					C10,2.6,10.2,2.5,10.5,2.5"/>
			</g>
			<path id="Fill-6" class="st1" d="M10.5,20.5c-0.3,0-0.5-0.1-0.7-0.3l-8-8c-0.4-0.4-0.4-1,0-1.4l8-8c0.4-0.4,1-0.4,1.4,0
				s0.4,1,0,1.4l-7.3,7.3l7.3,7.3c0.4,0.4,0.4,1,0,1.4C11,20.4,10.8,20.5,10.5,20.5"/>
		</g>
	</g>
</g>
</svg>
