<?xml version="1.0" encoding="utf-8"?>
<!-- Generator: Adobe Illustrator 22.0.1, SVG Export Plug-In . SVG Version: 6.00 Build 0)  -->
<svg version="1.1" id="Layer_1" xmlns="http://www.w3.org/2000/svg" xmlns:xlink="http://www.w3.org/1999/xlink" x="0px" y="0px"
	 viewBox="0 0 60 40" style="enable-background:new 0 0 60 40;" xml:space="preserve">
<style type="text/css">
	.st0{fill:#FFFFFF;}
</style>
<title>ic_bookmark_navi_right_white_unselected</title>
<desc>Created with Sketch.</desc>
<path id="Fill-1-Copy" class="st0" d="M51,18.7L51,18.7L51,18.7z M40.8,12c-1,0-2,0.4-2.7,1.1c-0.7,0.7-1.1,1.5-1.1,2.5
	c0,0.9,0.4,1.8,1.1,2.5l6.1,5.7l6.1-5.7c0.7-0.7,1.1-1.5,1.1-2.5c0-0.9-0.4-1.8-1.1-2.5c-1.5-1.4-3.9-1.4-5.4,0
	c-0.4,0.4-1,0.4-1.4,0C42.8,12.3,41.8,12,40.8,12L40.8,12z M44.2,26.1c-0.2,0-0.5-0.1-0.7-0.3l-6.8-6.4c-1.1-1-1.7-2.4-1.7-3.9
	c0-1.5,0.6-2.9,1.7-3.9c2-1.9,5.2-2.1,7.5-0.5c2.3-1.5,5.5-1.4,7.5,0.5c1.1,1,1.7,2.4,1.7,3.9s-0.6,2.9-1.7,3.9l-6.8,6.4
	C44.7,26,44.5,26.1,44.2,26.1L44.2,26.1z"/>
<path id="Fill-4-Copy" class="st0" d="M52.5,29.9H36c-0.6,0-1-0.4-1-1V24c0-0.6,0.4-1,1-1s1,0.4,1,1v3.9h14.5V24c0-0.6,0.4-1,1-1
	s1,0.4,1,1v4.9C53.5,29.4,53,29.9,52.5,29.9"/>
</svg>
