<?xml version="1.0" encoding="utf-8"?>
<!-- Generator: Adobe Illustrator 22.0.1, SVG Export Plug-In . SVG Version: 6.00 Build 0)  -->
<svg version="1.1" id="Layer_1" xmlns="http://www.w3.org/2000/svg" xmlns:xlink="http://www.w3.org/1999/xlink" x="0px" y="0px"
	 viewBox="0 0 105 105" style="enable-background:new 0 0 105 105;" xml:space="preserve">
<style type="text/css">
	.st0{fill:#FF5B5E;}
	.st1{fill:#F9AAAE;}
</style>
<title>ic_bookmark_popup</title>
<desc>Created with Sketch.</desc>
<g id="Symbols">
	<g id="ic_bookmark_popup">
		<g>
			<path id="Combined-Shape-Copy-2_1_" class="st0" d="M77.8,55.4L52.5,79L27.2,55.4c-7-6.5-7-17.1,0-23.6s18.3-6.5,25.3,0
				c7-6.5,18.3-6.5,25.3,0S84.7,48.9,77.8,55.4z"/>
			<path class="st1" d="M52.5,82c-0.7,0-1.5-0.3-2-0.8L25.2,57.6c-4-3.7-6.2-8.7-6.2-14c0-5.3,2.2-10.3,6.2-14
				c7.4-6.9,19.2-7.5,27.3-1.7c8.1-5.8,19.9-5.3,27.3,1.7c4,3.7,6.2,8.7,6.2,14c0,5.3-2.2,10.3-6.2,14L54.5,81.2
				C54,81.7,53.2,82,52.5,82z M39.9,30c-3.8,0-7.7,1.4-10.6,4.1c-2.8,2.6-4.3,6-4.3,9.6c0,3.6,1.5,7,4.3,9.6l23.2,21.7l23.2-21.7
				l0,0c2.8-2.6,4.3-6,4.3-9.6c0-3.6-1.5-7-4.3-9.6c-5.8-5.4-15.3-5.4-21.2,0c-1.2,1.1-2.9,1.1-4.1,0C47.5,31.4,43.7,30,39.9,30z"/>
		</g>
	</g>
</g>
</svg>
