<?xml version="1.0" encoding="UTF-8"?>
<svg width="24px" height="24px" viewBox="0 0 24 24" version="1.1" xmlns="http://www.w3.org/2000/svg" xmlns:xlink="http://www.w3.org/1999/xlink">
    <!-- Generator: Sketch 43.2 (39069) - http://www.bohemiancoding.com/sketch -->
    <title>ic_broadcast</title>
    <desc>Created with Sketch.</desc>
    <defs></defs>
    <g id="Symbols" stroke="none" stroke-width="1" fill="none" fill-rule="evenodd">
        <g id="ic_broadcast">
            <g id="Page-1" transform="translate(3.000000, 3.000000)">
                <path d="M6.4927,16.1224 C6.0957,16.1394 5.7147,15.9004 5.5697,15.5064 C5.3907,15.0184 5.6407,14.4774 6.1287,14.2984 L11.2777,12.4144 C11.7667,12.2344 12.3057,12.4854 12.4857,12.9734 C12.6647,13.4604 12.4147,14.0024 11.9267,14.1814 L6.7777,16.0654 C6.6827,16.1004 6.5877,16.1184 6.4927,16.1224 Z" id="Fill-1" fill="#4CF1FD"></path>
                <path d="M6.3374,9.0721 C6.3374,9.6961 5.8324,10.2011 5.2094,10.2011 C4.5854,10.2011 4.0804,9.6961 4.0804,9.0721 C4.0804,8.4491 4.5854,7.9441 5.2094,7.9441 C5.8324,7.9441 6.3374,8.4491 6.3374,9.0721" id="Fill-3" fill="#F97F78"></path>
                <path d="M13.6724,8.9418 C13.6724,9.5658 13.1674,10.0708 12.5434,10.0708 C11.9204,10.0708 11.4144,9.5658 11.4144,8.9418 C11.4144,8.3178 11.9204,7.8128 12.5434,7.8128 C13.1674,7.8128 13.6724,8.3178 13.6724,8.9418" id="Fill-5" fill="#F97F78"></path>
                <polyline id="Stroke-7" stroke="#082D73" stroke-width="1.5" stroke-linecap="round" stroke-linejoin="round" points="12.9781 0.5643 8.9871 5.0793 5.0771 0.6563"></polyline>
                <polygon id="Stroke-9" stroke="#082D73" stroke-width="1.5" stroke-linecap="round" stroke-linejoin="round" points="0.564 18.2452 17.492 18.2452 17.492 5.0792 0.564 5.0792"></polygon>
            </g>
        </g>
    </g>
</svg>