<?xml version="1.0" encoding="UTF-8"?>
<svg width="80px" height="40px" viewBox="0 0 80 40" version="1.1" xmlns="http://www.w3.org/2000/svg" xmlns:xlink="http://www.w3.org/1999/xlink">
    <!-- Generator: Sketch 45.2 (43514) - http://www.bohemiancoding.com/sketch -->
    <title>ic_bookmark_navi_left_dark_unselected</title>
    <desc>Created with Sketch.</desc>
    <defs></defs>
    <g id="Symbols" stroke="none" stroke-width="1" fill="none" fill-rule="evenodd">
        <g id="ic_bookmark_navi_left_dark_unselected" fill="#092D73">
            <g id="Group" transform="translate(16.000000, 10.000000)">
                <path d="M16.045,8.70677675 L16.055,8.70677675 L16.045,8.70677675 Z M5.82,1.98877675 C4.833,1.98877675 3.847,2.34077675 3.095,3.04477675 C2.389,3.70677675 2,4.58277675 2,5.51077675 C2,6.43777675 2.389,7.31377675 3.096,7.97777675 L9.229,13.7267767 L15.361,7.97777675 C16.068,7.31377675 16.457,6.43777675 16.457,5.51077675 C16.457,4.58277675 16.067,3.70677675 15.361,3.04477675 C13.859,1.63677675 11.416,1.63677675 9.912,3.04477675 C9.527,3.40577675 8.93,3.40577675 8.545,3.04477675 C7.793,2.34077675 6.807,1.98877675 5.82,1.98877675 L5.82,1.98877675 Z M9.229,16.0977767 C8.983,16.0977767 8.737,16.0077767 8.545,15.8267767 L1.728,9.43577675 C0.613,8.39177675 0,6.99677675 0,5.50977675 C0,4.02377675 0.613,2.62977675 1.728,1.58577675 C3.767,-0.32622325 6.965,-0.50922325 9.229,1.03677675 C11.491,-0.50922325 14.69,-0.32622325 16.729,1.58577675 C17.843,2.62977675 18.457,4.02277675 18.457,5.50977675 C18.457,6.99677675 17.844,8.39177675 16.729,9.43577675 L9.912,15.8267767 C9.72,16.0077767 9.475,16.0977767 9.229,16.0977767 L9.229,16.0977767 Z" id="Fill-1"></path>
                <path d="M17.457,19.86 L1,19.86 C0.447,19.86 0,19.413 0,18.86 L0,14 C0,13.447 0.447,13 1,13 C1.553,13 2,13.447 2,14 L2,17.86 L16.457,17.86 L16.457,14 C16.457,13.447 16.904,13 17.457,13 C18.01,13 18.457,13.447 18.457,14 L18.457,18.86 C18.457,19.413 18.01,19.86 17.457,19.86" id="Fill-4"></path>
            </g>
        </g>
    </g>
</svg>