<?xml version="1.0" encoding="utf-8"?>
<!-- Generator: Adobe Illustrator 22.0.1, SVG Export Plug-In . SVG Version: 6.00 Build 0)  -->
<svg version="1.1" id="Layer_1" xmlns="http://www.w3.org/2000/svg" xmlns:xlink="http://www.w3.org/1999/xlink" x="0px" y="0px"
	 viewBox="0 0 40 40" style="enable-background:new 0 0 40 40;" xml:space="preserve">
<style type="text/css">
	.st0{fill:#FFFFFF;}
</style>
<title>ic_bookmark_detail_navi_right_white_unselected</title>
<desc>Created with Sketch.</desc>
<path class="st0" d="M20,28.5c-0.3,0-0.5-0.1-0.8-0.3l-7.5-7c-1.2-1.1-1.9-2.7-1.9-4.3s0.7-3.2,1.9-4.3c2.2-2.1,5.7-2.3,8.2-0.6
	c2.5-1.7,6-1.5,8.2,0.6c1.2,1.1,1.9,2.7,1.9,4.3s-0.7,3.2-1.9,4.3l-7.5,7C20.5,28.4,20.3,28.5,20,28.5z M16.3,13.1
	c-1.1,0-2.2,0.4-3,1.2c-0.8,0.7-1.2,1.7-1.2,2.7s0.4,2,1.2,2.7l6.7,6.3l6.7-6.3v0c0.8-0.7,1.2-1.7,1.2-2.7s-0.4-2-1.2-2.7
	c-1.6-1.5-4.3-1.5-6,0c-0.4,0.4-1.1,0.4-1.5,0C18.4,13.5,17.4,13.1,16.3,13.1z"/>
</svg>
