<?xml version="1.0" encoding="UTF-8"?>
<svg width="24px" height="24px" viewBox="0 0 24 24" version="1.1" xmlns="http://www.w3.org/2000/svg" xmlns:xlink="http://www.w3.org/1999/xlink">
    <!-- Generator: Sketch 43.2 (39069) - http://www.bohemiancoding.com/sketch -->
    <title>ic_concert</title>
    <desc>Created with Sketch.</desc>
    <defs>
        <polygon id="path-1" points="5.55333333 5.10149583 5.55333333 0.159370833 0.790571429 0.159370833 0.790571429 5.10149583 5.55333333 5.10149583"></polygon>
    </defs>
    <g id="Symbols" stroke="none" stroke-width="1" fill="none" fill-rule="evenodd">
        <g id="ic_concert">
            <g id="Page-1" transform="translate(2.000000, 0.000000)">
                <path d="M8.21533333,20.4756542 C7.87914286,20.4900292 7.55914286,20.2868625 7.43628571,19.9524042 C7.28485714,19.5384042 7.49628571,19.0784042 7.90866667,18.9269875 L14.2429524,16.5848208 C14.6562857,16.4324458 15.1105714,16.6451958 15.2610476,17.0601542 C15.4134286,17.4741542 15.202,17.9331958 14.789619,18.0846125 L8.45533333,20.4267792 C8.37628571,20.4564875 8.29533333,20.4718208 8.21533333,20.4756542" id="Fill-1" fill="#4CF1FD"></path>
                <path d="M4.90057143,7.49982083 C4.56438095,7.51419583 4.24438095,7.31102917 4.12247619,6.97657083 C3.97009524,6.56257083 4.18152381,6.10352917 4.59390476,5.95115417 L8.93771429,4.35169583 C9.35104762,4.1983625 9.80533333,4.41207083 9.95771429,4.82607083 C10.1081905,5.24007083 9.8967619,5.70007083 9.48533333,5.8514875 L5.14057143,7.45094583 C5.06152381,7.48065417 4.98057143,7.49694583 4.90057143,7.49982083" id="Fill-3" fill="#4CF1FD"></path>
                <path d="M19.3620952,9.74356667 C19.3620952,10.2725667 18.936381,10.7019 18.4097143,10.7019 C17.884,10.7019 17.4573333,10.2725667 17.4573333,9.74356667 C17.4573333,9.21456667 17.884,8.78523333 18.4097143,8.78523333 C18.936381,8.78523333 19.3620952,9.21456667 19.3620952,9.74356667" id="Fill-5" fill="#F97F78"></path>
                <path d="M3.09628571,20.4691375 C4.41247619,21.6747208 6.07628571,22.5429708 7.84771429,22.3292625 C12.4934286,21.7705542 10.9334286,17.0363875 11.9962857,15.7723458 C12.8191429,14.7919708 13.5629524,15.4244708 14.5600952,14.2380542 C16.1639048,12.3300125 12.5324762,9.24130417 12.5324762,9.24130417 C12.5324762,9.24130417 8.90295238,6.15067917 7.29819048,8.05872083 C6.30104762,9.24609583 7.04485714,9.8776375 6.22104762,10.8580125 C5.15914286,12.1220542 0.259142857,11.3601792 0.483904762,16.0627208 C0.569619048,17.8557625 1.69533333,19.3632208 3.09628571,20.4691375 Z" id="Stroke-7" stroke="#082D73" stroke-width="1.5" stroke-linecap="round" stroke-linejoin="round"></path>
                <path d="M10.0000952,14.8702667 C9.40104762,15.5823083 8.342,15.6714333 7.63438095,15.0696 C6.92580952,14.4668083 6.83819048,13.4011417 7.43628571,12.6891 C8.03533333,11.9761 9.09438095,11.8879333 9.802,12.4897667 C10.509619,13.0925583 10.5981905,14.158225 10.0000952,14.8702667" id="Fill-9" fill="#082D73"></path>
                <polygon id="Fill-11" fill="#082D73" points="6.75695238 19.2777375 3.65504762 16.6384875 4.43504762 15.7098625 7.53695238 18.3491125"></polygon>
                <polygon id="Fill-13" fill="#082D73" points="17.2284762 5.53677083 15.3827619 3.9660625 7.7732381 13.0203958 9.61895238 14.5901458"></polygon>
                <g id="Group-17" transform="translate(14.285714, 0.799346)">
                    <mask id="mask-2" fill="white">
                        <use xlink:href="#path-1"></use>
                    </mask>
                    <g id="Clip-16"></g>
                    <polygon id="Fill-15" fill="#082D73" mask="url(#mask-2)" points="5.55342857 2.2255375 3.12485714 0.159370833 0.805809524 2.91937083 0.790571429 3.5307875 2.63628571 5.10149583 3.23342857 4.9855375"></polygon>
                </g>
            </g>
        </g>
    </g>
</svg>