<?xml version="1.0" encoding="UTF-8"?>
<svg width="48px" height="48px" viewBox="0 0 48 48" version="1.1" xmlns="http://www.w3.org/2000/svg" xmlns:xlink="http://www.w3.org/1999/xlink">
    <!-- Generator: Sketch 45.1 (43504) - http://www.bohemiancoding.com/sketch -->
    <title>ic_copylink</title>
    <desc>Created with Sketch.</desc>
    <defs></defs>
    <g id="Symbols" stroke="none" stroke-width="1" fill="none" fill-rule="evenodd">
        <g id="ic_copylink" fill="#000000">
            <g id="Page-1" transform="translate(11.000000, 11.000000)">
                <g id="Group-6" transform="translate(0.000000, 0.004416)">
                    <path d="M15.1615574,9.73077811 C14.8671725,9.43464617 14.5407577,9.17214573 14.1883791,8.9480813 C13.2550442,8.35043055 12.1700036,8.03284822 11.061717,8.03284822 C9.52345178,8.02998493 8.04769364,8.64117563 6.96187653,9.73077811 L1.69420276,15.0025769 C0.6102298,16.0886367 0.000980312224,17.5601242 9.70606163e-06,19.0945555 C-0.00202856688,22.2965852 2.59201346,24.8939758 5.79404319,24.8960141 C7.32993038,24.9013524 8.80432967,24.2930735 9.88975855,23.2063829 L14.2380742,18.8580673 C14.3170815,18.7796908 14.3611955,18.6728756 14.3605646,18.5616442 C14.3592543,18.3328723 14.1727524,18.1486027 13.944029,18.149913 L13.7783951,18.149913 C12.8699077,18.153116 11.9695249,17.9786496 11.1280094,17.6364138 C10.972955,17.5725479 10.7947517,17.608606 10.676629,17.7275052 L7.5499668,20.8582925 C6.57906946,21.8291898 5.00494038,21.8291898 4.03404304,20.8582925 C3.06314569,19.8873951 3.06314569,18.313266 4.03404304,17.3423687 L9.32243924,12.0581461 C10.2925601,11.0892385 11.8641171,11.0892385 12.8342379,12.0581461 C13.4880382,12.6734619 14.5078541,12.6734619 15.1616059,12.0581461 C15.4428876,11.7766218 15.6134231,11.4032296 15.6419589,11.0062517 C15.6721933,10.5318679 15.4972901,10.0672873 15.1615574,9.73077811" id="Fill-1"></path>
                    <path d="M23.1500052,1.742306 C20.8857752,-0.521972582 17.214603,-0.521972582 14.9503244,1.742306 L10.6061338,6.08232293 C10.4868463,6.20219279 10.4524383,6.38248288 10.5191675,6.53787693 C10.5851202,6.69370775 10.739301,6.79372871 10.9084291,6.79047718 L11.0616878,6.79047718 C11.969059,6.78882715 12.8680344,6.96465246 13.7078999,7.30814998 C13.8630028,7.37196734 14.0412061,7.33595785 14.1592803,7.21705859 L17.2776438,4.10282019 C18.2485897,3.13192285 19.8226702,3.13192285 20.7935676,4.10282019 C21.7644649,5.07371753 21.7644649,6.64784661 20.7935676,7.61874395 L16.9090561,11.4990818 L16.8759585,11.5363531 L15.5175951,12.8864177 C14.5474743,13.8553253 12.9759173,13.8553253 12.0057965,12.8864177 C11.3520447,12.2711019 10.3321802,12.2711019 9.67842847,12.8864177 C9.39535118,13.1700774 9.22471861,13.5467211 9.19802695,13.9465623 C9.16774403,14.4209461 9.34269579,14.8855267 9.67842847,15.2220844 C10.1578108,15.7034565 10.7185786,16.0960182 11.3349135,16.381619 C11.4218798,16.4230154 11.5088461,16.4561131 11.5958124,16.4934329 C11.6827787,16.5307041 11.7738701,16.5596767 11.8608364,16.5928229 C11.9478027,16.6259206 12.0388941,16.6549417 12.1258604,16.6797893 L12.3702105,16.7460331 C12.5358445,16.7874295 12.7015269,16.8205757 12.871286,16.8495483 C13.0757927,16.8799282 13.2817553,16.8992433 13.4883488,16.907542 L13.7782689,16.907542 L13.8030679,16.907542 L14.0515916,16.8785694 C14.1426344,16.8744443 14.2378994,16.8537219 14.3455882,16.8537219 L14.4863746,16.8537219 L14.7721211,16.8123255 L14.9047059,16.787478 L15.1448824,16.737783 L15.1904038,16.737783 C16.2076476,16.4822709 17.1365662,15.9555715 17.8780608,15.2137857 L23.1498596,9.94198686 C25.4142838,7.67770828 25.4142838,4.00658459 23.1500052,1.742306" id="Fill-4"></path>
                </g>
            </g>
        </g>
    </g>
</svg>