<?xml version="1.0" encoding="utf-8"?>
<!-- Generator: Adobe Illustrator 22.0.1, SVG Export Plug-In . SVG Version: 6.00 Build 0)  -->
<svg version="1.1" id="Layer_1" xmlns="http://www.w3.org/2000/svg" xmlns:xlink="http://www.w3.org/1999/xlink" x="0px" y="0px"
	 viewBox="0 0 60 40" style="enable-background:new 0 0 60 40;" xml:space="preserve">
<style type="text/css">
	.st0{fill:#2B52CF;}
</style>
<title>ic_drawer_navi_right_black</title>
<desc>Created with Sketch.</desc>
<g id="Symbols">
	<g id="ic_drawer_navi_right_black">
		<g id="ic_drawer" transform="translate(40.000000, 8.000000)">
			<g id="drawer" transform="translate(5.000000, 3.000000)">
				<path class="st0" d="M4,2h-14c-0.6,0-1-0.4-1-1s0.4-1,1-1H4c0.6,0,1,0.4,1,1S4.6,2,4,2z"/>
				<path class="st0" d="M-4,10h-6c-0.6,0-1-0.4-1-1s0.4-1,1-1h6c0.6,0,1,0.4,1,1S-3.4,10-4,10z"/>
				<path class="st0" d="M4,18h-14c-0.6,0-1-0.4-1-1s0.4-1,1-1H4c0.6,0,1,0.4,1,1S4.6,18,4,18z"/>
			</g>
		</g>
	</g>
</g>
</svg>
