<?xml version="1.0" encoding="UTF-8"?>
<svg width="24px" height="24px" viewBox="0 0 24 24" version="1.1" xmlns="http://www.w3.org/2000/svg" xmlns:xlink="http://www.w3.org/1999/xlink">
    <!-- Generator: Sketch 43.2 (39069) - http://www.bohemiancoding.com/sketch -->
    <title>ic_festival</title>
    <desc>Created with Sketch.</desc>
    <defs>
        <polygon id="path-1" points="7.269 0.788574577 7.269 2.77456479 0.754579615 2.77456479 0.754579615 0.788574577"></polygon>
    </defs>
    <g id="Symbols" stroke="none" stroke-width="1" fill="none" fill-rule="evenodd">
        <g id="ic_festival">
            <g id="Page-1" transform="translate(2.000000, 2.000000)">
                <g id="Group-3" transform="translate(12.000000, 10.859700)">
                    <mask id="mask-2" fill="white">
                        <use xlink:href="#path-1"></use>
                    </mask>
                    <g id="Clip-2"></g>
                    <path d="M1.3875,2.7505 C1.0455,2.6655 0.7825,2.3675 0.7565,1.9965 C0.7255,1.5375 1.0735,1.1405 1.5335,1.1095 L6.3795,0.7905 C6.8405,0.7595 7.2365,1.1065 7.2675,1.5665 C7.2985,2.0255 6.9505,2.4235 6.4915,2.4545 L1.6445,2.7725 C1.5555,2.7785 1.4695,2.7715 1.3875,2.7505" id="Fill-1" fill="#4CF1FD" mask="url(#mask-2)"></path>
                </g>
                <path d="M12.2811,7.1849 C11.9481,7.2999 11.5641,7.1929 11.3421,6.8959 C11.0661,6.5269 11.1411,6.0049 11.5101,5.7289 L15.4041,2.8249 C15.7731,2.5479 16.2951,2.6239 16.5711,2.9929 C16.8461,3.3619 16.7711,3.8839 16.4021,4.1599 L12.5091,7.0639 C12.4371,7.1179 12.3601,7.1579 12.2811,7.1849" id="Fill-4" fill="#4CF1FD"></path>
                <path d="M7.0868,5.9779 C6.9628,6.3089 6.6368,6.5359 6.2648,6.5179 C5.8058,6.4959 5.4498,6.1039 5.4728,5.6449 L5.7158,0.7929 C5.7378,0.3319 6.1298,-0.0211 6.5898,0.0009 C7.0488,0.0229 7.4038,0.4149 7.3818,0.8739 L7.1388,5.7259 C7.1338,5.8149 7.1158,5.8989 7.0868,5.9779" id="Fill-6" fill="#4CF1FD"></path>
                <path d="M3.2674,3.2596 C3.2674,3.8116 2.8194,4.2596 2.2674,4.2596 C1.7144,4.2596 1.2674,3.8116 1.2674,3.2596 C1.2674,2.7076 1.7144,2.2596 2.2674,2.2596 C2.8194,2.2596 3.2674,2.7076 3.2674,3.2596" id="Fill-8" fill="#F97F78"></path>
                <path d="M17.0125,8.4891 C17.0125,9.0411 16.5645,9.4891 16.0125,9.4891 C15.4595,9.4891 15.0125,9.0411 15.0125,8.4891 C15.0125,7.9371 15.4595,7.4891 16.0125,7.4891 C16.5645,7.4891 17.0125,7.9371 17.0125,8.4891" id="Fill-10" fill="#082D73"></path>
                <path d="M10.5877,8.9672 C10.5877,9.5192 10.1397,9.9672 9.5877,9.9672 C9.0347,9.9672 8.5877,9.5192 8.5877,8.9672 C8.5877,8.4152 9.0347,7.9672 9.5877,7.9672 C10.1397,7.9672 10.5877,8.4152 10.5877,8.9672" id="Fill-12" fill="#F97F78"></path>
                <path d="M11.5877,2.3817 C11.5877,2.9337 11.1397,3.3817 10.5877,3.3817 C10.0347,3.3817 9.5877,2.9337 9.5877,2.3817 C9.5877,1.8297 10.0347,1.3817 10.5877,1.3817 C11.1397,1.3817 11.5877,1.8297 11.5877,2.3817" id="Fill-14" fill="#082D73"></path>
                <polygon id="Stroke-16" stroke="#082D73" stroke-width="1.5" stroke-linecap="round" stroke-linejoin="round" points="2.3006 7.2567 0.4996 20.3597 12.4906 14.7797"></polygon>
                <path d="M1.1873,16.848 L6.4963,17.428" id="Stroke-18" stroke="#082D73" stroke-linecap="round" stroke-linejoin="round"></path>
                <path d="M1.6786,13.661 L11.1756,14.748" id="Stroke-20" stroke="#082D73" stroke-linecap="round" stroke-linejoin="round"></path>
                <path d="M1.8651,10.4232 L7.4571,11.0632" id="Stroke-22" stroke="#082D73" stroke-linecap="round" stroke-linejoin="round"></path>
            </g>
        </g>
    </g>
</svg>