<?xml version="1.0" encoding="utf-8"?>
<!-- Generator: Adobe Illustrator 22.0.1, SVG Export Plug-In . SVG Version: 6.00 Build 0)  -->
<svg version="1.1" id="Layer_1" xmlns="http://www.w3.org/2000/svg" xmlns:xlink="http://www.w3.org/1999/xlink" x="0px" y="0px"
	 viewBox="0 0 24 24" style="enable-background:new 0 0 24 24;" xml:space="preserve">
<style type="text/css">
	.st0{fill:#565656;}
	.st1{enable-background:new    ;}
</style>
<title>ic_up_gray</title>
<desc>Created with Sketch.</desc>
<g id="Symbols">
	<g id="ic_up_gray">
		<path class="st0" d="M20.7,9.3l-8-8c-0.4-0.4-1-0.4-1.4,0l-8,8c-0.4,0.4-0.4,1,0,1.4C3.5,10.9,3.7,11,4,11s0.5-0.1,0.7-0.3L12,3.4
			l7.3,7.3c0.2,0.2,0.5,0.3,0.7,0.3s0.5-0.1,0.7-0.3C21.1,10.3,21.1,9.7,20.7,9.3z"/>
		<g class="st1">
			<path class="st0" d="M5.1,16.5H3.3v-1.1h5.1v1.1H6.5V22H5.1V16.5z"/>
			<path class="st0" d="M11.5,22.1c-0.4,0-0.8-0.1-1.2-0.2c-0.4-0.2-0.7-0.4-0.9-0.7s-0.5-0.7-0.6-1.1s-0.2-0.9-0.2-1.5
				s0.1-1,0.2-1.4c0.1-0.4,0.3-0.8,0.6-1.1s0.6-0.5,0.9-0.7c0.4-0.2,0.8-0.2,1.2-0.2c0.4,0,0.8,0.1,1.2,0.2s0.7,0.4,0.9,0.7
				c0.3,0.3,0.5,0.6,0.6,1.1c0.1,0.4,0.2,0.9,0.2,1.4s-0.1,1-0.2,1.5s-0.3,0.8-0.6,1.1c-0.3,0.3-0.6,0.5-0.9,0.7S12,22.1,11.5,22.1z
				 M11.5,21c0.2,0,0.5-0.1,0.7-0.2c0.2-0.1,0.4-0.3,0.5-0.5s0.2-0.5,0.3-0.7c0.1-0.3,0.1-0.6,0.1-1c0-0.7-0.1-1.3-0.4-1.7
				s-0.7-0.6-1.2-0.6s-0.9,0.2-1.2,0.6c-0.3,0.4-0.4,1-0.4,1.7c0,0.4,0,0.7,0.1,1c0.1,0.3,0.2,0.5,0.3,0.7c0.1,0.2,0.3,0.4,0.5,0.5
				C11,20.9,11.3,21,11.5,21z"/>
			<path class="st0" d="M15.5,15.3h2.2c0.4,0,0.7,0,1,0.1c0.3,0.1,0.6,0.2,0.8,0.3c0.2,0.2,0.4,0.4,0.6,0.6s0.2,0.6,0.2,1
				c0,0.4-0.1,0.7-0.2,1c-0.1,0.3-0.3,0.5-0.5,0.7c-0.2,0.2-0.5,0.3-0.8,0.4c-0.3,0.1-0.6,0.1-1,0.1h-0.9V22h-1.3V15.3z M17.6,18.6
				c0.9,0,1.4-0.4,1.4-1.2c0-0.4-0.1-0.7-0.4-0.8c-0.2-0.2-0.6-0.2-1-0.2h-0.8v2.2H17.6z"/>
		</g>
	</g>
</g>
</svg>
