<svg xmlns="http://www.w3.org/2000/svg" width="40" height="40" viewBox="0 0 40 40">
    <path fill="#FFF" fill-rule="evenodd" d="M24.765 22.046l-2.284-2.296 2.227-2.278 3.996 2.303-3.939 2.271zm-10.58-10.637l8.488 4.891-1.796 1.837-6.692-6.728zm6.706 9.967l1.836 1.846-8.344 4.812 6.508-6.658zm-10.616 7.606V10.704l9.012 9.059-9.012 9.219zm19.986-10.935L11.66 7.33a2.415 2.415 0 0 0-2.441.001A2.415 2.415 0 0 0 8 9.445v20.933c0 .828.428 1.568 1.144 1.982.358.206.751.31 1.145.31.393 0 .786-.104 1.144-.31l18.828-10.857a1.974 1.974 0 0 0 .997-1.728 1.97 1.97 0 0 0-.997-1.728z"/>
</svg>
