<?xml version="1.0" encoding="UTF-8"?>
<svg width="80px" height="40px" viewBox="0 0 80 40" version="1.1" xmlns="http://www.w3.org/2000/svg" xmlns:xlink="http://www.w3.org/1999/xlink">
    <!-- Generator: Sketch 46.2 (44496) - http://www.bohemiancoding.com/sketch -->
    <title>ic_index_header_drawer_logo_dark</title>
    <desc>Created with Sketch.</desc>
    <defs>
        <polygon id="path-1" points="4.49371024 4.62962963 0.000132008761 4.62962963 0.000132008761 0.126917989 4.49371024 0.126917989"></polygon>
    </defs>
    <g id="Symbols" stroke="none" stroke-width="1" fill="none" fill-rule="evenodd">
        <g id="ic_index_header_drawer_logo_dark">
            <g id="Page-1-Copy" transform="translate(8.000000, 3.000000)">
                <path d="M24.8742516,26.7520873 C24.6684269,26.1046651 24.2345262,25.5793157 23.6525152,25.2734069 C23.0691135,24.9667714 22.4057461,24.9159077 21.786186,25.1317151 L7.67537447,30.0204435 C6.39661911,30.4636844 5.70057011,31.9125733 6.12404048,33.2488354 C6.45920094,34.2995342 7.38819341,35 8.44234954,35 L8.46877298,35 C8.720491,34.9978201 8.97012296,34.953496 9.21349673,34.8699342 L23.3243083,29.9804792 C23.943173,29.7653984 24.4459137,29.3112582 24.7386576,28.702347 C25.0320968,28.0919826 25.0800762,27.3995096 24.8742516,26.7520873" id="Fill-4" fill="#4CF1FD"></path>
                <path d="M33.8742516,1.75208735 C33.6684269,1.10466508 33.2345262,0.579315696 32.6525152,0.273406858 C32.0691135,-0.033228605 31.4057461,-0.0840923074 30.786186,0.131715116 L16.6753745,5.02044354 C15.3966191,5.46368437 14.7005701,6.91257327 15.1240405,8.24883539 C15.4592009,9.29953416 16.3881934,10 17.4423495,10 L17.468773,10 C17.720491,9.99782013 17.970123,9.95349604 18.2134967,9.86993425 L32.3243083,4.9804792 C32.943173,4.7653984 33.4459137,4.3112582 33.7386576,3.70234702 C34.0320968,3.09198259 34.0800762,2.39950962 33.8742516,1.75208735" id="Fill-4-Copy" fill="#F87F78"></path>
                <g id="Group-8" transform="translate(0.000000, 32.000000)">
                    <mask id="mask-2" fill="white">
                        <use xlink:href="#path-1"></use>
                    </mask>
                    <g id="Clip-7"></g>
                    <path d="M2.24692112,0.126917989 C1.0080189,0.126917989 0.000132008761,1.13683862 0.000132008761,2.37824074 C0.000132008761,3.61964286 1.0080189,4.63022487 2.24692112,4.63022487 C3.48582335,4.63022487 4.49371024,3.61964286 4.49371024,2.37824074 C4.49371024,1.13683862 3.48582335,0.126917989 2.24692112,0.126917989" id="Fill-6" fill="#4CF1FD" mask="url(#mask-2)"></path>
                </g>
                <path d="M19.6457883,35 C18.5097192,35 17.4290857,34.6624928 16.5197984,34.0248195 C15.1036717,33.0252235 14.2958963,31.4504291 14.2958963,29.6982638 L14.2958963,28.3073031 L12.012959,28.9622108 C10.2786177,29.4548277 8.5637149,29.171178 7.22318215,28.2225672 C5.81209503,27.2301523 5,25.6438682 5,23.8744685 L5,8.11647055 C5,5.4594986 6.91432685,2.98205178 9.55147588,2.22517382 C11.1915047,1.75266367 12.9697624,2.03272288 14.312455,2.98133368 C15.7228222,3.97374861 16.5363571,5.55716027 16.5363571,7.32009706 L16.5363571,10.9687658 C18.3801296,8.21341412 21.2087833,6.0009464 24.4334053,5.07675102 C27.6162707,4.16476335 30.8164147,4.61573048 33.2159827,6.30254862 L33.2181425,6.30398482 C35.6213103,7.99726586 37,10.7540538 37,13.8670196 C37,19.4100375 32.5478762,25.027738 26.8639309,26.6578262 C26.511879,26.7583602 26.1576674,26.8438142 25.8034557,26.9120338 L25.8034557,28.9097894 C25.8034557,31.5509632 23.9013679,34.0147661 21.2807775,34.7666173 C20.7408207,34.921727 20.1907847,35 19.6457883,35" id="Fill-9" fill="#FFFFFF"></path>
                <path d="M25.5120631,19.4889874 C25.1310652,19.5976831 24.7572424,19.6534611 24.4027923,19.6534611 C23.7979312,19.6534611 23.2698436,19.4975686 22.8328799,19.1900744 C22.1928608,18.7402746 21.8405632,18.0022883 21.8405632,17.1119851 L21.8405632,17.0855263 C21.8405632,15.0481979 23.5963108,12.888587 25.7538641,12.2693078 C26.1291219,12.1620423 26.4972047,12.1084096 26.8466322,12.1084096 C27.4421657,12.1084096 27.9860384,12.2685927 28.4194146,12.5739416 C29.0666089,13.0294622 29.4232115,13.7753146 29.4232115,14.6741991 C29.4232115,16.7108124 27.6688989,18.8718535 25.5120631,19.4889874 M30.8998475,9.56979405 C29.9965021,8.93478261 28.8750336,8.59868421 27.6559837,8.59868421 C26.9643039,8.59868421 26.2439236,8.70523455 25.5120631,8.91475973 C21.5162486,10.0589245 18.2644922,14.0892449 18.2644922,17.8971682 L18.2644922,19.5933924 L12.6047714,21.215246 L12.6047714,7.36870709 C12.6047714,6.90245995 12.4088911,6.50772311 12.0522886,6.25672197 C11.8140752,6.08867277 11.5184609,6 11.1984514,6 C11.0276839,6 10.8533289,6.0250286 10.6811265,6.07437071 C9.73903555,6.34467963 9,7.26144165 9,8.16175629 L9,23.853976 C9,24.3273741 9.1958803,24.7249714 9.55033035,24.9745423 C9.78567371,25.1404462 10.0662202,25.2248284 10.3833597,25.2248284 C10.5648898,25.2248284 10.7564651,25.1955092 10.9530629,25.1397311 L18.2644922,23.0451945 L18.2644922,29.6534611 C18.2644922,30.111127 18.4575025,30.4987128 18.80693,30.7454233 C19.0437083,30.9120423 19.335735,31 19.6500045,31 C19.8243595,31 20.0051721,30.9735412 20.1881372,30.9206236 C21.0993752,30.659611 21.8405632,29.7385584 21.8405632,28.8675629 L21.8405632,22.9093249 C22.3908936,23.0745137 22.9842746,23.1574657 23.609226,23.1574657 C24.309516,23.1574657 25.0313313,23.0523455 25.7538641,22.8449657 C29.7489611,21.7008009 33,17.6826373 33,13.8883009 C33,12.0569222 32.2537894,10.5230263 30.8998475,9.56979405" id="Fill-11" fill="#0A1853"></path>
            </g>
        </g>
    </g>
</svg>