<?xml version="1.0" encoding="UTF-8"?>
<svg width="40px" height="40px" viewBox="0 0 40 40" version="1.1" xmlns="http://www.w3.org/2000/svg" xmlns:xlink="http://www.w3.org/1999/xlink">
    <!-- Generator: Sketch 48.2 (47327) - http://www.bohemiancoding.com/sketch -->
    <title>ic_itunes_white</title>
    <desc>Created with Sketch.</desc>
    <defs></defs>
    <g id="Symbols" stroke="none" stroke-width="1" fill="none" fill-rule="evenodd">
        <g id="ic_itunes_white" fill="#FFFFFF">
            <g id="Page-1" transform="translate(9.000000, 6.000000)">
                <path d="M17.8171053,13.9437158 C17.8437368,11.9011895 18.9147895,10.0138211 20.6551053,8.94508421 C19.5516316,7.36918947 17.7707895,6.40697895 15.8486842,6.34676842 C13.827,6.13371579 11.8666842,7.55561053 10.8361579,7.55561053 C9.78594737,7.55561053 8.19963158,6.36761053 6.49173684,6.40234737 C4.24426316,6.47529474 2.19942105,7.72234737 1.10521053,9.68729474 C-1.22331579,13.7190842 0.514684211,19.6440316 2.74478947,22.9035053 C3.861,24.4990842 5.16478947,26.2822421 6.87152632,26.2185579 C8.54236842,26.1502421 9.16531579,25.1532947 11.1823684,25.1532947 C13.1797368,25.1532947 13.7644737,26.2185579 15.5059474,26.1791895 C17.2983684,26.1502421 18.4273158,24.5755053 19.5041579,22.9648737 C20.3054211,21.8278211 20.9225789,20.5703474 21.3324737,19.2410842 C19.2042632,18.3402421 17.8194211,16.2560316 17.8171053,13.9437158" id="Fill-1"></path>
                <path d="M14.5283368,4.20338947 C15.5056,3.03044211 15.9872842,1.52286316 15.8703368,0.000231578947 C14.3778105,0.156547368 12.9987579,0.870968421 12.0076,1.99875789 C11.0303368,3.11149474 10.5347579,4.56696842 10.6308632,6.0456 C12.1430737,6.06065263 13.5800211,5.38212632 14.5283368,4.20338947" id="Fill-4"></path>
            </g>
        </g>
    </g>
</svg>