<?xml version="1.0" encoding="utf-8"?>
<!-- Generator: Adobe Illustrator 22.0.1, SVG Export Plug-In . SVG Version: 6.00 Build 0)  -->
<svg version="1.1" id="Layer_1" xmlns="http://www.w3.org/2000/svg" xmlns:xlink="http://www.w3.org/1999/xlink" x="0px" y="0px"
	 viewBox="0 0 80 40" style="enable-background:new 0 0 80 40;" xml:space="preserve">
<style type="text/css">
	.st0{clip-path:url(#SVGID_2_);}
	.st1{clip-path:url(#SVGID_4_);fill:#FF5B5E;}
	.st2{clip-path:url(#SVGID_6_);}
	.st3{clip-path:url(#SVGID_8_);fill:#4CF1FD;}
	.st4{clip-path:url(#SVGID_10_);}
	.st5{clip-path:url(#SVGID_12_);fill:#4CF1FD;}
	.st6{clip-path:url(#SVGID_14_);}
	.st7{clip-path:url(#SVGID_16_);fill:#1E3990;}
	.st8{clip-path:url(#SVGID_18_);}
	.st9{clip-path:url(#SVGID_20_);fill:#FFFFFF;}
</style>
<title>ic_index_header_drawer_logo</title>
<desc>Created with Sketch.</desc>
<g>
	<defs>
		<path id="SVGID_1_" d="M40.8,3.8c-0.4-1.4-1.8-2.1-3.2-1.7L22.9,6.7c-0.6,0.2-1.2,0.6-1.5,1.3c-0.3,0.6-0.4,1.3-0.2,2
			c0.3,1.1,1.3,1.8,2.4,1.8c0,0,0,0,0,0h0c0.3,0,0.6,1.4,0.8,1.3l14.7-6C40.5,6.6,41.2,5.2,40.8,3.8"/>
	</defs>
	<clipPath id="SVGID_2_">
		<use xlink:href="#SVGID_1_"  style="overflow:visible;"/>
	</clipPath>
	<g class="st0">
		<defs>
			<rect id="SVGID_3_" x="7.4" y="1.3" width="38.2" height="37"/>
		</defs>
		<clipPath id="SVGID_4_">
			<use xlink:href="#SVGID_3_"  style="overflow:visible;"/>
		</clipPath>
		<rect x="20.1" y="1" class="st1" width="21.7" height="12.9"/>
	</g>
</g>
<g>
	<defs>
		<path id="SVGID_5_" d="M33.2,28.1c-0.2-0.6-0.7-1.2-1.3-1.5c-0.6-0.3-1.3-0.4-1.9-0.1l-14.6,4.9c-1.3,0.4-2,1.9-1.6,3.2
			c0.3,1.1,1.3,1.8,2.4,1.8h0c0.3,0,0.5,0,0.8-0.1l14.6-4.9c0.6-0.2,1.2-0.7,1.5-1.3C33.4,29.4,33.4,28.7,33.2,28.1"/>
	</defs>
	<clipPath id="SVGID_6_">
		<use xlink:href="#SVGID_5_"  style="overflow:visible;"/>
	</clipPath>
	<g class="st2">
		<defs>
			<rect id="SVGID_7_" x="7.4" y="1.3" width="38.2" height="37"/>
		</defs>
		<clipPath id="SVGID_8_">
			<use xlink:href="#SVGID_7_"  style="overflow:visible;"/>
		</clipPath>
		<rect x="12.8" y="25.4" class="st3" width="21.5" height="12"/>
	</g>
</g>
<g>
	<defs>
		<path id="SVGID_9_" d="M10.5,33.3c-1.4,0-2.5,1.1-2.5,2.5c0,1.4,1.1,2.5,2.5,2.5c1.4,0,2.5-1.1,2.5-2.5
			C12.9,34.4,11.8,33.3,10.5,33.3"/>
	</defs>
	<clipPath id="SVGID_10_">
		<use xlink:href="#SVGID_9_"  style="overflow:visible;"/>
	</clipPath>
	<g class="st4">
		<defs>
			<rect id="SVGID_11_" x="7.4" y="1.3" width="38.2" height="37"/>
		</defs>
		<clipPath id="SVGID_12_">
			<use xlink:href="#SVGID_11_"  style="overflow:visible;"/>
		</clipPath>
		<rect x="7" y="32.3" class="st5" width="6.8" height="6.8"/>
	</g>
</g>
<g>
	<defs>
		<path id="SVGID_13_" d="M24.5,35.8c-1.4-1-2.2-2.6-2.2-4.4V30l-2.3,0.7c-1.7,0.5-3.5,0.2-4.8-0.7c-1.4-1-2.2-2.6-2.2-4.4V9.6
			c0-2.7,1.9-5.2,4.6-6c1.6-0.5,3.4-0.2,4.8,0.8c1.4,1,2.2,2.6,2.2,4.4v3.7c1.8-2.8,4.7-5,7.9-6c3.2-0.9,6.4-0.5,8.8,1.2
			c2.4,1.7,3.8,4.5,3.8,7.7c0,5.6-4.5,11.3-10.2,12.9c-0.4,0.1-0.7,0.2-1.1,0.3v2c0,2.7-1.9,5.2-4.5,5.9c-0.5,0.2-1.1,0.2-1.6,0.2
			C26.5,36.8,25.4,36.4,24.5,35.8z"/>
	</defs>
	<clipPath id="SVGID_14_">
		<use xlink:href="#SVGID_13_"  style="overflow:visible;"/>
	</clipPath>
	<g class="st6">
		<defs>
			<rect id="SVGID_15_" x="7.4" y="1.3" width="38.2" height="37"/>
		</defs>
		<clipPath id="SVGID_16_">
			<use xlink:href="#SVGID_15_"  style="overflow:visible;"/>
		</clipPath>
		<rect x="12" y="2.4" class="st7" width="34" height="35.3"/>
	</g>
</g>
<g>
	<defs>
		<path id="SVGID_17_" d="M38.8,10.9c-0.9-0.6-2-1-3.3-1c-0.7,0-1.4,0.1-2.2,0.3c-4,1.2-7.3,5.3-7.3,9.1v1.7l-5.7,1.6V8.7
			c0-0.5-0.2-0.9-0.6-1.1c-0.2-0.2-0.5-0.3-0.9-0.3c-0.2,0-0.3,0-0.5,0.1c-0.9,0.3-1.7,1.2-1.7,2.1v15.9c0,0.5,0.2,0.9,0.6,1.1
			c0.2,0.2,0.5,0.3,0.8,0.3c0.2,0,0.4,0,0.6-0.1l7.3-2.1v6.7c0,0.5,0.2,0.9,0.5,1.1c0.2,0.2,0.5,0.3,0.8,0.3c0.2,0,0.4,0,0.5-0.1
			c0.9-0.3,1.7-1.2,1.7-2.1v-6.1c0.6,0.2,1.1,0.3,1.8,0.3c0.7,0,1.4-0.1,2.2-0.3c4-1.2,7.3-5.2,7.3-9.1
			C40.9,13.4,40.2,11.9,38.8,10.9 M33.4,21c-0.4,0.1-0.8,0.2-1.1,0.2c-0.6,0-1.1-0.2-1.6-0.5c-0.6-0.5-1-1.2-1-2.1v0
			c0-2.1,1.8-4.3,3.9-4.9c0.4-0.1,0.7-0.2,1.1-0.2c0.6,0,1.1,0.2,1.6,0.5c0.7,0.5,1,1.2,1,2.1C37.3,18.2,35.6,20.4,33.4,21"/>
	</defs>
	<clipPath id="SVGID_18_">
		<use xlink:href="#SVGID_17_"  style="overflow:visible;"/>
	</clipPath>
	<g class="st8">
		<defs>
			<rect id="SVGID_19_" x="7.4" y="1.3" width="38.2" height="37"/>
		</defs>
		<clipPath id="SVGID_20_">
			<use xlink:href="#SVGID_19_"  style="overflow:visible;"/>
		</clipPath>
		<rect x="15.8" y="6.3" class="st9" width="26" height="27.3"/>
	</g>
</g>
</svg>
