<?xml version="1.0" encoding="UTF-8"?>
<svg width="48px" height="48px" viewBox="0 0 48 48" version="1.1" xmlns="http://www.w3.org/2000/svg" xmlns:xlink="http://www.w3.org/1999/xlink">
    <!-- Generator: Sketch 45.1 (43504) - http://www.bohemiancoding.com/sketch -->
    <title>ic_kakaotalk</title>
    <desc>Created with Sketch.</desc>
    <defs>
        <polygon id="path-1" points="26.5571408 24.5142807 26.5571408 0.00725622801 2.61485694e-06 0.00725622801 2.61485694e-06 24.5142807"></polygon>
    </defs>
    <g id="Symbols" stroke="none" stroke-width="1" fill="none" fill-rule="evenodd">
        <g id="ic_kakaotalk">
            <g id="Page-1" transform="translate(11.000000, 11.000000)">
                <g id="Group-3" transform="translate(0.000000, 0.005883)">
                    <mask id="mask-2" fill="white">
                        <use xlink:href="#path-1"></use>
                    </mask>
                    <g id="Clip-2"></g>
                    <path d="M23.0101031,13.4431207 C22.9825294,13.6444778 22.8754771,13.8264195 22.7128723,13.9483503 C22.5803905,14.0490485 22.4184786,14.1033721 22.2520691,14.1029668 C22.0113715,14.1040912 21.7843758,13.9911294 21.6401141,13.7984536 L19.8435505,11.4180056 L19.5777242,11.6838319 L19.5777242,13.3552746 C19.5772273,13.7783323 19.2344457,14.1211662 18.811388,14.1217284 C18.3889056,14.1217284 18.0453265,13.7781493 18.0453265,13.3556668 L18.0453265,8.11483982 C18.0453265,7.69234431 18.3889056,7.34876518 18.811388,7.34876518 C19.2338835,7.34876518 19.5774627,7.69234431 19.5774627,8.11483982 L19.5774627,9.76137601 L21.7148075,7.62404425 C21.8247361,7.51411566 21.9757833,7.4535948 22.1397218,7.4535948 C22.3309855,7.4535948 22.5230075,7.53606738 22.6669031,7.67983222 C22.8010975,7.81389593 22.8811514,7.98639805 22.8921338,8.16552882 C22.9032338,8.34618929 22.8431052,8.51178818 22.7230833,8.63194085 L20.9773263,10.3774363 L22.8630173,12.8755922 C22.9859941,13.037478 23.0389711,13.2418813 23.0101031,13.4431207 L23.0101031,13.4431207 Z M17.013164,14.0199712 L14.5553554,14.0199712 C14.150484,14.0199712 13.8212081,13.7048679 13.8212081,13.3177383 L13.8212081,8.11483982 C13.8212081,7.69234431 14.1720696,7.34876518 14.6032334,7.34876518 C15.0344102,7.34876518 15.3852717,7.69234431 15.3852717,8.11483982 L15.3852717,12.6155054 L17.013164,12.6155054 C17.4180354,12.6155054 17.7473243,12.9306218 17.7473243,13.3177383 C17.7473243,13.7048679 17.4180354,14.0199712 17.013164,14.0199712 L17.013164,14.0199712 Z M13.1414499,14.0161405 C12.9885723,14.0858526 12.8224897,14.1218591 12.654472,14.1217284 C12.335028,14.1217284 12.0906435,13.9920054 12.016983,13.783379 L11.6376457,12.7902955 L9.3016371,12.7901779 L8.92205139,13.7838889 C8.84863928,13.9921361 8.60438549,14.1217284 8.28492842,14.1217284 C8.11689771,14.1218984 7.950802,14.0858395 7.79796361,14.0160097 C7.58678776,13.9185932 7.38378335,13.6507273 7.61641409,12.92819 L9.44885354,8.10500796 C9.57793595,7.73818275 9.97003375,7.36025748 10.4690008,7.34889593 C10.9693798,7.36012674 11.3614776,7.73818275 11.4908215,8.10577934 L13.3224895,12.9267911 C13.5556302,13.6509757 13.3526258,13.9189724 13.1414499,14.0161405 L13.1414499,14.0161405 Z M6.70312301,13.4000933 C6.70312301,13.8035526 6.35954388,14.131691 5.93704837,14.131691 C5.51456594,14.131691 5.17098681,13.8035526 5.17098681,13.4000933 L5.17098681,8.84898705 L3.97565726,8.84898705 C3.56108476,8.84898705 3.22388589,8.51242882 3.22388589,8.09887612 C3.22388589,7.68532342 3.5612155,7.34876518 3.97565726,7.34876518 L7.89845256,7.34876518 C8.31302506,7.34876518 8.65022393,7.68532342 8.65022393,8.09887612 C8.65022393,8.51242882 8.31289431,8.84898705 7.89845256,8.84898705 L6.70312301,8.84898705 L6.70312301,13.4000933 Z M13.278573,0.00725361315 L13.278573,0.00725361315 C5.94497139,0.00725361315 2.61485694e-06,4.69471154 2.61485694e-06,10.4768924 C2.61485694e-06,14.2151965 2.48538491,17.4953776 6.22408122,19.3476115 C6.02068457,20.0490861 4.9170319,23.8602924 4.87310231,24.1596935 C4.87310231,24.1596935 4.84667918,24.3846627 4.99236593,24.4704562 C5.13803961,24.5562627 5.30939119,24.48961 5.30939119,24.48961 C5.72715381,24.4312595 10.1538974,21.3217762 10.9200897,20.7818344 C11.6855237,20.8902333 12.4736808,20.9465312 13.278573,20.9465312 C20.6121746,20.9465312 26.5571434,16.259204 26.5571434,10.4768924 C26.5571434,4.69471154 20.6121746,0.00725361315 13.278573,0.00725361315 L13.278573,0.00725361315 Z" id="Fill-1" fill="#000000" mask="url(#mask-2)"></path>
                </g>
                <polygon id="Fill-4" fill="#000000" points="10.4696414 9.26548801 9.70446888 11.4392186 11.2348139 11.4392186"></polygon>
            </g>
        </g>
    </g>
</svg>