<svg xmlns="http://www.w3.org/2000/svg" xmlns:xlink="http://www.w3.org/1999/xlink" width="60" height="40" viewBox="0 0 60 40">
    <defs>
        <path id="a" d="M0 .015h3.479v3.49H0z"/>
        <path id="c" d="M.206.07H58.64v38.588H.206z"/>
    </defs>
    <g fill="none" fill-rule="evenodd">
        <path fill="#FF5B5E" d="M47.282 4.637a1.796 1.796 0 0 0-2.27-1.143l-10.366 3.45a1.783 1.783 0 0 0-1.04.902c-.216.43-.251.92-.1 1.376a1.791 1.791 0 0 0 1.704 1.235h.019c.187-.002.37-.033.546-.092l10.368-3.45a1.807 1.807 0 0 0 1.14-2.278"/>
        <path fill="#4CF1FD" d="M18.945 30.218a1.791 1.791 0 0 0-2.27-1.144L6.31 32.524a1.785 1.785 0 0 0-1.04.902c-.215.43-.25.92-.1 1.376.246.74.93 1.235 1.704 1.235h.019c.187-.002.371-.033.547-.092l10.367-3.45a1.785 1.785 0 0 0 1.04-.902c.215-.43.25-.92.099-1.375"/>
        <g transform="translate(0 33.957)">
            <mask id="b" fill="#fff">
                <use xlink:href="#a"/>
            </mask>
            <path fill="#4CF1FD" d="M1.74.015a1.744 1.744 0 1 0 0 3.49c.958 0 1.739-.782 1.739-1.745 0-.962-.78-1.745-1.74-1.745" mask="url(#b)"/>
        </g>
        <g transform="translate(1.023 .773)">
            <mask id="d" fill="#fff">
                <use xlink:href="#c"/>
            </mask>
            <path fill="#1E3990" d="M58.552 11.772a4.475 4.475 0 0 0-1.874-3.187 4.584 4.584 0 0 0-2.66-.836 4.913 4.913 0 0 0-2.169.505 4.818 4.818 0 0 0-1.968 1.619 4.732 4.732 0 0 0-3.225-.2 5.272 5.272 0 0 0-2.847 2.061c-1.55-.56-3.352-.591-5.119-.08-.8.232-1.565.563-2.281.972a4.458 4.458 0 0 0-1.793-2.915 4.8 4.8 0 0 0 .136-1.096c0-1.504-.692-2.857-1.905-3.719a4.529 4.529 0 0 0-.48-.296c-.007-1.497-.698-2.842-1.902-3.697-1.144-.81-2.647-1.043-4.031-.642-2.182.629-3.766 2.698-3.766 4.921v1.087c-.01.005-.017.013-.026.019a7.947 7.947 0 0 0-2.96-.554c-.849 0-1.705.123-2.546.366-3.37.971-6.103 3.674-7.212 6.833v-2.629c0-1.51-.694-2.87-1.906-3.73a4.601 4.601 0 0 0-2.671-.84 4.88 4.88 0 0 0-1.354.193C1.798 6.56.206 8.64.206 10.873v11.25c0 1.516.695 2.878 1.9 3.732a4.56 4.56 0 0 0 2.66.84c.465 0 .935-.068 1.395-.2l6.837-1.973a5.2 5.2 0 0 0 1.918-1.037 9.03 9.03 0 0 0-.283 2.19v8.429c0 1.485.713 2.875 1.9 3.714.775.55 1.696.84 2.664.84a4.94 4.94 0 0 0 1.37-.196c2.182-.63 3.765-2.7 3.765-4.921v-.814c.066-.017.132-.036.198-.055 1.671-.482 3.185-1.39 4.424-2.568a4.573 4.573 0 0 0 2.39.677c.457 0 .916-.065 1.367-.195a5.267 5.267 0 0 0 2.91-2.162c1.583.547 3.401.585 5.217.06.232-.067.459-.14.68-.22a10.019 10.019 0 0 0 7.061 2.901c5.549 0 10.062-4.53 10.062-10.097v-8.39c0-.3-.03-.603-.089-.906" mask="url(#d)"/>
        </g>
        <path fill="#FFF" d="M16.904 14.75c.503-.958 1.422-1.736 2.415-2.022.287-.084.586-.127.864-.127.504 0 1.157.138 1.507.768l-4.786 1.381zm7.375-2.253a3.215 3.215 0 0 0-.35-.776 3.16 3.16 0 0 0-.88-.944c-.627-.446-1.438-.681-2.345-.681-.513 0-1.037.076-1.557.226-2.846.82-5.16 3.701-5.16 6.42 0 1.314.53 2.414 1.495 3.097.643.456 1.442.696 2.31.696a5.53 5.53 0 0 0 1.526-.226l.049-.014c.753-.217 1.785-.514 3.108-1.738.498-.454.855-1.163.525-1.724a1.013 1.013 0 0 0-.738-.462 1.134 1.134 0 0 0-.153-.01c-.31 0-.628.128-.873.35-.847.767-1.561 1.04-2.09 1.192-.27.078-.536.118-.788.118-.672 0-1.225-.285-1.544-.79l6.468-1.865c.67-.194 1.197-.843 1.197-1.478 0-.506-.069-.971-.2-1.391zM24.393 27.59a2.858 2.858 0 0 1-.79.117c-.43 0-.807-.111-1.118-.332-.455-.322-.706-.852-.706-1.49v-.019c0-1.46 1.25-3.009 2.786-3.452.267-.077.53-.116.778-.116.424 0 .812.115 1.12.334.461.326.715.861.715 1.505 0 1.461-1.25 3.01-2.785 3.453m3.836-7.112c-.643-.455-1.442-.696-2.31-.696-.492 0-1.006.076-1.526.226-2.845.821-5.16 3.71-5.16 6.44v8.429c0 .328.137.607.386.783.168.119.376.182.6.182.124 0 .253-.02.383-.056.649-.188 1.177-.848 1.177-1.472v-4.272c.391.118.814.178 1.259.178.499 0 1.013-.076 1.527-.224 2.845-.82 5.16-3.702 5.16-6.422 0-1.313-.532-2.412-1.496-3.096M40.701 23.42c-.286.083-.57.126-.84.126-.449 0-.85-.116-1.159-.336-.434-.307-.673-.812-.673-1.42 0-1.467 1.302-3.081 2.844-3.527.252-.072.5-.11.736-.11.401 0 .768.11 1.06.317.476.337.739.904.739 1.596 0 1.467-1.164 2.91-2.707 3.355m15.327-10.335v-.01a.928.928 0 0 0-.386-.783 1.032 1.032 0 0 0-.601-.183 1.37 1.37 0 0 0-.664.175c-.29.115-.525.336-.661.616-.145.23-.234.486-.234.738v4.666c0 .952-.817 1.962-1.82 2.251a1.757 1.757 0 0 1-.491.073c-.273 0-.52-.072-.712-.209-.287-.203-.445-.538-.445-.944v-4.665c0-.33-.138-.61-.388-.788a1.026 1.026 0 0 0-.597-.18c-.12 0-.242.018-.363.053-.65.187-1.178.847-1.178 1.472v4.704c.01 1.058.447 1.942 1.23 2.491.525.369 1.175.564 1.88.564.4 0 .815-.062 1.236-.184a5.705 5.705 0 0 0 1.648-.79v.576a4.003 4.003 0 0 1-1.718 2.463c-.067.026-.132.058-.201.077a.588.588 0 0 0-.144.124 3.94 3.94 0 0 1-1.817.444 3.988 3.988 0 0 1-3.683-2.479c.007-.053.016-.107.016-.162V19.51c0-1.38-.532-2.516-1.495-3.199-.611-.432-1.377-.66-2.215-.66-.49 0-1.002.076-1.524.227-2.915.84-5.199 3.682-5.199 6.47 0 1.296.51 2.37 1.434 3.025.628.445 1.423.68 2.298.68.525 0 1.076-.082 1.64-.244 1.077-.311 1.94-.793 2.7-1.509.011.015.028.025.04.04.978 2.352 3.293 4.01 5.988 4.01 3.577 0 6.486-2.92 6.486-6.508v-8.39a1.24 1.24 0 0 0-.06-.365M13.034 21.845l-6.839 1.973c-.14.04-.277.06-.406.06-.226 0-.425-.06-.593-.178-.252-.18-.391-.465-.391-.804v-11.25c0-.646.526-1.303 1.197-1.497.122-.035.246-.053.367-.053.229 0 .44.063.609.184.254.18.393.463.393.797v9.927l5.492-1.583c.122-.036.246-.054.367-.054.228 0 .439.063.609.184.253.18.393.462.393.797 0 .635-.537 1.306-1.198 1.497M29.812 11.228v5.867c0 .634-.536 1.306-1.196 1.496a1.266 1.266 0 0 1-.354.051c-.224 0-.43-.062-.598-.181a.966.966 0 0 1-.398-.803v-5.696l-1.035.3a1.248 1.248 0 0 1-.354.05 1.03 1.03 0 0 1-.599-.181.926.926 0 0 1-.15-.139 1.16 1.16 0 0 1-.23-.515c-.008-.05-.017-.098-.017-.15 0-.624.528-1.284 1.177-1.471l1.208-.35V5.956c0-.625.529-1.285 1.178-1.472.13-.037.258-.056.383-.056.225 0 .432.063.6.182.248.176.385.455.385.783v3.38l1.018-.293c.13-.037.259-.056.382-.056.225 0 .432.063.6.182a.93.93 0 0 1 .386.783c0 .635-.536 1.306-1.197 1.497l-1.189.343zM33.925 26.418c0 .646-.518 1.301-1.178 1.491a1.36 1.36 0 0 1-.38.056c-.224 0-.43-.062-.597-.18-.252-.18-.391-.464-.391-.803V14.734c0-.635.525-1.284 1.196-1.478.122-.035.244-.053.363-.053.225 0 .432.063.598.18.251.178.39.458.39.788v12.247z"/>
    </g>
</svg>
