<?xml version="1.0" encoding="UTF-8"?>
<svg width="80px" height="65px" viewBox="0 0 80 65" version="1.1" xmlns="http://www.w3.org/2000/svg" xmlns:xlink="http://www.w3.org/1999/xlink">
    <!-- Generator: Sketch 46 (44423) - http://www.bohemiancoding.com/sketch -->
    <title>ic_logo_kr</title>
    <desc>Created with Sketch.</desc>
    <defs>
        <polygon id="path-1" points="0.294140808 0.813647059 22.911637 0.813647059 22.911637 11.7838911 0.294140808 11.7838911 0.294140808 0.813647059"></polygon>
        <polygon id="path-3" points="5.60675294 5.76470588 0.000164705882 5.76470588 0.000164705882 0.157705882 5.60675294 0.157705882 5.60675294 5.76470588"></polygon>
        <polygon id="path-5" points="0 58.4806353 69.8756471 58.4806353 69.8756471 0.823694118 0 0.823694118"></polygon>
    </defs>
    <g id="Symbols" stroke="none" stroke-width="1" fill="none" fill-rule="evenodd">
        <g id="ic_logo_kr">
            <g id="Page-1" transform="translate(5.000000, 3.000000)">
                <g id="Group-3" transform="translate(42.823529, 0.010047)">
                    <mask id="mask-2" fill="white">
                        <use xlink:href="#path-1"></use>
                    </mask>
                    <g id="Clip-2"></g>
                    <path d="M22.7836824,2.85748235 C22.3126235,1.33065882 20.6902706,0.472541176 19.1659176,0.941952941 L2.33956471,6.12195294 C1.59921176,6.34842353 0.993917647,6.85077647 0.632388235,7.53348235 C0.270035294,8.21783529 0.195917647,9.00018824 0.424035294,9.73807059 C0.792976471,10.9387765 1.87674118,11.7565412 3.12768235,11.7837176 L3.15732941,11.7837176 L3.15897647,11.7837176 C3.45544706,11.7870118 3.75274118,11.7433647 4.04097647,11.6552471 L20.8689765,6.47689412 C22.3933294,6.00583529 23.2522706,4.38348235 22.7836824,2.85748235" id="Fill-1" fill="#F87F78" mask="url(#mask-2)"></path>
                </g>
                <path d="M30.5380353,46.8427647 C30.2942706,46.109 29.7803882,45.5135882 29.0910941,45.1668824 C28.4001529,44.8193529 27.6145059,44.7617059 26.8807412,45.0062941 L10.1688588,50.547 C8.65438824,51.0493529 7.83003529,52.6914706 8.33156471,54.2059412 C8.72850588,55.3967647 9.82874118,56.1906471 11.0772118,56.1906471 L11.1085059,56.1906471 C11.4066235,56.1881765 11.7022706,56.1379412 11.9905059,56.0432353 L28.7023882,50.5017059 C29.4353294,50.2579412 30.0307412,49.7432353 30.3774471,49.0531176 C30.7249765,48.3613529 30.7818,47.5765294 30.5380353,46.8427647" id="Fill-4" fill="#4CF1FD"></path>
                <g id="Group-8" transform="translate(0.000000, 52.715929)">
                    <mask id="mask-4" fill="white">
                        <use xlink:href="#path-3"></use>
                    </mask>
                    <g id="Clip-7"></g>
                    <path d="M2.80345882,0.157705882 C1.25769412,0.157705882 0.000164705882,1.41523529 0.000164705882,2.961 C0.000164705882,4.50676471 1.25769412,5.76511765 2.80345882,5.76511765 C4.34922353,5.76511765 5.60675294,4.50676471 5.60675294,2.961 C5.60675294,1.41523529 4.34922353,0.157705882 2.80345882,0.157705882" id="Fill-6" fill="#4CF1FD" mask="url(#mask-4)"></path>
                </g>
                <path d="M66.3366118,34.1906353 C68.4432,33.0426353 69.8753176,30.8092235 69.8753176,28.2455765 C69.8753176,25.9742824 68.7512,23.9615765 67.0292,22.7345176 C66.9707294,21.5288706 66.5902588,20.4064 65.9726118,19.4519294 C66.7953176,18.3434588 67.2820235,16.9731059 67.2820235,15.4899294 C67.2820235,11.8178118 64.2950824,8.83087059 60.6237882,8.83087059 L40.0528471,8.83087059 C38.8603765,8.83087059 37.7420235,9.1504 36.7735529,9.70216471 C35.5292,8.61675294 33.9084941,7.95545882 32.1329647,7.95545882 L32.0621412,7.95545882 C30.6530824,7.95545882 29.3387294,8.36969412 28.2335529,9.08204706 C27.4042588,8.74028235 26.4959059,8.55087059 25.5447294,8.55087059 C23.5460235,8.55087059 21.7383765,9.38345882 20.4495529,10.7192235 C19.6704941,10.3840471 18.8123765,10.1979294 17.9106118,10.1979294 L9.86225882,10.1979294 C6.14155294,10.1979294 3.11590588,13.2244 3.11590588,16.9442824 C3.11590588,18.0914588 3.40414118,19.1744 3.91225882,20.1214588 C3.42637647,21.0265176 3.14967059,22.0608706 3.14967059,23.1578118 L3.14967059,30.2854588 C3.14967059,33.8365176 6.03943529,36.7262824 9.59214118,36.7262824 L10.2995529,36.7262824 L10.6330824,36.7262824 C9.15155294,37.3933412 7.95167059,38.5619294 7.24672941,40.0615765 C6.35731765,41.9507529 6.37872941,44.1084 7.30602353,45.9811059 C8.47214118,48.3388706 10.8224941,49.7956941 13.4446118,49.7956941 C13.9008471,49.7956941 14.3603765,49.7495765 14.8083765,49.6581647 C17.2657882,49.1599294 19.4736706,48.3734588 21.3702588,47.3201647 C22.0019059,46.9709882 22.6006118,46.5954588 23.1655529,46.1944 C23.7362588,46.5971059 24.3423765,46.9751059 24.9814353,47.3275765 C26.8854353,48.3775765 29.0892,49.1615765 31.5301412,49.6589882 C31.9806118,49.7520471 32.4417882,49.7973412 32.9004941,49.7973412 C34.3252,49.7973412 35.6659059,49.3509882 36.7867294,48.5768706 C37.8630824,49.3839294 39.1939059,49.8689882 40.6400235,49.8689882 L60.5719059,49.8689882 C64.2143765,49.8689882 67.1774353,46.9051059 67.1774353,43.2642824 C67.1774353,41.9820471 66.8109647,40.7854588 66.1776706,39.7716941 C66.2814353,39.3138118 66.3366118,38.8369882 66.3366118,38.3469882 L66.3366118,34.1906353 Z" id="Fill-9" fill="#0A1853"></path>
                <path d="M32.1328,34.8348 L32.0628,34.8348 C30.8818588,34.8348 29.9249176,33.8778588 29.9249176,32.6969176 L29.9249176,15.0338588 C29.9249176,13.8529176 30.8818588,12.8959765 32.0628,12.8959765 L32.1328,12.8959765 C33.3129176,12.8959765 34.2706824,13.8529176 34.2706824,15.0338588 L34.2706824,32.6969176 C34.2706824,33.8778588 33.3129176,34.8348 32.1328,34.8348 L32.1328,34.8348 Z M23.4066824,23.8308 L22.3904471,23.8308 C21.3651529,23.8308 20.5333882,22.9990353 20.5333882,21.9737412 L20.5333882,21.9729176 C20.5333882,20.9476235 21.3651529,20.1158588 22.3904471,20.1158588 L23.4066824,20.1158588 L23.4066824,15.6300941 C23.4066824,14.4491529 24.3636235,13.4922118 25.5445647,13.4922118 C26.7246824,13.4922118 27.6824471,14.4491529 27.6824471,15.6300941 L27.6824471,29.9982118 C27.6824471,31.1791529 26.7246824,32.1360941 25.5445647,32.1360941 C24.3636235,32.1360941 23.4066824,31.1791529 23.4066824,29.9982118 L23.4066824,23.8308 Z M26.1053882,36.3410353 C26.5253882,37.1596235 27.1619765,37.9180941 28.0151529,38.6197412 C28.8675059,39.3197412 29.9364471,39.9283294 31.2219765,40.4422118 C31.8643294,40.6983294 32.5643294,40.9182118 33.3236235,41.0985647 C34.5317412,41.3868 35.1716235,42.7044471 34.6033882,43.8079765 L34.5910353,43.8310353 C34.2023294,44.5870353 33.3508,44.9880941 32.5182118,44.8176235 C30.5565647,44.4182118 28.8395059,43.8120941 27.3670353,43.0000941 C25.5445647,41.9953882 24.1429176,40.7568 23.1612706,39.2851529 C22.1804471,40.7568 20.7837412,41.9953882 18.9736235,43.0000941 C17.5118588,43.8104471 15.7964471,44.4157412 13.8257412,44.8159765 C12.9816235,44.9872706 12.1218588,44.5730353 11.7397412,43.8013882 L11.7339765,43.7898588 C11.1888,42.6879765 11.8319765,41.3909176 13.0285647,41.1084471 C13.8026824,40.9256235 14.5166824,40.7032706 15.1705647,40.4422118 C16.4560941,39.9283294 17.5192706,39.3197412 18.3600941,38.6197412 C19.2017412,37.9180941 19.8268,37.1596235 20.2352706,36.3410353 C20.3448,36.1219765 20.4386824,35.8049176 20.5185647,35.4565647 C20.8043294,34.2163294 21.8930353,33.3277412 23.1653882,33.3277412 C24.4319765,33.3277412 25.5190353,34.2080941 25.8080941,35.4409176 C25.8920941,35.7950353 25.9900941,36.1195059 26.1053882,36.3410353 L26.1053882,36.3410353 Z M21.6632706,29.3212706 C21.7785647,30.3053882 21.0744471,31.1964471 20.0928,31.3265647 C19.7872706,31.3669176 19.4850353,31.4031529 19.1836235,31.4352706 C18.3082118,31.5283294 17.4138588,31.6049176 16.5030353,31.6625647 C15.5913882,31.7218588 14.6278588,31.7564471 13.6116235,31.7679765 C12.5953882,31.7803294 11.4918588,31.7852706 10.2993882,31.7852706 L9.59197647,31.7852706 C8.76350588,31.7852706 8.09232941,31.1132706 8.09232941,30.2856235 L8.09232941,23.1571529 C8.09232941,22.3286824 8.76350588,21.6575059 9.59197647,21.6575059 L14.9605647,21.6575059 L14.9605647,18.7488 L9.86209412,18.7488 C8.8648,18.7488 8.05774118,17.9400941 8.05774118,16.9436235 C8.05774118,15.9471529 8.8648,15.1392706 9.86209412,15.1392706 L17.9104471,15.1392706 C18.7397412,15.1392706 19.4117412,15.8104471 19.4117412,16.6389176 L19.4117412,23.5219765 C19.4117412,24.3504471 18.7397412,25.0216235 17.9104471,25.0216235 L12.5426824,25.0216235 L12.5426824,28.1757412 C14.2482118,28.1535059 15.7898588,28.0884471 17.1684471,27.9830353 C17.9755059,27.9212706 18.7990353,27.8339765 19.6382118,27.7203294 C20.6330353,27.5852706 21.5446824,28.2992706 21.6608,29.2965647 L21.6632706,29.3212706 Z" id="Fill-11" fill="#FFFFFF"></path>
                <mask id="mask-6" fill="white">
                    <use xlink:href="#path-5"></use>
                </mask>
                <g id="Clip-14"></g>
                <path d="M47.0268235,21.3419294 L53.6504706,21.3419294 L53.6504706,17.2069882 L47.0268235,17.2069882 L47.0268235,21.3419294 Z M43.1949412,41.5982824 L60.5722353,41.5982824 C61.4912941,41.5982824 62.2365882,42.3435765 62.2365882,43.2626353 L62.2365882,43.2642824 C62.2365882,44.1825176 61.4912941,44.9278118 60.5722353,44.9278118 L40.6395294,44.9278118 C39.8127059,44.9278118 39.1415294,44.2574588 39.1415294,43.4289882 L39.1415294,38.2605176 C39.1415294,37.4328706 39.8127059,36.7616941 40.6395294,36.7616941 L57.8249412,36.7616941 L57.8249412,35.1846353 L40.7712941,35.1846353 C39.8514118,35.1846353 39.1069412,34.4393412 39.1069412,33.5211059 L39.1069412,33.5202824 C39.1069412,32.6012235 39.8514118,31.8559294 40.7712941,31.8559294 L59.8961176,31.8559294 C60.7237647,31.8559294 61.3957647,32.5262824 61.3957647,33.3547529 L61.3957647,38.3469882 C61.3957647,39.1754588 60.7237647,39.8458118 59.8961176,39.8458118 L43.1949412,39.8458118 L43.1949412,41.5982824 Z M42.4356471,17.2069882 L40.0531765,17.2069882 C39.1036471,17.2069882 38.3361176,16.4378118 38.3361176,15.4899294 L38.3361176,15.4891059 C38.3361176,14.5412235 39.1036471,13.7720471 40.0531765,13.7720471 L60.6241176,13.7720471 C61.572,13.7720471 62.3411765,14.5412235 62.3411765,15.4891059 L62.3411765,15.4899294 C62.3411765,16.4378118 61.572,17.2069882 60.6241176,17.2069882 L58.2416471,17.2069882 L58.2416471,21.3419294 L60.3787059,21.3419294 C61.3274118,21.3419294 62.0957647,22.1111059 62.0957647,23.0589882 C62.0957647,24.0076941 61.3274118,24.7760471 60.3787059,24.7760471 L40.2623529,24.7760471 C39.3136471,24.7760471 38.5461176,24.0076941 38.5461176,23.0589882 C38.5461176,22.1111059 39.3136471,21.3419294 40.2623529,21.3419294 L42.4356471,21.3419294 L42.4356471,17.2069882 Z M64.9344706,28.2455765 L64.9344706,28.2455765 C64.9344706,29.2519294 64.1183529,30.0680471 63.1128235,30.0680471 L37.5998824,30.0680471 C36.5927059,30.0680471 35.7774118,29.2519294 35.7774118,28.2455765 C35.7774118,27.2400471 36.5927059,26.4231059 37.5998824,26.4231059 L63.1128235,26.4231059 C64.1183529,26.4231059 64.9344706,27.2400471 64.9344706,28.2455765 L64.9344706,28.2455765 Z" id="Fill-13" fill="#FFFFFF" mask="url(#mask-6)"></path>
            </g>
        </g>
    </g>
</svg>