<?xml version="1.0" encoding="UTF-8"?>
<svg width="24px" height="24px" viewBox="0 0 24 24" version="1.1" xmlns="http://www.w3.org/2000/svg" xmlns:xlink="http://www.w3.org/1999/xlink">
    <!-- Generator: Sketch 46.2 (44496) - http://www.bohemiancoding.com/sketch -->
    <title>ic_location</title>
    <desc>Created with Sketch.</desc>
    <defs></defs>
    <g id="Symbols" stroke="none" stroke-width="1" fill="none" fill-rule="evenodd">
        <g id="ic_location" fill="#092D73">
            <g id="Page-1" transform="translate(4.000000, 2.000000)">
                <path d="M8.1006,2.1988 C6.5886,2.1988 5.0786,2.7738 3.9276,3.9238 C2.8136,5.0388 2.1996,6.5198 2.1996,8.0948 C2.1996,9.6718 2.8136,11.1528 3.9276,12.2668 L8.0996,16.4398 L12.2726,12.2678 C14.5726,9.9678 14.5726,6.2238 12.2726,3.9238 C11.1216,2.7738 9.6116,2.1988 8.1006,2.1988 M8.0996,19.0948 L8.0996,19.0948 C7.8076,19.0948 7.5286,18.9798 7.3216,18.7728 L2.3716,13.8228 C0.8426,12.2938 -0.0004,10.2598 -0.0004,8.0948 C-0.0004,5.9318 0.8426,3.8978 2.3726,2.3678 C5.5316,-0.7892 10.6706,-0.7892 13.8276,2.3688 C16.9856,5.5258 16.9856,10.6658 13.8276,13.8228 L8.8766,18.7728 C8.6706,18.9798 8.3916,19.0948 8.0996,19.0948" id="Fill-1"></path>
                <path d="M8.0996,6.8629 C7.7846,6.8629 7.4686,6.9829 7.2276,7.2229 C6.7466,7.7049 6.7466,8.4869 7.2276,8.9679 C7.7106,9.4499 8.4916,9.4479 8.9726,8.9679 C9.4536,8.4869 9.4536,7.7049 8.9726,7.2229 C8.7316,6.9829 8.4156,6.8629 8.0996,6.8629 M8.1006,11.5279 C7.2206,11.5279 6.3416,11.1929 5.6726,10.5229 C4.3336,9.1849 4.3336,7.0069 5.6726,5.6689 C7.0096,4.3289 9.1886,4.3279 10.5276,5.6689 C11.8666,7.0069 11.8666,9.1849 10.5276,10.5229 C9.8586,11.1929 8.9796,11.5279 8.1006,11.5279" id="Fill-4"></path>
            </g>
        </g>
    </g>
</svg>