<?xml version="1.0" encoding="UTF-8"?>
<svg width="24px" height="24px" viewBox="0 0 24 24" version="1.1" xmlns="http://www.w3.org/2000/svg" xmlns:xlink="http://www.w3.org/1999/xlink">
    <!-- Generator: Sketch 43.2 (39069) - http://www.bohemiancoding.com/sketch -->
    <title>ic_musical</title>
    <desc>Created with Sketch.</desc>
    <defs></defs>
    <g id="Symbols" stroke="none" stroke-width="1" fill="none" fill-rule="evenodd">
        <g id="ic_musical">
            <g id="Page-1" transform="translate(4.000000, 2.000000)">
                <path d="M7.7612,5.7092 C7.4082,5.7242 7.0732,5.5122 6.9442,5.1632 C6.7842,4.7312 7.0072,4.2512 7.4392,4.0932 L12.0002,2.4242 C12.4342,2.2642 12.9112,2.4872 13.0712,2.9192 C13.2302,3.3512 13.0072,3.8312 12.5752,3.9892 L8.0142,5.6582 C7.9302,5.6892 7.8452,5.7052 7.7612,5.7092" id="Fill-1" fill="#4CF1FD"></path>
                <path d="M8.9321,19.4997 C8.5791,19.5147 8.2431,19.3027 8.1151,18.9537 C7.9551,18.5217 8.1771,18.0427 8.6101,17.8837 L13.1711,16.2147 C13.6051,16.0557 14.0821,16.2777 14.2421,16.7097 C14.4001,17.1417 14.1781,17.6217 13.7461,17.7797 L9.1841,19.4497 C9.1011,19.4797 9.0161,19.4967 8.9321,19.4997" id="Fill-3" fill="#4CF1FD"></path>
                <path d="M4.8042,5.0412 C4.8042,5.5932 4.3562,6.0412 3.8042,6.0412 C3.2512,6.0412 2.8042,5.5932 2.8042,5.0412 C2.8042,4.4892 3.2512,4.0412 3.8042,4.0412 C4.3562,4.0412 4.8042,4.4892 4.8042,5.0412" id="Fill-5" fill="#F97F78"></path>
                <path d="M15.1294,6.0842 C14.1504,4.8142 13.6194,3.7572 13.3294,2.9302 C12.9904,1.9652 12.9834,1.3332 13.0044,1.0642 C13.0114,0.9692 13.0204,0.9032 13.0204,0.9032 L11.3984,0.4682 L7.7164,14.1732 C6.9604,13.7742 6.0354,13.5312 5.0244,13.5302 C2.5084,13.5292 0.4694,14.9852 0.4684,16.7842 C0.4674,18.5822 2.5054,20.0402 5.0214,20.0422 C7.4224,20.0422 9.1054,18.6542 9.5424,17.0262 L12.4984,6.0252 C12.4984,6.0252 14.9004,8.7452 14.4604,10.5072 C14.0194,12.2682 12.7364,13.5442 12.7364,13.5442 C12.7364,13.5442 12.4594,13.8802 12.8414,14.0442 C13.0614,14.1382 13.5524,13.7642 13.5524,13.7642 C14.5964,13.1362 17.6534,9.3552 15.1294,6.0842 Z" id="Stroke-7" stroke="#082D73" stroke-width="1.5" stroke-linecap="round" stroke-linejoin="round"></path>
            </g>
        </g>
    </g>
</svg>