<svg xmlns="http://www.w3.org/2000/svg" width="24" height="24" viewBox="0 0 24 24">
    <g fill="none" fill-rule="evenodd">
        <path stroke="#4CF1FD" stroke-linecap="round" stroke-width="1.5" d="M12.5 22l3.5-2M20.5 1.5l-3.5 2M5.5 11.5L2 9.5"/>
        <path stroke="#1E3990" stroke-linecap="round" stroke-linejoin="round" d="M21 20.5h-3l.608-3.039A2.44 2.44 0 0 1 21 15.5v5zM4 3.5h3.4v2.3a1.7 1.7 0 0 1-3.4 0V3.5z"/>
        <path stroke="#1E3990" stroke-linecap="round" stroke-linejoin="round" d="M7.4 3.5h3.4v2.3a1.7 1.7 0 1 1-3.4 0V3.5z"/>
        <path stroke="#1E3990" stroke-linecap="round" stroke-linejoin="round" d="M10.8 3.5h3.4v2.3a1.7 1.7 0 1 1-3.4 0V3.5z"/>
        <path stroke="#1E3990" stroke-linecap="round" stroke-linejoin="round" d="M14.2 3.5h3.4v2.3a1.7 1.7 0 0 1-3.4 0V3.5z"/>
        <path stroke="#1E3990" stroke-linecap="round" stroke-linejoin="round" d="M17.6 3.5H21v2.3a1.7 1.7 0 1 1-3.4 0V3.5z"/>
        <path stroke="#1E3990" stroke-linecap="round" stroke-linejoin="round" d="M21 5.5v10c-2.667-.267-4-3.067-4-8.4M4 20.5h3l-.608-3.039A2.44 2.44 0 0 0 4 15.5v5zM4 5.5v10c2.667-.267 4-3.067 4-8.4"/>
        <path fill="#1E3990" d="M15.948 14.327c-.151-1.44-1.199-2.642-3.143-3.603l-.946 5.95a2.46 2.46 0 0 0-1.166-.152c-1.062.111-1.858.817-1.779 1.576.08.76 1.005 1.285 2.067 1.174 1.014-.107 1.663-.767 1.775-1.474l.76-4.777c2.432 1.306.498 3.695.498 3.695s2.162-.227 1.934-2.389z"/>
        <circle cx="10.5" cy="10.5" r="1" fill="#F87F78"/>
    </g>
</svg>
