<?xml version="1.0" encoding="UTF-8"?>
<svg width="24px" height="24px" viewBox="0 0 24 24" version="1.1" xmlns="http://www.w3.org/2000/svg" xmlns:xlink="http://www.w3.org/1999/xlink">
    <!-- Generator: Sketch 43.2 (39069) - http://www.bohemiancoding.com/sketch -->
    <title>ic_play</title>
    <desc>Created with Sketch.</desc>
    <defs>
        <polygon id="path-1" points="6.709 0.983260103 6.709 4.32044667 0.479345508 4.32044667 0.479345508 0.983260103 6.709 0.983260103"></polygon>
        <polygon id="path-3" points="6.709 0.529758827 6.709 3.86734667 0.479345508 3.86734667 0.479345508 0.529758827"></polygon>
        <path d="M1.101,2.489 C2.188,2.342 3.083,2.557 3.572,2.651 C4.061,2.743 4.354,2.803 4.603,2.168 C4.852,1.534 3.997,0.643 2.607,0.643 C0.614,0.643 -0.096,2.651 1.101,2.489 Z" id="path-5"></path>
    </defs>
    <g id="Symbols" stroke="none" stroke-width="1" fill="none" fill-rule="evenodd">
        <g id="ic_play">
            <g id="Page-1" transform="translate(3.000000, 2.000000)">
                <g id="Group-13" transform="translate(0.000000, 0.414900)">
                    <g id="Group-3" transform="translate(11.000000, 1.000000)">
                        <mask id="mask-2" fill="white">
                            <use xlink:href="#path-1"></use>
                        </mask>
                        <g id="Clip-2"></g>
                        <path d="M1.3483,4.3197 C0.9953,4.3347 0.6593,4.1227 0.5313,3.7737 C0.3713,3.3417 0.5933,2.8627 1.0263,2.7037 L5.5873,1.0347 C6.0213,0.8757 6.4983,1.0977 6.6583,1.5297 C6.8163,1.9627 6.5943,2.4417 6.1623,2.5997 L1.6003,4.2697 C1.5173,4.2997 1.4323,4.3167 1.3483,4.3197" id="Fill-1" fill="#4CF1FD" mask="url(#mask-2)"></path>
                    </g>
                    <g id="Group-6" transform="translate(11.000000, 13.000000)">
                        <mask id="mask-4" fill="white">
                            <use xlink:href="#path-3"></use>
                        </mask>
                        <g id="Clip-5"></g>
                        <path d="M1.3483,3.8666 C0.9953,3.8816 0.6593,3.6696 0.5313,3.3206 C0.3713,2.8886 0.5933,2.4096 1.0263,2.2506 L5.5873,0.5816 C6.0213,0.4216 6.4983,0.6446 6.6583,1.0766 C6.8163,1.5086 6.5943,1.9886 6.1623,2.1466 L1.6003,3.8156 C1.5173,3.8466 1.4323,3.8636 1.3483,3.8666" id="Fill-4" fill="#4CF1FD" mask="url(#mask-4)"></path>
                    </g>
                    <path d="M10.5231,17.1288 C10.5231,17.6808 10.0761,18.1288 9.5231,18.1288 C8.9701,18.1288 8.5231,17.6808 8.5231,17.1288 C8.5231,16.5768 8.9701,16.1288 9.5231,16.1288 C10.0761,16.1288 10.5231,16.5768 10.5231,17.1288" id="Fill-7" fill="#F97F78"></path>
                    <path d="M7.8981,0.0531 C11.9731,0.0531 14.5941,1.4821 14.5941,5.5291 C14.5941,9.5761 12.0441,9.1411 11.0401,9.2651 C10.0351,9.3881 9.2371,9.7541 9.3941,11.3441 C9.5511,12.9351 10.4561,14.9871 8.7841,15.0381 C7.1121,15.0901 5.3021,14.6191 3.2111,18.5321 C1.1451,16.1201 0.0251,12.3251 0.6301,8.0191 C1.2361,3.7141 4.2771,0.0531 7.8981,0.0531 Z" id="Stroke-9" stroke="#082D73" stroke-width="1.5" stroke-linecap="round" stroke-linejoin="round"></path>
                    <path d="M4.6071,8.643 C5.9971,8.643 6.8521,9.534 6.6031,10.168 C6.3541,10.803 6.0611,10.744 5.5721,10.651 C5.0831,10.558 4.1881,10.342 3.1011,10.489 C1.9041,10.651 2.6141,8.643 4.6071,8.643" id="Fill-11" fill="#082D73"></path>
                </g>
                <g id="Group-16" transform="translate(2.000000, 8.414900)">
                    <mask id="mask-6" fill="white">
                        <use xlink:href="#path-5"></use>
                    </mask>
                    <g id="Clip-15"></g>
                    <polygon id="Fill-14" fill="#082D73" mask="url(#mask-6)" points="-4 7.225 9.163 7.225 9.163 -3.873 -4 -3.873"></polygon>
                </g>
            </g>
        </g>
    </g>
</svg>