<?xml version="1.0" encoding="UTF-8"?>
<svg width="14px" height="14px" viewBox="0 0 14 14" version="1.1" xmlns="http://www.w3.org/2000/svg" xmlns:xlink="http://www.w3.org/1999/xlink">
    <!-- Generator: Sketch 48 (47235) - http://www.bohemiancoding.com/sketch -->
    <title>ic_plusfriend</title>
    <desc>Created with Sketch.</desc>
    <defs></defs>
    <g id="Symbols" stroke="none" stroke-width="1" fill="none" fill-rule="evenodd">
        <g id="ic_plusfriend" fill="#553233">
            <g id="Page-1" transform="translate(0.500000, 0.300000)">
                <g id="Group-3" transform="translate(0.000000, 0.205233)">
                    <path d="M7.77506667,7.80826667 L6.5674,7.80826667 L6.5674,9.6946 C6.5674,10.0932667 6.24406667,10.4166 5.8454,10.4166 C5.44706667,10.4166 5.12373333,10.0932667 5.12373333,9.6946 L5.12373333,4.03093333 C5.12373333,3.58693333 5.4834,3.22693333 5.92773333,3.22693333 L7.77506667,3.22693333 C9.26273333,3.22693333 10.0167333,4.29426667 10.0167333,5.52293333 C10.0167333,6.7516 9.26273333,7.80826667 7.77506667,7.80826667 Z M4.7924,7.80826667 L3.14673333,7.80826667 C2.7984,7.80826667 2.51606667,7.52593333 2.51606667,7.1776 C2.51606667,6.82926667 2.7984,6.54693333 3.14673333,6.54693333 L4.7924,6.54693333 L4.7924,7.80826667 Z M6.43573333,0.128266667 C2.8814,0.128266667 6.66666667e-05,3.0096 6.66666667e-05,6.56426667 C6.66666667e-05,10.1186 2.8814,12.9999333 6.43573333,12.9999333 C9.9904,12.9999333 12.8720667,10.1186 12.8720667,6.56426667 C12.8720667,3.0096 9.9904,0.128266667 6.43573333,0.128266667 Z" id="Fill-1"></path>
                </g>
                <path d="M7.6022,4.70456667 L6.56753333,4.70456667 L6.56753333,6.75223333 L7.6022,6.75223333 C8.1632,6.75223333 8.5402,6.34256667 8.5402,5.7279 C8.5402,5.1029 8.1632,4.70456667 7.6022,4.70456667" id="Fill-4"></path>
            </g>
        </g>
    </g>
</svg>