<?xml version="1.0" encoding="UTF-8"?>
<svg width="24px" height="24px" viewBox="0 0 24 24" version="1.1" xmlns="http://www.w3.org/2000/svg" xmlns:xlink="http://www.w3.org/1999/xlink">
    <!-- Generator: Sketch 46.2 (44496) - http://www.bohemiancoding.com/sketch -->
    <title>ic_price</title>
    <desc>Created with Sketch.</desc>
    <defs>
        <polygon id="path-1" points="9.23153624 19 18.463 19 18.463 0.536372485 7.24847894e-05 0.536372485 7.24847894e-05 19 9.23153624 19"></polygon>
    </defs>
    <g id="Symbols" stroke="none" stroke-width="1" fill="none" fill-rule="evenodd">
        <g id="ic_price">
            <g id="Page-1" transform="translate(3.000000, 2.000000)">
                <g id="Group-3" transform="translate(0.000000, 0.463700)">
                    <mask id="mask-2" fill="white">
                        <use xlink:href="#path-1"></use>
                    </mask>
                    <g id="Clip-2"></g>
                    <path d="M2.2427,9.709 L8.8787,16.345 L15.8077,9.415 L9.1727,2.779 L2.8197,3.356 L2.2427,9.709 Z M8.8787,19 C8.5967,19 8.3147,18.893 8.1007,18.678 L0.3227,10.899 C0.0917,10.669 -0.0253,10.348 0.0047,10.022 L0.7117,2.244 C0.7597,1.716 1.1797,1.296 1.7077,1.248 L9.4857,0.541 C9.8047,0.511 10.1317,0.628 10.3627,0.859 L18.1407,8.638 C18.5707,9.066 18.5707,9.764 18.1407,10.192 L9.6557,18.678 C9.4417,18.893 9.1597,19 8.8787,19 L8.8787,19 Z" id="Fill-1" fill="#092D73" mask="url(#mask-2)"></path>
                </g>
                <path d="M7.0308,8.0311 C7.5728,7.4891 7.5728,6.6111 7.0308,6.0691 C6.4888,5.5281 5.6108,5.5281 5.0698,6.0691 C4.5278,6.6111 4.5278,7.4891 5.0698,8.0311 C5.6108,8.5731 6.4888,8.5731 7.0308,8.0311" id="Fill-4" fill="#092D73"></path>
            </g>
        </g>
    </g>
</svg>