<?xml version="1.0" encoding="utf-8"?>
<!-- Generator: Adobe Illustrator 22.0.1, SVG Export Plug-In . SVG Version: 6.00 Build 0)  -->
<svg version="1.1" id="Layer_1" xmlns="http://www.w3.org/2000/svg" xmlns:xlink="http://www.w3.org/1999/xlink" x="0px" y="0px"
	 viewBox="0 0 27 27" style="enable-background:new 0 0 27 27;" xml:space="preserve">
<style type="text/css">
	.st0{fill:#FFFFFF;}
</style>
<title>ic_symbil_white</title>
<desc>Created with Sketch.</desc>
<g id="Symbols">
	<g id="ic_symbil_white">
		<g id="Group-6-Copy-2" transform="translate(0.000000, 1.000000)">
			<g id="Page-1-Copy">
				<path id="Combined-Shape" class="st0" d="M10.1,23.9C9,23.2,8.4,22,8.4,20.7v-1l-1.7,0.5C5.3,20.5,4,20.3,3,19.6
					c-1.1-0.7-1.7-1.9-1.7-3.2V4.6c0-2,1.5-3.8,3.5-4.4C6-0.2,7.4,0,8.4,0.7c1.1,0.7,1.7,1.9,1.7,3.2v2.7c1.4-2.1,3.6-3.7,6-4.4
					c2.4-0.7,4.9-0.3,6.7,0.9c1.8,1.3,2.9,3.3,2.9,5.6c0,4.1-3.4,8.3-7.7,9.5c-0.3,0.1-0.5,0.1-0.8,0.2v1.5c0,2-1.4,3.8-3.4,4.4
					c-0.4,0.1-0.8,0.2-1.2,0.2C11.6,24.6,10.8,24.4,10.1,23.9z M18.6,4.9c-0.5,0-1.1,0.1-1.6,0.2c-3,0.9-5.5,3.9-5.5,6.7v1.3
					l-4.3,1.2V4c0-0.3-0.1-0.6-0.4-0.8C6.5,3,6.2,2.9,6,2.9C5.9,2.9,5.7,3,5.6,3C4.9,3.2,4.3,3.9,4.3,4.6v11.8
					c0,0.4,0.1,0.7,0.4,0.8c0.2,0.1,0.4,0.2,0.6,0.2c0.1,0,0.3,0,0.4-0.1l5.6-1.6v5c0,0.3,0.1,0.6,0.4,0.8c0.2,0.1,0.4,0.2,0.6,0.2
					c0.1,0,0.3,0,0.4-0.1c0.7-0.2,1.3-0.9,1.3-1.5v-4.5c0.4,0.1,0.9,0.2,1.3,0.2c0.5,0,1.1-0.1,1.6-0.2c3-0.9,5.5-3.9,5.5-6.7
					c0-1.4-0.6-2.5-1.6-3.2C20.3,5.1,19.5,4.9,18.6,4.9z"/>
				<path id="Path" class="st0" d="M16.9,13.1c-0.3,0.1-0.6,0.1-0.8,0.1c-0.5,0-0.9-0.1-1.2-0.3c-0.5-0.3-0.8-0.9-0.8-1.6v0
					c0-1.5,1.3-3.1,3-3.6c0.3-0.1,0.6-0.1,0.8-0.1c0.5,0,0.9,0.1,1.2,0.3c0.5,0.3,0.8,0.9,0.8,1.6C19.9,11,18.6,12.6,16.9,13.1"/>
			</g>
		</g>
	</g>
</g>
</svg>
