<?xml version="1.0" encoding="utf-8"?>
<!-- Generator: Adobe Illustrator 22.0.1, SVG Export Plug-In . SVG Version: 6.00 Build 0)  -->
<svg version="1.1" id="Layer_1" xmlns="http://www.w3.org/2000/svg" xmlns:xlink="http://www.w3.org/1999/xlink" x="0px" y="0px"
	 viewBox="0 0 40 40" style="enable-background:new 0 0 40 40;" xml:space="preserve">
<style type="text/css">
	.st0{fill:#FFFFFF;}
</style>
<title>ic_share_navi_white</title>
<desc>Created with Sketch.</desc>
<path class="st0" d="M24.5,22.4c-0.9,0-1.8,0.4-2.5,0.9l-3.1-1.6c0.1-0.4,0.2-0.7,0.2-1.1c0-0.4-0.1-0.8-0.2-1.2l3.2-2.4
	c0.7,0.6,1.5,0.9,2.4,0.9c2.1,0,3.7-1.7,3.7-3.7s-1.7-3.7-3.7-3.7s-3.7,1.7-3.7,3.7c0,0.4,0.1,0.8,0.2,1.2l-3.2,2.4
	c-0.7-0.6-1.5-0.9-2.4-0.9c-2.1,0-3.7,1.7-3.7,3.7s1.7,3.7,3.7,3.7c0.9,0,1.8-0.4,2.5-0.9L21,25c-0.1,0.4-0.2,0.7-0.2,1.1
	c0,2.1,1.7,3.7,3.7,3.7s3.7-1.7,3.7-3.7S26.6,22.4,24.5,22.4z M24.5,12.5c1,0,1.7,0.8,1.7,1.7S25.5,16,24.5,16s-1.7-0.8-1.7-1.7
	S23.5,12.5,24.5,12.5z M15.4,22.4c-1,0-1.7-0.8-1.7-1.7c0-1,0.8-1.7,1.7-1.7s1.7,0.8,1.7,1.7C17.1,21.6,16.3,22.4,15.4,22.4z
	 M24.5,27.9c-1,0-1.7-0.8-1.7-1.7s0.8-1.7,1.7-1.7s1.7,0.8,1.7,1.7S25.5,27.9,24.5,27.9z"/>
</svg>
