<?xml version="1.0" encoding="UTF-8"?>
<svg width="40px" height="40px" viewBox="0 0 40 40" version="1.1" xmlns="http://www.w3.org/2000/svg" xmlns:xlink="http://www.w3.org/1999/xlink">
    <!-- Generator: Sketch 49.2 (51160) - http://www.bohemiancoding.com/sketch -->
    <title>ic_special_price_white</title>
    <desc>Created with Sketch.</desc>
    <defs></defs>
    <g id="ic_special_price_white" stroke="none" stroke-width="1" fill="none" fill-rule="evenodd">
        <path d="M23.7516391,37.8099995 C23.4788472,37.8099995 23.2064312,37.7062935 22.9986434,37.49813 L2.5016821,17.0015444 C2.08610668,16.5855933 2.08610668,15.9115044 2.5016821,15.4955532 L6.66532699,11.3322841 C7.08090241,10.9159571 7.75611853,10.9159571 8.17131821,11.3322841 C9.0434254,12.2036398 10.4611162,12.2028883 11.3317204,11.3322841 C12.2034519,10.4609284 12.2034519,9.04286178 11.3317204,8.17150608 C10.916145,7.75555491 10.916145,7.08146603 11.3317204,6.66551486 L15.4953653,2.50224572 C15.9109408,2.08591881 16.5861569,2.08591881 17.0013566,2.50224572 L37.4983179,22.9984556 C37.9138933,23.4144067 37.9138933,24.0888714 37.4983179,24.5048225 L33.334673,28.6680917 C32.9190976,29.0844186 32.2442572,29.0844186 31.8286818,28.6680917 C30.9569503,27.7971117 29.5396353,27.7971117 28.6679038,28.6680917 C27.7969239,29.5394474 27.7969239,30.957514 28.6682796,31.8284939 C29.083855,32.2444451 29.083855,32.9189097 28.6682796,33.3348609 L24.5046347,37.49813 C24.296847,37.7062935 24.0244309,37.8099995 23.7516391,37.8099995 Z" id="Fill-16-Copy-3" stroke="#FFFFFF" stroke-width="2" transform="translate(20.000000, 20.000000) rotate(-45.000000) translate(-20.000000, -20.000000) "></path>
        <path d="M18.6078572,15.9728572 L18.6078572,16.8728572 L14.2428572,16.8728572 L14.2428572,17.3318572 L18.5358572,17.3318572 L18.5358572,18.2138572 L14.2428572,18.2138572 L14.2428572,18.6728572 L18.6978572,18.6728572 L18.6978572,19.5728572 L13.1268572,19.5728572 L13.1268572,15.9728572 L18.6078572,15.9728572 Z M13.0728572,22.4258572 L13.0728572,21.5078572 L18.7068572,21.5078572 L18.7068572,24.2168572 L17.5728572,24.2168572 L17.5728572,22.4258572 L13.0728572,22.4258572 Z M12.0738572,20.0858572 L19.7418572,20.0858572 L19.7418572,20.9948572 L12.0738572,20.9948572 L12.0738572,20.0858572 Z M26.7005943,15.7388572 L26.7005943,18.7898572 L27.8525943,18.7898572 L27.8525943,19.7798572 L26.7005943,19.7798572 L26.7005943,24.1088572 L25.5575943,24.1088572 L25.5575943,15.7388572 L26.7005943,15.7388572 Z M20.8505943,22.3808572 L20.2475943,21.4808572 C22.9565943,19.8698572 23.1095943,19.4108572 23.1095943,18.0788572 L23.1095943,17.4758572 L20.4005943,17.4758572 L20.4005943,16.4948572 L24.2525943,16.4948572 L24.2525943,18.1328572 C24.2525943,19.9508572 23.8385943,20.5538572 20.8505943,22.3808572 Z" id="특가-copy-3" fill="#FFFFFF"></path>
    </g>
</svg>