<?xml version="1.0" encoding="UTF-8"?>
<svg width="24px" height="24px" viewBox="0 0 24 24" version="1.1" xmlns="http://www.w3.org/2000/svg" xmlns:xlink="http://www.w3.org/1999/xlink">
    <!-- Generator: Sketch 46.2 (44496) - http://www.bohemiancoding.com/sketch -->
    <title>ic_time</title>
    <desc>Created with Sketch.</desc>
    <defs>
        <polygon id="path-1" points="0 19 0 0.801 18.199 0.801 18.199 19"></polygon>
    </defs>
    <g id="Symbols" stroke="none" stroke-width="1" fill="none" fill-rule="evenodd">
        <g id="ic_time">
            <g id="Page-1" transform="translate(3.000000, 2.000000)">
                <g id="Group-3" transform="translate(0.000000, 0.199200)">
                    <mask id="mask-2" fill="white">
                        <use xlink:href="#path-1"></use>
                    </mask>
                    <g id="Clip-2"></g>
                    <path d="M9.0996,3 C5.2946,3 2.1996,6.096 2.1996,9.9 C2.1996,13.705 5.2946,16.801 9.0996,16.801 C12.9046,16.801 15.9996,13.705 15.9996,9.9 C15.9996,6.096 12.9046,3 9.0996,3 M9.0996,19 C4.0816,19 -0.0004,14.918 -0.0004,9.9 C-0.0004,4.883 4.0816,0.801 9.0996,0.801 C14.1176,0.801 18.1996,4.883 18.1996,9.9 C18.1996,14.918 14.1176,19 9.0996,19" id="Fill-1" fill="#092D73" mask="url(#mask-2)"></path>
                </g>
                <path d="M7.498,14.4004 C7.333,14.4004 7.165,14.3624 7.007,14.2834 C6.464,14.0114 6.243,13.3514 6.516,12.8074 L8,9.8394 L8,5.2994 C8,4.6924 8.492,4.2004 9.1,4.2004 C9.707,4.2004 10.199,4.6924 10.199,5.2994 L10.199,10.0994 C10.199,10.2704 10.16,10.4384 10.083,10.5914 L8.482,13.7924 C8.29,14.1764 7.901,14.4004 7.498,14.4004" id="Fill-4" fill="#092D73"></path>
            </g>
        </g>
    </g>
</svg>