<?xml version="1.0" encoding="UTF-8"?>
<svg width="14px" height="14px" viewBox="0 0 14 14" version="1.1" xmlns="http://www.w3.org/2000/svg" xmlns:xlink="http://www.w3.org/1999/xlink">
    <!-- Generator: Sketch 45.2 (43514) - http://www.bohemiancoding.com/sketch -->
    <title>ic_textfield_facebook</title>
    <desc>Created with Sketch.</desc>
    <defs>
        <polygon id="path-1" points="5.98219939 0 0 0 0 11.9645488 5.98219939 11.9645488 11.9643988 11.9645488 11.9643988 0"></polygon>
    </defs>
    <g id="Symbols" stroke="none" stroke-width="1" fill="none" fill-rule="evenodd">
        <g id="ic_textfield_facebook">
            <g id="Page-1" transform="translate(1.000000, 1.000000)">
                <mask id="mask-2" fill="white">
                    <use xlink:href="#path-1"></use>
                </mask>
                <g id="Clip-2"></g>
                <path d="M10.352228,0 L1.61216707,0 C0.72182561,0 -3.65853658e-06,0.721829268 -3.65853658e-06,1.61217073 L-3.65853658e-06,10.3522317 C-3.65853658e-06,11.2426829 0.72182561,11.9644024 1.61216707,11.9644024 L5.92269146,11.9644024 L5.93011829,7.68907317 L4.81927683,7.68907317 C4.67491098,7.68907317 4.55772805,7.57229268 4.55728902,7.42796341 L4.55187439,6.04971951 C4.55128902,5.90465854 4.66891098,5.78663415 4.81397195,5.78663415 L5.9228378,5.78663415 L5.9228378,4.45496341 C5.9228378,2.90967073 6.86663049,2.06820732 8.24513049,2.06820732 L9.37642317,2.06820732 C9.52104512,2.06820732 9.63852073,2.18553659 9.63852073,2.33030488 L9.63852073,3.49232927 C9.63852073,3.63709756 9.52119146,3.75442683 9.37656951,3.75442683 L8.68228902,3.75482927 C7.93258171,3.75482927 7.78741098,4.1109878 7.78741098,4.63390244 L7.78741098,5.7867439 L9.43474024,5.7867439 C9.59180122,5.7867439 9.71355732,5.92382927 9.69497195,6.07957317 L9.53161829,7.45781707 C9.51606951,7.5897439 9.40415488,7.68907317 9.27138659,7.68907317 L7.7948378,7.68907317 L7.78741098,11.9645488 L10.352228,11.9645488 C11.2425695,11.9645488 11.9643988,11.2426829 11.9643988,10.3523415 L11.9643988,1.61217073 C11.9643988,0.721829268 11.2425695,0 10.352228,0" id="Fill-1" fill="#475993" mask="url(#mask-2)"></path>
            </g>
        </g>
    </g>
</svg>