<?xml version="1.0" encoding="UTF-8"?>
<svg width="24px" height="24px" viewBox="0 0 24 24" version="1.1" xmlns="http://www.w3.org/2000/svg" xmlns:xlink="http://www.w3.org/1999/xlink">
    <!-- Generator: Sketch 43.2 (39069) - http://www.bohemiancoding.com/sketch -->
    <title>ic_video</title>
    <desc>Created with Sketch.</desc>
    <defs>
        <polygon id="path-1" points="0 4.68647107 0 0.94971405 5.809782 0.94971405 5.809782 4.68647107 3.27293531e-16 4.68647107"></polygon>
    </defs>
    <g id="Symbols" stroke="none" stroke-width="1" fill="none" fill-rule="evenodd">
        <g id="ic_video">
            <g id="Page-1" transform="translate(1.000000, 3.000000)">
                <path d="M2.7375,13.9874 C2.39920833,14.0024 2.07816667,13.7904 1.95454167,13.4414 C1.80216667,13.0094 2.01491667,12.5304 2.42891667,12.3714 L6.80083333,10.7024 C7.21675,10.5424 7.67291667,10.7654 7.82625,11.1974 C7.978625,11.6294 7.765875,12.1094 7.35091667,12.2674 L2.97995833,13.9364 C2.89945833,13.9674 2.818,13.9844 2.7375,13.9874" id="Fill-1" fill="#4CF1FD"></path>
                <g id="Group-5" transform="translate(0.000000, 3.398100)">
                    <mask id="mask-2" fill="white">
                        <use xlink:href="#path-1"></use>
                    </mask>
                    <g id="Clip-4"></g>
                    <path d="M0.255108333,2.395 C0.0069,2.155 -0.0755166667,1.767 0.0759,1.43 C0.262775,1.013 0.739066667,0.833 1.13869167,1.029 L5.34960833,3.098 C5.75115,3.294 5.920775,3.79 5.7339,4.207 C5.54606667,4.624 5.07073333,4.803 4.67110833,4.607 L0.459233333,2.539 C0.382566667,2.501 0.314525,2.452 0.255108333,2.395" id="Fill-3" fill="#4CF1FD" mask="url(#mask-2)"></path>
                </g>
                <path d="M2.86380833,9.3883 C2.86380833,9.9413 2.434475,10.3883 1.905475,10.3883 C1.37551667,10.3883 0.947141667,9.9413 0.947141667,9.3883 C0.947141667,8.8363 1.37551667,8.3883 1.905475,8.3883 C2.434475,8.3883 2.86380833,8.8363 2.86380833,9.3883" id="Fill-6" fill="#F97F78"></path>
                <path d="M5.84834583,1.0001 C5.84834583,1.5521 5.41997083,2.0001 4.8900125,2.0001 C4.3610125,2.0001 3.93167917,1.5521 3.93167917,1.0001 C3.93167917,0.4481 4.3610125,0.0001 4.8900125,0.0001 C5.41997083,0.0001 5.84834583,0.4481 5.84834583,1.0001" id="Fill-8" fill="#F97F78"></path>
                <polygon id="Stroke-10" stroke="#082D73" stroke-width="1.5" stroke-linecap="round" stroke-linejoin="round" points="10.2692667 12.1662 10.2692667 15.9302 20.9722666 15.9302 20.9722666 4.0302 10.2692667 4.0302 10.2692667 7.7942 5.68226667 4.8802 5.68226667 15.0802"></polygon>
            </g>
        </g>
    </g>
</svg>