<?xml version="1.0" encoding="UTF-8"?>
<svg width="46px" height="30px" viewBox="0 0 46 30" version="1.1" xmlns="http://www.w3.org/2000/svg" xmlns:xlink="http://www.w3.org/1999/xlink">
    <!-- Generator: Sketch 45.2 (43514) - http://www.bohemiancoding.com/sketch -->
    <title>logo_footer</title>
    <desc>Created with Sketch.</desc>
    <defs></defs>
    <g id="Symbols" stroke="none" stroke-width="1" fill="none" fill-rule="evenodd">
        <g id="logo_footer">
            <g id="Page-1" transform="translate(4.539162, 2.655561)">
                <path d="M37.2419172,7.4443072 C37.1509354,6.62416586 36.7270054,5.8989196 36.0431739,5.41498729 C35.3133622,4.90301039 34.3591938,4.75398272 33.4731803,5.00931897 C33.3009995,5.05921226 33.1324058,5.12410614 32.9615295,5.20758773 C32.4567268,5.43292279 32.0252965,5.78837172 31.7073491,6.23610693 C31.0812372,5.95990028 30.3579476,5.90739819 29.6486802,6.10925405 C28.9002808,6.32415391 28.2621033,6.80352082 27.8319774,7.4205019 C26.8409597,7.06277027 25.6914575,7.04353038 24.5644561,7.36963031 C24.0531314,7.51637528 23.565612,7.72703584 23.1080938,7.98661139 C22.984828,7.24016864 22.5856817,6.58242506 21.9638091,6.13305935 C22.0172895,5.90544159 22.0505517,5.67260624 22.0505517,5.43618378 C22.0505517,4.47842827 21.6086862,3.61719833 20.8368077,3.07261144 C20.7373472,3.00217385 20.6339735,2.93891046 20.527665,2.88216908 C20.5237518,1.93028336 20.0831907,1.07459712 19.3142471,0.530988528 C18.5837832,0.0160767269 17.6247233,-0.132950944 16.7413186,0.122385306 C15.3478935,0.52218383 14.3369837,1.83897538 14.3369837,3.2526186 L14.3369837,3.94362437 C14.3311139,3.94688537 14.3262224,3.95177687 14.3203526,3.95569007 C13.7408731,3.72415911 13.1023694,3.60350214 12.4309296,3.60350214 C11.8899298,3.60350214 11.3433863,3.68176612 10.8066258,3.83633749 C8.65501844,4.45429687 6.91103597,6.17316964 6.20339911,8.18259746 L6.20339911,6.51068308 C6.20339911,5.54966656 5.76022929,4.68517563 4.98639414,4.13830603 C4.49039614,3.7884008 3.90080745,3.60350214 3.28121757,3.60350214 C2.98642323,3.60350214 2.69195498,3.64589513 2.41705274,3.72644181 C1.0164535,4.12819694 0,5.45151048 0,6.87232791 L0,14.0276127 C0,14.9922163 0.443495915,15.8586639 1.21341787,16.4016203 C1.70648097,16.7511994 2.29378696,16.935772 2.91142024,16.935772 C3.20751898,16.935772 3.50753093,16.8930529 3.80102087,16.8082669 L8.16521633,15.5534343 C8.62175624,15.4223422 9.03655536,15.1921156 9.38939549,14.8940603 C9.27460832,15.3506002 9.20906223,15.8175753 9.20906223,16.2874853 L9.20906223,21.6485683 C9.20906223,22.6063238 9.65157984,23.4678798 10.4241106,24.0131189 C10.9184781,24.3610675 11.505458,24.5449879 12.1214608,24.5449879 C12.4139724,24.5449879 12.7084407,24.5032471 12.9963869,24.4204177 C14.3891597,24.019967 15.3997434,22.7035016 15.3997434,21.2901844 L15.3997434,20.7726638 C15.4418103,20.7615764 15.4838772,20.7498368 15.5259441,20.7377711 C16.592617,20.4309111 17.5595033,19.8533881 18.3499696,19.1046627 C18.8068356,19.3815215 19.3276172,19.5351146 19.875139,19.5351146 C20.1669984,19.5351146 20.4601623,19.4933738 20.7477824,19.4108705 C21.5203132,19.1891225 22.1744696,18.6836676 22.6049216,18.0357071 C23.6151792,18.3836557 24.7757688,18.4071349 25.9353802,18.0738608 C26.0834296,18.0314678 26.228218,17.9848355 26.3694192,17.9346161 C27.5472922,19.095858 29.1517039,19.7793634 30.8761204,19.7793634 C34.4178918,19.7793634 37.2989847,16.8982705 37.2989847,13.3568252 L37.2989847,8.02019969 C37.2989847,7.82975732 37.2797448,7.63703226 37.2419172,7.4443072" id="Fill-1" fill="#9F9F9F"></path>
                <path d="M11.5469053,7.56023573 C11.7301735,7.50740754 11.9209419,7.47936294 12.0986664,7.47936294 C12.4198748,7.47936294 12.8369566,7.56708382 13.0606612,7.96818675 L10.005757,8.84637388 C10.3263132,8.2368931 10.9132931,7.74252559 11.5469053,7.56023573 L11.5469053,7.56023573 Z M11.5772326,12.3737969 C12.0585561,12.2355305 12.7166258,12.0467187 13.5615507,11.267992 C13.8794981,10.9793936 14.1071159,10.5280713 13.8967814,10.1713179 C13.7966688,10.0105507 13.6254663,9.90391598 13.4252409,9.87750188 C13.3936092,9.87326258 13.3606731,9.87097988 13.327737,9.87097988 C13.1297944,9.87097988 12.9266341,9.95250487 12.7704323,10.0940322 C12.2300847,10.5815516 11.7738708,10.7553629 11.4370096,10.8522146 C11.2641766,10.9017818 11.0946047,10.9268915 10.9335113,10.9268915 C10.5046899,10.9268915 10.1515237,10.7455799 9.9480373,10.4250237 L14.0761364,9.238346 C14.5046317,9.11508023 14.8401886,8.70223771 14.8401886,8.29819988 C14.8401886,7.97601315 14.7968173,7.6802405 14.7126835,7.41349075 C14.6526811,7.23446189 14.5975702,7.08836912 14.4896311,6.91944935 C14.345495,6.68367909 14.1583136,6.48117103 13.9284131,6.31909936 C13.5276363,6.03571852 13.0097896,5.88603865 12.4309622,5.88603865 C12.1035579,5.88603865 11.7689793,5.93462754 11.4370096,6.03017482 C9.62095906,6.55193472 8.14340024,8.38396417 8.14340024,10.1142504 C8.14340024,10.9497185 8.48254418,11.6488767 9.09789476,12.0832419 C9.50845458,12.3731447 10.0181488,12.5264117 10.5725187,12.5264117 C10.886879,12.5264117 11.2146095,12.4778228 11.5469053,12.3822755 L11.5772326,12.3737969 Z" id="Fill-3" fill="#FFFFFF"></path>
                <path d="M14.7857625,17.0133185 C14.6122773,17.0628857 14.4427053,17.0879954 14.281612,17.0879954 C14.0067097,17.0879954 13.7667002,17.0172317 13.5681053,16.8766827 C13.2772242,16.6715658 13.1171091,16.3350307 13.1171091,15.9293623 L13.1171091,15.9172966 C13.1171091,14.9882379 13.9150756,14.0034161 14.8956582,13.7210136 C15.0662084,13.6720986 15.2334977,13.647315 15.3923084,13.647315 C15.6629713,13.647315 15.9101551,13.7206875 16.1071194,13.859606 C16.4012616,14.0676578 16.5633332,14.40778 16.5633332,14.8173616 C16.5633332,15.7464203 15.7660189,16.7315682 14.7857625,17.0133185 M17.2344469,12.4899863 C16.8238871,12.2004096 16.3141929,12.0471426 15.7601491,12.0471426 C15.4457887,12.0471426 15.1180583,12.0957315 14.7857625,12.1909527 C12.9697119,12.7130387 11.491827,14.5506118 11.491827,16.287094 L11.491827,21.6481769 C11.491827,21.857207 11.5792218,22.0339532 11.7383586,22.1461316 C11.8459715,22.2221128 11.9783681,22.2622231 12.121526,22.2622231 C12.2007683,22.2622231 12.2829455,22.2501574 12.3661009,22.2263521 C12.7802479,22.1069996 13.1171091,21.6869828 13.1171091,21.2897931 L13.1171091,18.5727284 C13.3672277,18.6480575 13.6369124,18.6862112 13.9209454,18.6862112 C14.239219,18.6862112 14.5672755,18.6379484 14.8956582,18.5433794 C16.7113826,18.0216195 18.1886153,16.1895901 18.1886153,14.4593038 C18.1886153,13.6238358 17.8497975,12.9246775 17.2344469,12.4899863" id="Fill-5" fill="#FFFFFF"></path>
                <path d="M25.1950355,14.3615065 C25.0120935,14.4140085 24.8317602,14.4407487 24.6586011,14.4407487 C24.3722854,14.4407487 24.116623,14.3673763 23.9193326,14.2278055 C23.6421476,14.0321455 23.4895329,13.7112632 23.4895329,13.3238565 C23.4895329,12.3915367 24.3207616,11.364648 25.3046051,11.0812672 C25.4656985,11.034961 25.6238569,11.0114818 25.7748412,11.0114818 C26.0308297,11.0114818 26.2646433,11.0809411 26.4511725,11.2126855 C26.7550976,11.4272592 26.922713,11.7875997 26.922713,12.2278346 C26.922713,13.1608065 26.1798573,14.0784517 25.1950355,14.3615065 M34.9780336,7.78798392 L34.9780336,7.78146192 C34.9780336,7.57275796 34.8906389,7.3960118 34.7315021,7.28350732 C34.6238891,7.20752603 34.4911664,7.16741574 34.3476825,7.16741574 C34.2684402,7.16741574 34.186263,7.17980754 34.1037597,7.20361283 C34.0414746,7.22122223 33.9821244,7.24796243 33.9244047,7.27796362 C33.7388539,7.35166221 33.5895001,7.49253738 33.5021053,7.67026184 C33.4094929,7.81668072 33.3530777,7.97973069 33.3530777,8.13984575 L33.3530777,11.1073552 C33.3530777,11.7129228 32.8316439,12.3556657 32.1915097,12.5395861 C32.084875,12.5705656 31.9795447,12.5862184 31.8778015,12.5862184 C31.7036642,12.5862184 31.5468101,12.5402383 31.4235443,12.4531696 C31.2406023,12.324034 31.1395113,12.1107647 31.1395113,11.8528196 L31.1395113,8.88498411 C31.1395113,8.67530185 31.0514643,8.49725129 30.8916753,8.38409461 C30.7856928,8.30909162 30.6536224,8.26963353 30.5104645,8.26963353 C30.4341571,8.26963353 30.3562192,8.28104703 30.2789335,8.30322182 C29.8641344,8.4222483 29.5269471,8.84226502 29.5269471,9.23945474 L29.5269471,12.2317478 C29.5334691,12.9041658 29.8122845,13.4666882 30.3118696,13.8162674 C30.6471004,14.0504071 31.0622256,14.1743251 31.5119174,14.1743251 C31.7669276,14.1743251 32.032699,14.1351931 32.3014054,14.0579074 C32.6663112,13.9529032 33.0263255,13.7807225 33.3530777,13.5557135 L33.3530777,13.9212715 C33.20405,14.575428 32.802621,15.133385 32.2560775,15.4885078 C32.2133584,15.5051389 32.1719437,15.5247049 32.1279202,15.5374228 C32.1138979,15.541336 32.0812879,15.5697067 32.0362861,15.6160129 C31.6883375,15.7953679 31.2944088,15.8987416 30.8763486,15.8987416 C29.8161977,15.8987416 28.906705,15.2458895 28.5258203,14.3220484 C28.5300596,14.2874818 28.5352772,14.2535674 28.5352772,14.2190008 L28.5352772,11.8733639 C28.5352772,10.995829 28.1964593,10.2731915 27.5811088,9.83915253 C27.1914193,9.56392418 26.7025955,9.41848361 26.1677916,9.41848361 C25.8553879,9.41848361 25.5279836,9.4670725 25.1950355,9.56294588 C23.3343093,10.0977498 21.8769687,11.9056478 21.8769687,13.6783271 C21.8769687,14.5030338 22.2017642,15.1862132 22.7913529,15.6029689 C23.1924558,15.8860237 23.7001934,16.0357035 24.2588026,16.0357035 C24.5937072,16.0357035 24.9455691,15.9832014 25.3049312,15.8798278 C25.9930021,15.6818851 26.5444371,15.3756773 27.0293477,14.9204418 C27.0358697,14.9295725 27.0469571,14.9360945 27.0541313,14.9452253 C27.6786126,16.441698 29.1561715,17.4966313 30.8763486,17.4966313 C33.1590482,17.4966313 35.0165134,15.6394921 35.0165134,13.3567926 L35.0165134,8.02016708 C35.0165134,7.93896819 35.0005345,7.86168251 34.9780336,7.78798392" id="Fill-7" fill="#FFFFFF"></path>
                <path d="M8.0489617,11.9001694 C7.94037042,11.823862 7.80634335,11.7834256 7.66057668,11.7834256 C7.58329099,11.7834256 7.50437481,11.794513 7.42578472,11.8170139 L3.9208626,12.8246627 L3.9208626,6.51038959 C3.9208626,6.29744633 3.83183731,6.11776526 3.67009174,6.00330419 C3.56150046,5.9266707 3.42714729,5.88623431 3.28138062,5.88623431 C3.20409493,5.88623431 3.12485265,5.89764781 3.04658866,5.9201487 C2.61841945,6.04341448 2.28286261,6.4614746 2.28286261,6.87203442 L2.28286261,14.0276453 C2.28286261,14.2438496 2.37156179,14.4251612 2.53265516,14.53897 C2.63961594,14.6146252 2.76712102,14.6527789 2.91125719,14.6527789 C2.99376047,14.6527789 3.08082916,14.6397349 3.17018054,14.6142991 L7.5356804,13.3594666 C7.95700152,13.2381574 8.30005865,12.8109665 8.30005865,12.4072548 C8.30005865,12.1943115 8.21103337,12.0143043 8.0489617,11.9001694" id="Fill-9" fill="#FFFFFF"></path>
                <path d="M19.7678847,5.43611856 C19.7678847,5.2267624 19.6801638,5.05001624 19.5213532,4.93783786 C19.4140663,4.86185657 19.2816697,4.82207238 19.1385118,4.82207238 C19.0595956,4.82207238 18.9774185,4.83413808 18.894263,4.85794338 L18.244998,5.04447254 L18.244998,2.89416955 C18.244998,2.68513949 18.1576032,2.50839333 17.9984664,2.39621495 C17.8918318,2.32023366 17.7591091,2.28012337 17.6156251,2.28012337 C17.5367089,2.28012337 17.4545318,2.29218907 17.3713763,2.31599436 C16.9569032,2.43502084 16.6197159,2.85503756 16.6197159,3.25255338 L16.6197159,5.51144765 L15.8484896,5.73352171 C15.4340165,5.85222208 15.0971553,6.2722388 15.0971553,6.66942853 C15.0971553,6.70236462 15.1033512,6.73301801 15.1075905,6.76432361 C15.135309,6.90422048 15.1796586,6.99226747 15.2543355,7.09238015 C15.2833584,7.12466404 15.314664,7.15499133 15.3508611,7.18075323 C15.4588001,7.25640841 15.5908706,7.29651871 15.7333763,7.29651871 C15.8080532,7.29651871 15.8837084,7.28543131 15.9587113,7.26358261 L16.6197159,7.07346635 L16.6197159,10.6961106 C16.6197159,10.906445 16.7123283,11.0929742 16.8737478,11.206457 C16.9807085,11.2824382 17.1124529,11.3222224 17.2552847,11.3222224 C17.3299616,11.3222224 17.4059429,11.3114611 17.4809458,11.2896124 C17.902267,11.1686294 18.244998,10.7417645 18.244998,10.3377267 L18.244998,6.60616514 L19.0038326,6.38800428 C19.4251537,6.2666951 19.7678847,5.83983029 19.7678847,5.43611856" id="Fill-11" fill="#FFFFFF"></path>
                <path d="M20.6219731,7.97774148 C20.5153384,7.90241239 20.383594,7.8626282 20.2404361,7.8626282 C20.1641287,7.8626282 20.0858648,7.8740417 20.008253,7.89654259 C19.5800838,8.01980837 19.244853,8.43297699 19.244853,8.83636261 L19.244853,16.6262379 C19.244853,16.8421161 19.3335522,17.0234276 19.4946456,17.1372365 C19.6012802,17.2122395 19.7330246,17.2520237 19.8752042,17.2520237 C19.9544465,17.2520237 20.0359715,17.2402841 20.1184748,17.2164788 C20.5397959,17.0954957 20.8701351,16.6790661 20.8701351,16.2685063 L20.8701351,8.47830488 C20.8701351,8.26829652 20.7820881,8.09057205 20.6219731,7.97774148" id="Fill-13" fill="#FFFFFF"></path>
            </g>
        </g>
    </g>
</svg>