<?xml version="1.0" encoding="UTF-8"?>
<svg width="70px" height="40px" viewBox="0 0 70 40" version="1.1" xmlns="http://www.w3.org/2000/svg" xmlns:xlink="http://www.w3.org/1999/xlink">
    <!-- Generator: Sketch 45.2 (43514) - http://www.bohemiancoding.com/sketch -->
    <title>logo_header_light</title>
    <desc>Created with Sketch.</desc>
    <defs></defs>
    <g id="Symbols" stroke="none" stroke-width="1" fill="none" fill-rule="evenodd">
        <g id="logo_header_light">
            <g id="Page-1" transform="translate(15.000000, 7.000000)">
                <path d="M39.7122759,7.8792069 C39.6222759,7.05782759 39.1991724,6.33162069 38.5181379,5.85024138 C37.7881379,5.33644828 36.8522759,5.18127586 35.9315862,5.44610345 C35.7591724,5.49644828 35.591931,5.56127586 35.421931,5.64437931 C34.8557241,5.89610345 34.3812414,6.31093103 34.0550345,6.83644828 C33.3888276,6.48886207 32.584,6.40955172 31.8205517,6.62817241 C31.0064138,6.86196552 30.321931,7.40541379 29.8895172,8.09782759 C28.8305517,7.67093103 27.5795172,7.6292069 26.3457241,7.98506897 C25.6991724,8.17093103 25.0902069,8.45610345 24.5288276,8.81093103 C24.4843448,7.91403448 24.0543448,7.11334483 23.3284828,6.60196552 C23.2964138,6.57886207 23.2612414,6.56093103 23.2277931,6.5392069 C23.3074483,6.26368966 23.3505517,5.97713793 23.3505517,5.68644828 C23.3505517,4.72989655 22.9095172,3.86989655 22.1395172,3.32575862 C22.0033103,3.22955172 21.8598621,3.14541379 21.7105517,3.07472414 L21.7105517,2.9492069 C21.7105517,1.99437931 21.2708966,1.13437931 20.5022759,0.589896552 C19.7764138,0.0761034483 18.8495172,-0.0818275862 17.9208966,0.180586207 C16.5153793,0.58437931 15.4953793,1.91058621 15.4953793,3.33472414 L15.4953793,4.20334483 C15.4208966,4.24817241 15.351931,4.30093103 15.2812414,4.35127586 C14.6543448,4.08127586 13.956069,3.93817241 13.2167586,3.93817241 C12.6546897,3.93817241 12.0867586,4.01989655 11.5298621,4.18024138 C10.3150345,4.52955172 9.21434483,5.24093103 8.34193103,6.15541379 C7.88951724,6.58024138 7.33503448,7.17127586 6.73503448,7.97265517 C6.73503448,7.97265517 6.49986207,6.95127586 6.20986207,6.17989655 C6.05468966,5.49231034 5.65951724,4.89093103 5.06986207,4.47334483 C4.57572414,4.12437931 3.9877931,3.93955172 3.364,3.93817241 C3.06917241,3.93817241 2.77434483,3.98058621 2.49468966,4.06196552 C1.08158621,4.46748276 0.0557241379,5.80127586 0.0557241379,7.233 L0.0557241379,14.9388621 C0.0557241379,15.9036897 0.498482759,16.7692069 1.2677931,17.3116207 C1.76055172,17.6605862 2.3477931,17.8447241 2.96537931,17.8447241 C3.26262069,17.8447241 3.564,17.8012759 3.86055172,17.7161034 L8.56193103,16.3647241 L8.56262069,16.3643793 C9.15158621,16.195069 9.67158621,15.863 10.0795172,15.4316207 C10.1533103,15.4478276 10.2284828,15.4602414 10.3036552,15.4733448 C10.0929655,16.0926552 9.97296552,16.733 9.97296552,17.3719655 L9.97296552,23.145069 C9.97296552,24.1026552 10.4143448,24.963 11.1843448,25.5057586 C11.6784828,25.855069 12.266069,26.0392069 12.8836552,26.0392069 C13.1771034,26.0392069 13.4722759,25.9971379 13.7636552,25.9136897 C15.1688276,25.5095517 16.1884828,24.183 16.1884828,22.7595517 L16.1884828,22.0261034 C16.2884828,22.0026552 16.3884828,21.9764483 16.4877931,21.9478276 C17.6395172,21.6167931 18.6884828,20.9592069 19.5381379,20.1126552 C20.0312414,20.4598966 20.6174483,20.6440345 21.2336552,20.6440345 C21.5291724,20.6440345 21.8253793,20.6016207 22.1115862,20.5188621 C22.9481379,20.2788621 23.6457241,19.7088621 24.0753793,18.9857586 C25.1571034,19.4043793 26.4274483,19.4443793 27.6977931,19.0788621 C27.8995172,19.020931 28.0957241,18.9561034 28.2853793,18.8840345 C29.5205517,20.1557586 31.2346897,20.9071379 33.0808966,20.9071379 C36.7702069,20.9071379 39.7715862,17.9054138 39.7715862,14.2161034 L39.7715862,8.4692069 C39.7715862,8.27127586 39.751931,8.07610345 39.7122759,7.8792069" id="Fill-1" fill="#092D73"></path>
                <path d="M39.7122759,7.8792069 C39.6222759,7.05782759 39.1991724,6.33162069 38.5181379,5.85024138 C37.7881379,5.33644828 36.8522759,5.18127586 35.9315862,5.44610345 C35.7591724,5.49644828 35.591931,5.56127586 35.421931,5.64437931 C34.8557241,5.89610345 34.3812414,6.31093103 34.0550345,6.83644828 C33.3888276,6.48886207 32.584,6.40955172 31.8205517,6.62817241 C31.0064138,6.86196552 30.321931,7.40541379 29.8895172,8.09782759 C28.8305517,7.67093103 27.5795172,7.6292069 26.3457241,7.98506897 C25.6991724,8.17093103 25.0902069,8.45610345 24.5288276,8.81093103 C24.4843448,7.91403448 24.0543448,7.11334483 23.3284828,6.60196552 C23.2964138,6.57886207 23.2612414,6.56093103 23.2277931,6.5392069 C23.3074483,6.26368966 23.3505517,5.97713793 23.3505517,5.68644828 C23.3505517,4.72989655 22.9095172,3.86989655 22.1395172,3.32575862 C22.0033103,3.22955172 21.8598621,3.14541379 21.7105517,3.07472414 L21.7105517,2.9492069 C21.7105517,1.99437931 21.2708966,1.13437931 20.5022759,0.589896552 C19.7764138,0.0761034483 18.8495172,-0.0818275862 17.9208966,0.180586207 C16.5153793,0.58437931 15.4953793,1.91058621 15.4953793,3.33472414 L15.4953793,4.20334483 C15.4208966,4.24817241 15.351931,4.30093103 15.2812414,4.35127586 C14.6543448,4.08127586 13.956069,3.93817241 13.2167586,3.93817241 C12.6546897,3.93817241 12.0867586,4.01989655 11.5298621,4.18024138 C10.3150345,4.52955172 9.21434483,5.24093103 8.34193103,6.15541379 C7.88951724,6.58024138 7.33503448,7.17127586 6.73503448,7.97265517 C6.73503448,7.97265517 6.49986207,6.95127586 6.20986207,6.17989655 C6.05468966,5.49231034 5.65951724,4.89093103 5.06986207,4.47334483 C4.57572414,4.12437931 3.9877931,3.93955172 3.364,3.93817241 C3.06917241,3.93817241 2.77434483,3.98058621 2.49468966,4.06196552 C1.08158621,4.46748276 0.0557241379,5.80127586 0.0557241379,7.233 L0.0557241379,14.9388621 C0.0557241379,15.9036897 0.498482759,16.7692069 1.2677931,17.3116207 C1.76055172,17.6605862 2.3477931,17.8447241 2.96537931,17.8447241 C3.26262069,17.8447241 3.564,17.8012759 3.86055172,17.7161034 L8.56193103,16.3647241 L8.56262069,16.3643793 C9.15158621,16.195069 9.67158621,15.863 10.0795172,15.4316207 C10.1533103,15.4478276 10.2284828,15.4602414 10.3036552,15.4733448 C10.0929655,16.0926552 9.97296552,16.733 9.97296552,17.3719655 L9.97296552,23.145069 C9.97296552,24.1026552 10.4143448,24.963 11.1843448,25.5057586 C11.6784828,25.855069 12.266069,26.0392069 12.8836552,26.0392069 C13.1771034,26.0392069 13.4722759,25.9971379 13.7636552,25.9136897 C15.1688276,25.5095517 16.1884828,24.183 16.1884828,22.7595517 L16.1884828,22.0261034 C16.2884828,22.0026552 16.3884828,21.9764483 16.4877931,21.9478276 C17.6395172,21.6167931 18.6884828,20.9592069 19.5381379,20.1126552 C20.0312414,20.4598966 20.6174483,20.6440345 21.2336552,20.6440345 C21.5291724,20.6440345 21.8253793,20.6016207 22.1115862,20.5188621 C22.9481379,20.2788621 23.6457241,19.7088621 24.0753793,18.9857586 C25.1571034,19.4043793 26.4274483,19.4443793 27.6977931,19.0788621 C27.8995172,19.020931 28.0957241,18.9561034 28.2853793,18.8840345 C29.5205517,20.1557586 31.2346897,20.9071379 33.0808966,20.9071379 C36.7702069,20.9071379 39.7715862,17.9054138 39.7715862,14.2161034 L39.7715862,8.4692069 C39.7715862,8.27127586 39.751931,8.07610345 39.7122759,7.8792069 Z" id="Stroke-3" stroke="#092D73" stroke-width="0.324"></path>
                <path d="M10.6053103,9.3592069 C10.9504828,8.703 11.5822069,8.17024138 12.2646207,7.97368966 C12.4622069,7.9167931 12.6677241,7.8867931 12.8591034,7.8867931 C13.2049655,7.8867931 13.653931,7.98162069 13.8949655,8.41368966 L10.6053103,9.3592069 Z M15.6742759,7.81575862 C15.6097931,7.62334483 15.5504828,7.46575862 15.433931,7.28403448 C15.2787586,7.02989655 15.0773793,6.81196552 14.8294483,6.63748276 C14.398069,6.33265517 13.8404828,6.17127586 13.2166897,6.17127586 C12.8642759,6.17127586 12.5042759,6.22334483 12.1466897,6.32610345 C10.1908276,6.88817241 8.5997931,8.86127586 8.5997931,10.7243793 C8.5997931,11.6236897 8.96462069,12.3771379 9.62737931,12.8447241 C10.0694483,13.1571379 10.6184138,13.3219655 11.2156552,13.3219655 C11.553931,13.3219655 11.9066897,13.2698966 12.2646207,13.1671379 L12.2973793,13.1578276 C12.8156552,13.0088621 13.5246207,12.8054138 14.4342759,11.9667931 C14.7770345,11.6561034 15.0218621,11.1698966 14.7953103,10.7861034 C14.6877241,10.6126552 14.5032414,10.4981724 14.2877241,10.4698966 C14.2532414,10.465069 14.2184138,10.4626552 14.1828966,10.4626552 C13.9694483,10.4626552 13.7508276,10.5502414 13.5825517,10.7026552 C13.0004828,11.2278276 12.5091034,11.415069 12.1466897,11.5195517 C11.9604828,11.5726552 11.7777241,11.5998966 11.603931,11.5998966 C11.1425517,11.5998966 10.7622069,11.4043793 10.5428966,11.0592069 L14.9887586,9.78093103 C15.4501379,9.64817241 15.8115172,9.20368966 15.8115172,8.76886207 C15.8115172,8.42196552 15.7646207,8.10334483 15.6742759,7.81575862 L15.6742759,7.81575862 Z" id="Fill-5" fill="#FFFFFF"></path>
                <path d="M15.7528276,18.1539655 C15.565931,18.2074138 15.3835172,18.2346552 15.2097241,18.2346552 C14.9138621,18.2346552 14.6552414,18.1581034 14.4414483,18.007069 C14.1283448,17.7863793 13.955931,17.4236207 13.955931,16.9863793 L13.955931,16.9736207 C13.955931,15.9732759 14.8148966,14.9125862 15.8711034,14.6087931 C16.0548966,14.5556897 16.2345517,14.5291379 16.4062759,14.5291379 C16.6973103,14.5291379 16.9635172,14.6084483 17.1755862,14.7577586 C17.4924828,14.9818966 17.6673103,15.3481034 17.6673103,15.7894828 C17.6673103,16.7898276 16.8086897,17.8505172 15.7528276,18.1539655 M18.3893793,13.282931 C17.9476552,12.9712069 17.3983448,12.8060345 16.8021379,12.8060345 C16.4638621,12.8060345 16.1104138,12.8584483 15.7528276,12.9608621 C13.7969655,13.522931 12.2055862,15.5022414 12.2055862,17.3722414 L12.2055862,23.1456897 C12.2055862,23.3705172 12.2997241,23.5612069 12.4711034,23.6815517 C12.5866207,23.7636207 12.7293793,23.8067241 12.8838621,23.8067241 C12.9690345,23.8067241 13.0576552,23.7932759 13.1469655,23.7677586 C13.5928276,23.6394828 13.955931,23.1874138 13.955931,22.7594828 L13.955931,19.8336207 C14.2248966,19.9143103 14.5155862,19.9556897 14.8214483,19.9556897 C15.1642069,19.9556897 15.5173103,19.9036207 15.8711034,19.8018966 C17.8266207,19.2398276 19.4173103,17.2667241 19.4173103,15.4032759 C19.4173103,14.5039655 19.0521379,13.7508621 18.3893793,13.282931" id="Fill-7" fill="#FFFFFF"></path>
                <path d="M26.9624138,15.2983793 C26.7658621,15.354931 26.5713793,15.3838966 26.3848276,15.3838966 C26.0765517,15.3838966 25.8013793,15.3045862 25.5886207,15.1542414 C25.29,14.9438966 25.1258621,14.5980345 25.1258621,14.1811379 C25.1258621,13.177 26.0213793,12.0707931 27.0806897,11.7659655 C27.2541379,11.7159655 27.4244828,11.6907931 27.5868966,11.6907931 C27.8624138,11.6907931 28.1144828,11.7656207 28.3151724,11.9073448 C28.6427586,12.1383793 28.8231034,12.5266552 28.8231034,13.0004483 C28.8231034,14.0056207 28.0231034,14.9932069 26.9624138,15.2983793 M37.497931,8.21941379 L37.497931,8.21251724 C37.497931,7.98768966 37.4034483,7.797 37.2324138,7.67631034 C37.1162069,7.59424138 36.9734483,7.55113793 36.8189655,7.55113793 C36.7334483,7.55113793 36.6451724,7.56389655 36.5562069,7.59010345 C36.4893103,7.60906897 36.4251724,7.63768966 36.3631034,7.67044828 C36.1634483,7.74906897 36.0024138,7.90113793 35.9082759,8.09286207 C35.8086207,8.25044828 35.747931,8.42562069 35.747931,8.59803448 L35.747931,11.7938966 C35.747931,12.4463103 35.1865517,13.1380345 34.4968966,13.3366552 C34.3824138,13.3694138 34.2686207,13.3863103 34.1593103,13.3863103 C33.9717241,13.3863103 33.8024138,13.337 33.6696552,13.2435517 C33.4727586,13.1042414 33.3641379,12.8745862 33.3641379,12.5966552 L33.3641379,9.4007931 C33.3641379,9.17458621 33.2693103,8.9832069 33.0972414,8.86148276 C32.9827586,8.7807931 32.8410345,8.73803448 32.6868966,8.73803448 C32.6044828,8.73803448 32.5206897,8.75010345 32.4372414,8.77424138 C31.9906897,8.90217241 31.6275862,9.35493103 31.6275862,9.78251724 L31.6275862,13.004931 C31.6348276,13.729069 31.9348276,14.3345862 32.4727586,14.7111379 C32.8337931,14.9632069 33.2806897,15.0966552 33.7655172,15.0966552 C34.0396552,15.0966552 34.3258621,15.0545862 34.6148276,14.9714828 C35.0082759,14.8583793 35.3962069,14.6728621 35.747931,14.4304483 L35.747931,14.8242414 C35.5872414,15.5287241 35.1551724,16.1297586 34.5668966,16.5121724 C34.5206897,16.5297586 34.4758621,16.5511379 34.4286207,16.564931 C34.4134483,16.569069 34.3782759,16.5994138 34.33,16.649069 C33.9548276,16.8425172 33.5310345,16.9538966 33.0806897,16.9538966 C31.9393103,16.9538966 30.9596552,16.2507931 30.5493103,15.2556207 C30.5537931,15.219069 30.5596552,15.1821724 30.5596552,15.144931 L30.5596552,12.6187241 C30.5596552,11.6735517 30.1948276,10.8956207 29.532069,10.4280345 C29.112069,10.1318276 28.5858621,9.97493103 28.01,9.97493103 C27.6737931,9.97493103 27.3213793,10.0276897 26.9624138,10.1311379 C24.9586207,10.707 23.3893103,12.6535517 23.3893103,14.5625172 C23.3893103,15.4504483 23.7389655,16.1866552 24.3741379,16.634931 C24.8058621,16.9401034 25.3524138,17.1014828 25.9544828,17.1014828 C26.3148276,17.1014828 26.6937931,17.0445862 27.0806897,16.9332069 C27.8217241,16.7204483 28.4155172,16.3904483 28.937931,15.9001034 C28.9448276,15.9101034 28.9568966,15.917 28.9648276,15.9266552 C29.6368966,17.5383793 31.2282759,18.6745862 33.0806897,18.6745862 C35.5389655,18.6745862 37.5393103,16.6745862 37.5393103,14.2163103 L37.5393103,8.46906897 C37.5393103,8.38148276 37.522069,8.29872414 37.497931,8.21941379" id="Fill-9" fill="#FFFFFF"></path>
                <path d="M7.94503448,14.2191034 L3.244,15.5704828 C3.1477931,15.598069 3.05365517,15.6122069 2.96537931,15.6122069 C2.80986207,15.6122069 2.67262069,15.5708276 2.55744828,15.4894483 C2.38365517,15.3666897 2.28848276,15.1715172 2.28848276,14.9391034 L2.28848276,7.23289655 C2.28848276,6.79082759 2.64986207,6.34048276 3.11089655,6.20806897 C3.19537931,6.18358621 3.28055172,6.17117241 3.364,6.17117241 C3.52089655,6.17117241 3.66537931,6.21462069 3.78227586,6.29703448 C3.95641379,6.42048276 4.05227586,6.61427586 4.05227586,6.84324138 L4.05227586,13.6432414 L7.82675862,12.5584138 C7.91124138,12.533931 7.99606897,12.5218621 8.07986207,12.5218621 C8.23675862,12.5218621 8.38124138,12.5653103 8.49813793,12.6473793 C8.67227586,12.7704828 8.76848276,12.9642759 8.76848276,13.1935862 C8.76848276,13.6284138 8.39882759,14.0884138 7.94503448,14.2191034" id="Fill-11" fill="#FFFFFF"></path>
                <path d="M19.4778966,6.94641379 L19.4778966,10.9653793 C19.4778966,11.4002069 19.108931,11.8598621 18.6551379,11.9902069 C18.5744483,12.0133103 18.4927241,12.0253793 18.4123793,12.0253793 C18.2585862,12.0253793 18.1165172,11.9822759 18.0013448,11.9008966 C17.8275517,11.7784828 17.7278966,11.5777931 17.7278966,11.3508966 L17.7278966,7.44986207 L17.0158276,7.65468966 C16.9351379,7.67813793 16.8537586,7.68986207 16.773069,7.68986207 C16.6199655,7.68986207 16.4775517,7.64675862 16.3613448,7.56503448 C16.3227241,7.5377931 16.2885862,7.50503448 16.2575517,7.47055172 C16.1768621,7.36262069 16.1292759,7.2677931 16.0992759,7.11710345 C16.0944483,7.08296552 16.0878966,7.0502069 16.0878966,7.01468966 C16.0878966,6.58710345 16.451,6.13468966 16.8972069,6.00675862 L17.7278966,5.7677931 L17.7278966,3.33468966 C17.7278966,2.90710345 18.091,2.45503448 18.5372069,2.32675862 C18.6265172,2.30089655 18.7151379,2.28813793 18.8003103,2.28813793 C18.9547931,2.28813793 19.0972069,2.33124138 19.2123793,2.41296552 C19.3837586,2.53365517 19.4778966,2.72434483 19.4778966,2.94917241 L19.4778966,5.26468966 L20.1772069,5.06365517 C20.2665172,5.03848276 20.3551379,5.02537931 20.4403103,5.02537931 C20.5944483,5.02537931 20.7368621,5.06848276 20.8523793,5.14986207 C21.0234138,5.27089655 21.1178966,5.46124138 21.1178966,5.68675862 C21.1178966,6.12124138 20.748931,6.58089655 20.2951379,6.71158621 L19.4778966,6.94641379 Z" id="Fill-13" fill="#FFFFFF"></path>
                <path d="M22.3048621,17.3518621 C22.3048621,17.793931 21.9493448,18.2425517 21.4952069,18.3728966 C21.406931,18.3984138 21.319,18.4115172 21.2338276,18.4115172 C21.0803793,18.4115172 20.9386552,18.3684138 20.8238276,18.2877241 C20.6503793,18.1649655 20.5548621,17.9697931 20.5548621,17.7373793 L20.5548621,9.34841379 C20.5548621,8.91358621 20.9158966,8.46875862 21.376931,8.336 C21.4603793,8.31186207 21.5445172,8.2997931 21.626931,8.2997931 C21.7807241,8.2997931 21.9231379,8.34255172 22.0379655,8.42324138 C22.2100345,8.54496552 22.3048621,8.73668966 22.3048621,8.96289655 L22.3048621,17.3518621 Z" id="Fill-15" fill="#FFFFFF"></path>
            </g>
        </g>
    </g>
</svg>