<?xml version="1.0" encoding="UTF-8"?>
<svg width="70px" height="40px" viewBox="0 0 70 40" version="1.1" xmlns="http://www.w3.org/2000/svg" xmlns:xlink="http://www.w3.org/1999/xlink">
    <!-- Generator: Sketch 46.2 (44496) - http://www.bohemiancoding.com/sketch -->
    <title>logo_header_dark_colored</title>
    <desc>Created with Sketch.</desc>
    <defs>
        <filter x="-8.0%" y="-8.6%" width="115.9%" height="127.6%" filterUnits="objectBoundingBox" id="filter-1">
            <feOffset dx="0" dy="1" in="SourceAlpha" result="shadowOffsetOuter1"></feOffset>
            <feGaussianBlur stdDeviation="1" in="shadowOffsetOuter1" result="shadowBlurOuter1"></feGaussianBlur>
            <feColorMatrix values="0 0 0 0 0   0 0 0 0 0   0 0 0 0 0  0 0 0 0.4 0" type="matrix" in="shadowBlurOuter1" result="shadowMatrixOuter1"></feColorMatrix>
            <feMerge>
                <feMergeNode in="shadowMatrixOuter1"></feMergeNode>
                <feMergeNode in="SourceGraphic"></feMergeNode>
            </feMerge>
        </filter>
        <polygon id="path-2" points="7.5862069e-05 0.245793103 43.6874483 0.245793103 43.6874483 28.8273966 7.5862069e-05 28.8273966"></polygon>
    </defs>
    <g id="Symbols" stroke="none" stroke-width="1" fill="none" fill-rule="evenodd">
        <g id="logo_header_dark_colored">
            <g id="Page-1" filter="url(#filter-1)" transform="translate(13.000000, 5.000000)">
                <path d="M41.4895415,4.04392066 C41.0184827,2.51709713 39.3961298,1.65897948 37.8717768,2.12839124 L21.0454239,7.30839124 C20.305071,7.53486183 19.6997768,8.03721477 19.3382474,8.71992066 C18.9758945,9.4042736 18.9017768,10.1866265 19.1298945,10.9245089 C19.4988357,12.1252148 20.5826004,12.9429795 21.8335415,12.9701559 L21.8631886,12.9701559 L21.8648357,12.9701559 C22.1613063,12.9734501 22.4586004,12.929803 22.7468357,12.8416854 L39.5748357,7.66333242 C41.0991886,7.1922736 41.9581298,5.56992066 41.4895415,4.04392066" id="Fill-1" fill="#F87F78"></path>
                <path d="M20.9064345,14.3098693 C20.2154933,13.9623399 19.4298463,13.9046929 18.6960816,14.1492811 L1.9841992,19.689987 C0.469728613,20.1923399 -0.354624329,21.8344576 0.146905083,23.3489282 C0.54384626,24.5397517 1.64408155,25.333634 2.89255214,25.333634 C3.22196391,25.3311634 3.51761097,25.2809282 3.80584626,25.1862223 L20.5177286,19.6446929 C21.2506698,19.4009282 21.8460816,18.8862223 22.1927874,18.1961046 C22.5403168,17.5043399 22.5971404,16.7195164 22.3533757,15.9857517 C22.109611,15.251987 21.5957286,14.6565752 20.9064345,14.3098693 Z" id="Fill-4" fill="#4CF1FD"></path>
                <g id="Group-3" transform="translate(0.000000, 0.133593)">
                    <mask id="mask-3" fill="white">
                        <use xlink:href="#path-2"></use>
                    </mask>
                    <g id="Clip-2"></g>
                    <path d="M43.6222828,8.85139655 C43.5232828,7.94787931 43.057869,7.14905172 42.308731,6.61953448 C41.505731,6.05436207 40.4762828,5.88367241 39.4635241,6.17498276 C39.273869,6.23036207 39.0899034,6.30167241 38.9029034,6.39308621 C38.2800759,6.66998276 37.7581448,7.1262931 37.3993172,7.70436207 C36.6664897,7.32201724 35.7811793,7.23477586 34.9413862,7.47525862 C34.0458345,7.73243103 33.2929034,8.33022414 32.8172483,9.09187931 C31.6523862,8.6222931 30.2762483,8.57639655 28.9190759,8.96784483 C28.2074897,9.1722931 27.5380069,9.48598276 26.9204897,9.8762931 C26.8711793,8.8897069 26.3985586,8.00894828 25.6001103,7.44643103 C25.5648345,7.42101724 25.5257655,7.4012931 25.4893517,7.37739655 C25.5765931,7.07432759 25.6243862,6.75912069 25.6243862,6.43936207 C25.6243862,5.38715517 25.1392483,4.44115517 24.2922483,3.84260345 C24.1424207,3.73677586 23.9846276,3.64422414 23.8203862,3.56646552 L23.8203862,3.42839655 C23.8203862,2.37808621 23.3367655,1.43208621 22.4912828,0.833155172 C21.6928345,0.267982759 20.6732483,0.0942586207 19.6517655,0.382913793 C18.1056966,0.827086207 16.9836966,2.28591379 16.9836966,3.85246552 L16.9836966,4.80794828 C16.9013862,4.85725862 16.8255241,4.9152931 16.7481448,4.97067241 C16.0585586,4.67367241 15.2904552,4.51625862 14.4772138,4.51625862 C13.8589379,4.51625862 13.2342138,4.60615517 12.6216276,4.78253448 C11.2853172,5.16677586 10.0741793,5.9492931 9.11490345,6.95522414 C8.61724828,7.42253448 8.00693793,8.07267241 7.34731724,8.95418966 C7.34731724,8.95418966 7.08824828,7.83067241 6.76962759,6.98215517 C6.59893793,6.22581034 6.16424828,5.5642931 5.51562759,5.10494828 C4.97207586,4.72108621 4.32535172,4.51777586 3.63917931,4.51625862 C3.31486897,4.51625862 2.99055862,4.56291379 2.68293793,4.65243103 C1.12852414,5.0985 7.5862069e-05,6.56567241 7.5862069e-05,8.14056897 L7.5862069e-05,16.6170172 C7.5862069e-05,17.6783276 0.487110345,18.6303966 1.33335172,19.2270517 C1.87538621,19.6109138 2.52135172,19.8134655 3.20069655,19.8134655 C3.52766207,19.8134655 3.85917931,19.7656724 4.18538621,19.6719828 L9.35690345,18.1854655 L9.35766207,18.1850862 C10.0055241,17.9988448 10.5775241,17.633569 11.0262483,17.1590517 C11.1074207,17.1768793 11.1901103,17.1905345 11.2724207,17.2049483 C11.0410414,17.8861897 10.9090414,18.590569 10.9090414,19.293431 L10.9090414,25.6438448 C10.9090414,26.6971897 11.3945586,27.643569 12.2415586,28.2406034 C12.7851103,28.6248448 13.4314552,28.8273966 14.1108,28.8273966 C14.4335931,28.8273966 14.7582828,28.7811207 15.0788,28.6893276 C16.6244897,28.2447759 17.7461103,26.785569 17.7461103,25.2197759 L17.7461103,24.4129828 C17.8561103,24.3871897 17.9661103,24.3583621 18.0753517,24.3268793 C19.341869,23.9627414 20.495731,23.2393966 21.430731,22.3081897 C21.9731448,22.6901552 22.6175931,22.8927069 23.2958,22.8927069 C23.620869,22.8927069 23.9466966,22.8460517 24.2615241,22.7550172 C25.1813517,22.4910172 25.9486966,21.8640172 26.4216966,21.0686034 C27.6112138,21.5290862 29.0089724,21.5730862 30.4063517,21.1710172 C30.6282483,21.1072931 30.8440759,21.0359828 31.0526966,20.9567069 C32.4113862,22.3556034 34.2969379,23.1821207 36.3277655,23.1821207 C40.3860069,23.1821207 43.6875241,19.8802241 43.6875241,15.8219828 L43.6875241,9.50039655 C43.6875241,9.28267241 43.6659034,9.06798276 43.6222828,8.85139655" id="Fill-1" fill="#FFFFFF" mask="url(#mask-3)"></path>
                </g>
                <path d="M11.7305897,10.5129655 C12.1171069,9.86131034 12.7630724,9.34506897 13.4465897,9.1482069 C13.6582448,9.08751724 13.8786241,9.05527586 14.083831,9.05527586 C14.4217966,9.05527586 14.8682448,9.141 15.128831,9.53624138 L11.7305897,10.5129655 Z M13.4833828,14.8503793 C14.0591759,14.685 14.8470034,14.4585517 15.8578655,13.5273448 C16.2534862,13.1681379 16.5330379,12.6033448 16.2660034,12.150069 C16.1381759,11.9444828 15.9185552,11.8071724 15.6636586,11.7737931 C15.3825897,11.7366207 15.0677621,11.8375172 14.8382793,12.0453793 C14.2074862,12.6147241 13.6756931,12.8172759 13.2827276,12.9303103 C13.083969,12.9872069 12.8890034,13.0164138 12.7031414,13.0164138 C12.246831,13.0164138 11.8705552,12.8404138 11.6342448,12.5183793 L16.4435207,11.1361724 C16.9756931,10.982931 17.3929345,10.4682069 17.3929345,9.96372414 C17.3929345,9.57986207 17.340969,9.22141379 17.2385552,8.89710345 L17.2385552,8.89596552 C17.1706586,8.69341379 17.1031414,8.50868966 16.9684862,8.29817241 C16.7913483,8.00875862 16.5618655,7.76334483 16.2868655,7.56913793 C15.800969,7.22624138 15.1754862,7.04455172 14.4771759,7.04455172 C14.083831,7.04455172 13.6821414,7.10296552 13.2827276,7.21751724 C11.1070034,7.843 9.33676207,10.0395862 9.33676207,12.1147931 C9.33676207,13.1248966 9.74755517,13.9707586 10.4932793,14.4976207 C10.9905552,14.8484828 11.6069345,15.0335862 12.2756586,15.0335862 C12.6534517,15.0335862 13.0475552,14.9755517 13.4465897,14.8606207 L13.4833828,14.8503793 Z" id="Fill-4" fill="#092D73"></path>
                <path d="M19.3108793,17.6861793 C19.3108793,18.7615241 18.3861207,19.9021103 17.2493276,20.2286966 C16.7163966,20.3815586 16.2176034,20.3288345 15.8595345,20.0758345 C15.5318103,19.8444552 15.3516379,19.4640069 15.3516379,18.9891103 C15.3516379,17.9141448 16.2767759,16.7735586 17.4139483,16.4462138 C17.6111897,16.3900759 17.8031207,16.3616276 17.9851897,16.3616276 C18.2928103,16.3616276 18.5735,16.4446966 18.7965345,16.601731 C19.128431,16.8361448 19.3108793,17.2211448 19.3108793,17.6861793 M20.2030172,14.8792828 C19.4250517,14.3300414 18.3527414,14.1991793 17.2497069,14.5162828 C15.0739828,15.1417655 13.3033621,17.3451793 13.3033621,19.4275931 L13.3033621,25.7780069 C13.3033621,26.0461793 13.4163966,26.2733862 13.6216034,26.4182828 C13.7592931,26.5150069 13.9288448,26.5665931 14.1109138,26.5665931 C14.2110517,26.5665931 14.3138448,26.5514207 14.4173966,26.5218345 C14.9321207,26.3731448 15.3516379,25.8493172 15.3516379,25.3535586 L15.3516379,22.2162828 C15.9752241,22.3854552 16.6993276,22.3653517 17.4139483,22.1590069 C19.5892931,21.5339034 21.3591552,19.3369379 21.3591552,17.2621103 C21.3591552,16.2520069 20.9483621,15.4057655 20.2030172,14.8792828" id="Fill-6" fill="#092D73"></path>
                <path d="M31.5825172,14.6183552 C31.5825172,15.6978724 30.7218621,16.7591828 29.5805172,17.0872862 C29.0259655,17.2473552 28.4812759,17.1915966 28.1216897,16.9374586 C27.8102759,16.7174586 27.6388276,16.3552172 27.6388276,15.9171138 C27.6388276,14.8375966 28.6030345,13.6477 29.7443793,13.3192172 C29.9298621,13.2664931 30.1111724,13.2391828 30.2841379,13.2391828 C30.5743103,13.2391828 30.839069,13.3177 31.0499655,13.4660103 C31.3936207,13.708769 31.5825172,14.1176655 31.5825172,14.6183552 M41.2477241,9.3504931 C41.2473448,9.0827 41.1346897,8.85625172 40.9298621,8.71173448 C40.717069,8.56152759 40.4287931,8.52245862 40.1336897,8.60780345 C40.0638966,8.6279069 39.9925862,8.6574931 39.9155862,8.69845862 C39.683069,8.79025172 39.4941724,8.96587241 39.386069,9.18701034 C39.2643103,9.37932069 39.1998276,9.58338966 39.1998276,9.7757 L39.1998276,13.2911483 C39.1998276,13.9830103 38.6027931,14.7181138 37.868069,14.9290103 C37.5486897,15.0223207 37.2274138,14.9885621 37.0112069,14.8357 C36.810931,14.6945966 36.700931,14.4594241 36.700931,14.1741828 L36.700931,10.6591138 C36.700931,10.3898034 36.5871379,10.1607 36.3807931,10.0154241 C36.1733103,9.86863103 35.8838966,9.82918276 35.6028276,9.91073448 C35.0869655,10.0586655 34.6674483,10.5824931 34.6674483,11.078631 L34.6674483,14.6240448 C34.6754138,15.4403207 35.0152759,16.1245966 35.6236897,16.5505621 C36.260931,16.9962517 37.1352414,17.1039759 38.0323103,16.8456655 C38.4328621,16.7303552 38.8341724,16.5448724 39.2002069,16.3062862 L39.2013448,16.6112517 C39.0302759,17.3619069 38.5781379,18.0078724 37.9397586,18.4239759 L37.8915862,18.4433207 C37.8593448,18.4569759 37.8271034,18.470631 37.7929655,18.4804931 C37.774,18.4858034 37.7466897,18.4987 37.6647586,18.581769 C37.2456207,18.7968379 36.7953793,18.9057 36.3276897,18.9057 C35.1343793,18.9057 34.0677586,18.1941138 33.6057586,17.0910793 L33.6061379,17.0888034 C33.611069,17.051631 33.6156207,17.0144586 33.6156207,16.9772862 L33.6156207,14.1988379 C33.6156207,13.1386655 33.2048276,12.2647345 32.4594828,11.738631 C31.7122414,11.2113897 30.6657241,11.0903897 29.5805172,11.4029414 C27.3513103,12.0435966 25.6049655,14.2109759 25.6049655,16.3370103 C25.6049655,17.3342172 25.999069,18.1614931 26.7144483,18.6667345 C27.4901379,19.2140793 28.5874828,19.3362172 29.7443793,19.0039414 C30.5481379,18.7725621 31.1906897,18.4213207 31.7600345,17.9012862 C32.5444483,19.7375276 34.3328966,20.9213552 36.3276897,20.9213552 C39.0655517,20.9213552 41.2932414,18.6936655 41.2932414,15.9558034 L41.2932414,9.63383793 C41.2932414,9.54394138 41.2784483,9.45366552 41.2477241,9.3504931" id="Fill-8" fill="#092D73"></path>
                <path d="M9.32212069,14.1805172 C9.11046552,14.0306897 8.8165,13.9912414 8.53125862,14.0731724 L4.45784483,15.2441034 L4.45784483,7.84603448 C4.45784483,7.57331034 4.34291379,7.34231034 4.13467241,7.19513793 C3.92263793,7.04493103 3.63132759,7.00510345 3.34343103,7.0877931 C2.81125862,7.24065517 2.39401724,7.76182759 2.39401724,8.27427586 L2.39401724,16.7507241 C2.39401724,17.0272414 2.50856897,17.2597586 2.71605172,17.4061724 C2.85374138,17.5036552 3.01684483,17.5529655 3.20043103,17.5529655 C3.30436207,17.5529655 3.41284483,17.5366552 3.52398276,17.5047931 L8.6955,16.0178966 C9.21932759,15.8673103 9.6452931,15.3351379 9.6452931,14.8310345 C9.6452931,14.5583103 9.53036207,14.3276897 9.32212069,14.1805172" id="Fill-10" fill="#092D73"></path>
                <path d="M23.2299138,6.57318276 C23.2299138,6.30501034 23.1168793,6.07704483 22.9116724,5.9329069 C22.6996379,5.7827 22.4102241,5.74552759 22.1162586,5.82935517 L21.4259138,6.02773448 L21.4259138,3.56221724 C21.4259138,3.29366552 21.3128793,3.06683793 21.1080517,2.92194138 C20.8963966,2.77211379 20.6066034,2.73418276 20.3126379,2.81838966 C19.7971552,2.96632069 19.3780172,3.49052759 19.3780172,3.98666552 L19.3780172,6.61642414 L18.5086379,6.86638966 C17.9931552,7.0147 17.5740172,7.53852759 17.5740172,8.03466552 C17.5740172,8.06652759 17.578569,8.09687241 17.5827414,8.12759655 L17.5876724,8.15907931 C17.6202931,8.32180345 17.6722586,8.4374931 17.7761897,8.57632069 C17.819431,8.62411379 17.8592586,8.66052759 17.9009828,8.69011379 C18.1115,8.83766552 18.3990172,8.87711379 18.6732586,8.7967 L19.3780172,8.59414828 L19.3780172,12.8041138 C19.3780172,13.0738034 19.4971207,13.312769 19.7046034,13.4588034 C19.8411552,13.5559069 20.0099483,13.6074931 20.1920172,13.6074931 C20.2864655,13.6074931 20.3820517,13.5934586 20.4765,13.5661483 C20.9999483,13.4155621 21.4259138,12.883769 21.4259138,12.3800448 L21.4259138,8.00545862 L22.2805,7.75966552 C22.8039483,7.60907931 23.2299138,7.0769069 23.2299138,6.57318276" id="Fill-12" fill="#092D73"></path>
                <path d="M24.2155897,9.53396552 C24.006969,9.38603448 23.7167966,9.34772414 23.4361069,9.42889655 C22.9043138,9.58213793 22.4870724,10.0972414 22.4870724,10.6009655 L22.4870724,19.8292069 C22.4870724,20.1049655 22.6016241,20.3378621 22.8094862,20.4842759 C22.9460379,20.581 23.1144517,20.6322069 23.2953828,20.6322069 C23.3947621,20.6322069 23.4971759,20.6170345 23.6007276,20.587069 C24.1249345,20.4368621 24.5357276,19.9175862 24.5357276,19.4047586 L24.5357276,10.1768966 C24.5357276,9.9072069 24.4219345,9.67886207 24.2155897,9.53396552" id="Fill-14" fill="#092D73"></path>
            </g>
        </g>
    </g>
</svg>