<?xml version="1.0" encoding="UTF-8"?>
<svg width="70px" height="40px" viewBox="0 0 70 40" version="1.1" xmlns="http://www.w3.org/2000/svg" xmlns:xlink="http://www.w3.org/1999/xlink">
    <!-- Generator: Sketch 45.2 (43514) - http://www.bohemiancoding.com/sketch -->
    <title>logo_header_dark</title>
    <desc>Created with Sketch.</desc>
    <defs>
        <filter x="-8.8%" y="-9.4%" width="117.5%" height="131.8%" filterUnits="objectBoundingBox" id="filter-1">
            <feOffset dx="0" dy="1" in="SourceAlpha" result="shadowOffsetOuter1"></feOffset>
            <feGaussianBlur stdDeviation="1" in="shadowOffsetOuter1" result="shadowBlurOuter1"></feGaussianBlur>
            <feColorMatrix values="0 0 0 0 0   0 0 0 0 0   0 0 0 0 0  0 0 0 0.4 0" type="matrix" in="shadowBlurOuter1" result="shadowMatrixOuter1"></feColorMatrix>
            <feMerge>
                <feMergeNode in="shadowMatrixOuter1"></feMergeNode>
                <feMergeNode in="SourceGraphic"></feMergeNode>
            </feMerge>
        </filter>
        <polygon id="path-2" points="6.89655172e-05 0.223448276 39.7158621 0.223448276 39.7158621 26.2067241 6.89655172e-05 26.2067241"></polygon>
    </defs>
    <g id="Symbols" stroke="none" stroke-width="1" fill="none" fill-rule="evenodd">
        <g id="logo_header_dark">
            <g id="Page-1" filter="url(#filter-1)" transform="translate(15.000000, 7.000000)">
                <g id="Group-3" transform="translate(0.000000, 0.121448)">
                    <mask id="mask-3" fill="white">
                        <use xlink:href="#path-2"></use>
                    </mask>
                    <g id="Clip-2"></g>
                    <path d="M39.6566207,8.04672414 C39.5666207,7.22534483 39.1435172,6.49913793 38.4624828,6.01775862 C37.7324828,5.50396552 36.7966207,5.3487931 35.875931,5.61362069 C35.7035172,5.66396552 35.5362759,5.7287931 35.3662759,5.81189655 C34.800069,6.06362069 34.3255862,6.47844828 33.9993793,7.00396552 C33.3331724,6.65637931 32.5283448,6.57706897 31.7648966,6.79568966 C30.9507586,7.02948276 30.2662759,7.57293103 29.8338621,8.26534483 C28.7748966,7.83844828 27.5238621,7.79672414 26.290069,8.15258621 C25.6431724,8.33844828 25.0345517,8.62362069 24.4731724,8.97844828 C24.4283448,8.08155172 23.9986897,7.28086207 23.2728276,6.76948276 C23.2407586,6.74637931 23.2052414,6.72844828 23.1721379,6.70672414 C23.2514483,6.4312069 23.2948966,6.14465517 23.2948966,5.85396552 C23.2948966,4.89741379 22.8538621,4.03741379 22.0838621,3.49327586 C21.9476552,3.39706897 21.8042069,3.31293103 21.6548966,3.24224138 L21.6548966,3.11672414 C21.6548966,2.16189655 21.2152414,1.30189655 20.4466207,0.757413793 C19.7207586,0.24362069 18.7938621,0.0856896552 17.8652414,0.348103448 C16.4597241,0.751896552 15.4397241,2.07810345 15.4397241,3.50224138 L15.4397241,4.37086207 C15.3648966,4.41568966 15.295931,4.46844828 15.2255862,4.5187931 C14.5986897,4.2487931 13.9004138,4.10568966 13.1611034,4.10568966 C12.5990345,4.10568966 12.0311034,4.18741379 11.4742069,4.34775862 C10.2593793,4.69706897 9.15834483,5.40844828 8.28627586,6.32293103 C7.83386207,6.74775862 7.27903448,7.3387931 6.67937931,8.14017241 C6.67937931,8.14017241 6.44386207,7.1187931 6.1542069,6.34741379 C5.99903448,5.65982759 5.60386207,5.05844828 5.0142069,4.64086207 C4.52006897,4.29189655 3.93213793,4.10706897 3.30834483,4.10568966 C3.01351724,4.10568966 2.71868966,4.14810345 2.43903448,4.22948276 C1.02593103,4.635 6.89655172e-05,5.9687931 6.89655172e-05,7.40051724 L6.89655172e-05,15.1063793 C6.89655172e-05,16.0712069 0.442827586,16.9367241 1.21213793,17.4791379 C1.70489655,17.8281034 2.29213793,18.0122414 2.90972414,18.0122414 C3.20696552,18.0122414 3.50834483,17.9687931 3.80489655,17.8836207 L8.50627586,16.5322414 L8.50696552,16.5318966 C9.09593103,16.3625862 9.61593103,16.0305172 10.0238621,15.5991379 C10.0976552,15.6153448 10.1728276,15.6277586 10.2476552,15.6408621 C10.0373103,16.2601724 9.91731034,16.9005172 9.91731034,17.5394828 L9.91731034,23.3125862 C9.91731034,24.2701724 10.3586897,25.1305172 11.1286897,25.6732759 C11.6228276,26.0225862 12.2104138,26.2067241 12.828,26.2067241 C13.1214483,26.2067241 13.4166207,26.1646552 13.708,26.0812069 C15.1131724,25.677069 16.1328276,24.3505172 16.1328276,22.927069 L16.1328276,22.1936207 C16.2328276,22.1701724 16.3328276,22.1439655 16.4321379,22.1153448 C17.5835172,21.7843103 18.6324828,21.1267241 19.4824828,20.2801724 C19.9755862,20.6274138 20.5614483,20.8115517 21.178,20.8115517 C21.4735172,20.8115517 21.7697241,20.7691379 22.055931,20.6863793 C22.8921379,20.4463793 23.5897241,19.8763793 24.0197241,19.1532759 C25.1011034,19.5718966 26.3717931,19.6118966 27.6421379,19.2463793 C27.8438621,19.1884483 28.040069,19.1236207 28.2297241,19.0515517 C29.4648966,20.3232759 31.1790345,21.0746552 33.0252414,21.0746552 C36.7145517,21.0746552 39.715931,18.072931 39.715931,14.3836207 L39.715931,8.63672414 C39.715931,8.4387931 39.6962759,8.24362069 39.6566207,8.04672414" id="Fill-1" fill="#FFFFFF" mask="url(#mask-3)"></path>
                </g>
                <path d="M10.6641724,9.55724138 C11.0155517,8.96482759 11.6027931,8.49551724 12.2241724,8.31655172 C12.4165862,8.26137931 12.616931,8.23206897 12.8034828,8.23206897 C13.1107241,8.23206897 13.5165862,8.31 13.7534828,8.66931034 L10.6641724,9.55724138 Z M12.2576207,13.5003448 C12.781069,13.35 13.4972759,13.1441379 14.4162414,12.2975862 C14.7758966,11.9710345 15.0300345,11.4575862 14.7872759,11.0455172 C14.671069,10.8586207 14.4714138,10.7337931 14.2396897,10.7034483 C13.9841724,10.6696552 13.6979655,10.7613793 13.4893448,10.9503448 C12.9158966,11.467931 12.4324483,11.652069 12.0752069,11.7548276 C11.8945172,11.8065517 11.7172759,11.8331034 11.5483103,11.8331034 C11.1334828,11.8331034 10.7914138,11.6731034 10.5765862,11.3803448 L14.9486552,10.1237931 C15.4324483,9.98448276 15.8117586,9.51655172 15.8117586,9.05793103 C15.8117586,8.70896552 15.7645172,8.38310345 15.6714138,8.08827586 L15.6714138,8.08724138 C15.6096897,7.90310345 15.5483103,7.73517241 15.4258966,7.5437931 C15.2648621,7.28068966 15.0562414,7.05758621 14.8062414,6.88103448 C14.3645172,6.56931034 13.7958966,6.40413793 13.161069,6.40413793 C12.8034828,6.40413793 12.4383103,6.45724138 12.0752069,6.56137931 C10.0972759,7.13 8.48796552,9.12689655 8.48796552,11.0134483 C8.48796552,11.9317241 8.86141379,12.7006897 9.53934483,13.1796552 C9.99141379,13.4986207 10.5517586,13.6668966 11.1596897,13.6668966 C11.5031379,13.6668966 11.8614138,13.6141379 12.2241724,13.5096552 L12.2576207,13.5003448 Z" id="Fill-4" fill="#092D73"></path>
                <path d="M17.5553448,16.0783448 C17.5553448,17.055931 16.7146552,18.0928276 15.6812069,18.3897241 C15.1967241,18.5286897 14.7432759,18.4807586 14.4177586,18.2507586 C14.1198276,18.0404138 13.9560345,17.6945517 13.9560345,17.2628276 C13.9560345,16.2855862 14.797069,15.2486897 15.8308621,14.9511034 C16.0101724,14.900069 16.1846552,14.8742069 16.3501724,14.8742069 C16.6298276,14.8742069 16.885,14.9497241 17.0877586,15.0924828 C17.3894828,15.3055862 17.5553448,15.6555862 17.5553448,16.0783448 M18.3663793,13.5266207 C17.6591379,13.0273103 16.6843103,12.9083448 15.6815517,13.1966207 C13.7036207,13.7652414 12.0939655,15.7683448 12.0939655,17.6614483 L12.0939655,23.4345517 C12.0939655,23.6783448 12.1967241,23.8848966 12.3832759,24.0166207 C12.5084483,24.1045517 12.6625862,24.1514483 12.8281034,24.1514483 C12.9191379,24.1514483 13.0125862,24.1376552 13.1067241,24.1107586 C13.5746552,23.9755862 13.9560345,23.4993793 13.9560345,23.0486897 L13.9560345,20.1966207 C14.522931,20.3504138 15.1812069,20.3321379 15.8308621,20.1445517 C17.8084483,19.5762759 19.4174138,17.5790345 19.4174138,15.6928276 C19.4174138,14.7745517 19.0439655,14.0052414 18.3663793,13.5266207" id="Fill-6" fill="#092D73"></path>
                <path d="M28.7113793,13.2894138 C28.7113793,14.2707931 27.9289655,15.2356207 26.8913793,15.5338966 C26.3872414,15.6794138 25.892069,15.6287241 25.5651724,15.3976897 C25.282069,15.1976897 25.1262069,14.8683793 25.1262069,14.4701034 C25.1262069,13.4887241 26.0027586,12.407 27.0403448,12.1083793 C27.2089655,12.0604483 27.3737931,12.0356207 27.5310345,12.0356207 C27.7948276,12.0356207 28.0355172,12.107 28.2272414,12.2418276 C28.5396552,12.4625172 28.7113793,12.8342414 28.7113793,13.2894138 M37.497931,8.50044828 C37.4975862,8.257 37.3951724,8.05113793 37.2089655,7.91975862 C37.0155172,7.7832069 36.7534483,7.74768966 36.4851724,7.82527586 C36.4217241,7.84355172 36.3568966,7.87044828 36.2868966,7.90768966 C36.0755172,7.99113793 35.9037931,8.1507931 35.8055172,8.35182759 C35.6948276,8.52665517 35.6362069,8.71217241 35.6362069,8.887 L35.6362069,12.0828621 C35.6362069,12.7118276 35.0934483,13.3801034 34.4255172,13.5718276 C34.1351724,13.6566552 33.8431034,13.6259655 33.6465517,13.487 C33.4644828,13.3587241 33.3644828,13.144931 33.3644828,12.8856207 L33.3644828,9.69010345 C33.3644828,9.44527586 33.2610345,9.237 33.0734483,9.10493103 C32.8848276,8.97148276 32.6217241,8.93562069 32.3662069,9.00975862 C31.8972414,9.14424138 31.5158621,9.62044828 31.5158621,10.0714828 L31.5158621,13.2945862 C31.5231034,14.0366552 31.832069,14.6587241 32.3851724,15.0459655 C32.9644828,15.4511379 33.7593103,15.549069 34.5748276,15.3142414 C34.9389655,15.2094138 35.3037931,15.0407931 35.6365517,14.8238966 L35.6375862,15.1011379 C35.482069,15.7835517 35.0710345,16.3707931 34.4906897,16.749069 L34.4468966,16.7666552 C34.4175862,16.779069 34.3882759,16.7914828 34.3572414,16.8004483 C34.34,16.8052759 34.3151724,16.817 34.2406897,16.8925172 C33.8596552,17.0880345 33.4503448,17.187 33.0251724,17.187 C31.9403448,17.187 30.9706897,16.5401034 30.5506897,15.5373448 L30.5510345,15.5352759 C30.5555172,15.5014828 30.5596552,15.4676897 30.5596552,15.4338966 L30.5596552,12.9080345 C30.5596552,11.9442414 30.1862069,11.1497586 29.5086207,10.6714828 C28.8293103,10.1921724 27.877931,10.0821724 26.8913793,10.3663103 C24.8648276,10.9487241 23.2772414,12.919069 23.2772414,14.8518276 C23.2772414,15.7583793 23.6355172,16.5104483 24.2858621,16.9697586 C24.9910345,17.4673448 25.9886207,17.5783793 27.0403448,17.2763103 C27.7710345,17.0659655 28.3551724,16.7466552 28.8727586,16.2738966 C29.5858621,17.9432069 31.2117241,19.0194138 33.0251724,19.0194138 C35.5141379,19.0194138 37.5393103,16.9942414 37.5393103,14.5052759 L37.5393103,8.75803448 C37.5393103,8.67631034 37.5258621,8.59424138 37.497931,8.50044828" id="Fill-8" fill="#092D73"></path>
                <path d="M8.47465517,12.8913793 C8.28224138,12.7551724 8.015,12.7193103 7.75568966,12.7937931 L4.05258621,13.8582759 L4.05258621,7.13275862 C4.05258621,6.88482759 3.94810345,6.67482759 3.7587931,6.54103448 C3.56603448,6.40448276 3.3012069,6.36827586 3.03948276,6.44344828 C2.55568966,6.58241379 2.17637931,7.0562069 2.17637931,7.52206897 L2.17637931,15.227931 C2.17637931,15.4793103 2.28051724,15.6906897 2.46913793,15.8237931 C2.59431034,15.9124138 2.74258621,15.9572414 2.90948276,15.9572414 C3.00396552,15.9572414 3.10258621,15.9424138 3.20362069,15.9134483 L7.905,14.5617241 C8.3812069,14.4248276 8.76844828,13.9410345 8.76844828,13.4827586 C8.76844828,13.2348276 8.66396552,13.0251724 8.47465517,12.8913793" id="Fill-10" fill="#092D73"></path>
                <path d="M21.1181034,5.97562069 C21.1181034,5.73182759 21.0153448,5.52458621 20.8287931,5.39355172 C20.6360345,5.257 20.372931,5.2232069 20.1056897,5.29941379 L19.4781034,5.47975862 L19.4781034,3.23837931 C19.4781034,2.99424138 19.3753448,2.78803448 19.1891379,2.65631034 C18.9967241,2.52010345 18.7332759,2.48562069 18.4660345,2.56217241 C17.9974138,2.69665517 17.6163793,3.1732069 17.6163793,3.62424138 L17.6163793,6.01493103 L16.8260345,6.24217241 C16.3574138,6.377 15.9763793,6.8532069 15.9763793,7.30424138 C15.9763793,7.3332069 15.9805172,7.3607931 15.9843103,7.38872414 L15.9887931,7.41734483 C16.0184483,7.56527586 16.0656897,7.67044828 16.1601724,7.79665517 C16.1994828,7.84010345 16.2356897,7.8732069 16.2736207,7.90010345 C16.465,8.03424138 16.7263793,8.07010345 16.9756897,7.997 L17.6163793,7.81286207 L17.6163793,11.6401034 C17.6163793,11.8852759 17.7246552,12.1025172 17.9132759,12.2352759 C18.0374138,12.3235517 18.1908621,12.3704483 18.3563793,12.3704483 C18.4422414,12.3704483 18.5291379,12.3576897 18.615,12.3328621 C19.0908621,12.1959655 19.4781034,11.7125172 19.4781034,11.2545862 L19.4781034,7.27768966 L20.255,7.05424138 C20.7308621,6.91734483 21.1181034,6.43355172 21.1181034,5.97562069" id="Fill-12" fill="#092D73"></path>
                <path d="M22.0141724,8.66724138 C21.8245172,8.53275862 21.5607241,8.49793103 21.3055517,8.57172414 C20.8221034,8.71103448 20.4427931,9.17931034 20.4427931,9.63724138 L20.4427931,18.0265517 C20.4427931,18.2772414 20.546931,18.4889655 20.7358966,18.622069 C20.8600345,18.71 21.0131379,18.7565517 21.1776207,18.7565517 C21.2679655,18.7565517 21.361069,18.7427586 21.4552069,18.7155172 C21.9317586,18.5789655 22.3052069,18.1068966 22.3052069,17.6406897 L22.3052069,9.25172414 C22.3052069,9.00655172 22.2017586,8.79896552 22.0141724,8.66724138" id="Fill-14" fill="#092D73"></path>
            </g>
        </g>
    </g>
</svg>