<?xml version="1.0" encoding="UTF-8"?>
<svg width="183px" height="102px" viewBox="0 0 183 102" version="1.1" xmlns="http://www.w3.org/2000/svg" xmlns:xlink="http://www.w3.org/1999/xlink">
    <!-- Generator: Sketch 45.2 (43514) - http://www.bohemiancoding.com/sketch -->
    <title>logo_search</title>
    <desc>Created with Sketch.</desc>
    <defs>
        <polygon id="path-1" points="67.8896 19 0.3936 19 0.3936 0.1572 67.8896 0.1572 67.8896 19"></polygon>
    </defs>
    <g id="Symbols" stroke="none" stroke-width="1" fill="none" fill-rule="evenodd">
        <g id="logo_search">
            <g id="Page-1" transform="translate(32.000000, 10.000000)">
                <path d="M92.5479,7.4031 C91.9359,5.5621 89.9439,4.5621 88.1059,5.1731 L67.8139,11.9021 C66.9219,12.1971 66.1989,12.8221 65.7779,13.6621 C65.3569,14.5021 65.2869,15.4551 65.5829,16.3451 C66.0639,17.7911 67.4009,18.7551 68.9189,18.7551 L68.9549,18.7551 L68.9569,18.7551 C69.3219,18.7511 69.6819,18.6891 70.0249,18.5751 L90.3179,11.8461 C92.1559,11.2361 93.1569,9.2431 92.5479,7.4031" id="Fill-1" fill="#F87F78"></path>
                <path d="M37.082,57.2976 C36.786,56.4066 36.162,55.6836 35.325,55.2626 C34.486,54.8396 33.532,54.7716 32.641,55.0676 L12.349,61.7966 C11.458,62.0916 10.734,62.7166 10.313,63.5566 C9.892,64.3956 9.822,65.3486 10.117,66.2386 C10.599,67.6846 11.936,68.6496 13.453,68.6496 L13.489,68.6496 L13.491,68.6496 C13.856,68.6456 14.217,68.5836 14.56,68.4696 L34.853,61.7406 C35.743,61.4446 36.466,60.8196 36.887,59.9816 C37.309,59.1416 37.378,58.1886 37.082,57.2976" id="Fill-3" fill="#4CF1FD"></path>
                <path d="M3.4043,64.6208 C1.5273,64.6208 0.0003,66.1478 0.0003,68.0248 C0.0003,69.9018 1.5273,71.4298 3.4043,71.4298 C5.2813,71.4298 6.8083,69.9018 6.8083,68.0248 C6.8083,66.1478 5.2813,64.6208 3.4043,64.6208" id="Fill-5" fill="#4CF1FD"></path>
                <path d="M116.6094,22.8279 C116.3294,20.3139 115.0304,18.0899 112.9404,16.6109 C111.4234,15.5439 109.6234,14.9789 107.7334,14.9789 C106.8314,14.9789 105.9234,15.1089 105.0624,15.3589 C104.5344,15.5099 104.0164,15.7089 103.4894,15.9659 C101.9374,16.6569 100.6124,17.7479 99.6364,19.1229 C97.7184,18.2759 95.4974,18.1149 93.3234,18.7339 C91.0284,19.3929 89.0724,20.8629 87.7524,22.7539 C84.7164,21.6599 81.1904,21.5999 77.7324,22.5989 C76.1644,23.0489 74.6694,23.6949 73.2654,24.4909 C72.8884,22.2019 71.6644,20.1849 69.7564,18.8069 C69.9214,18.1089 70.0234,17.3949 70.0234,16.6699 C70.0234,13.7359 68.6704,11.0969 66.2944,9.4159 C65.9914,9.2029 65.6774,9.0099 65.3534,8.8379 C65.3414,5.9189 63.9894,3.2949 61.6324,1.6279 C59.3924,0.0489 56.4514,-0.4071 53.7424,0.3749 C49.4704,1.6009 46.3704,5.6389 46.3704,9.9739 L46.3704,12.0929 C46.3524,12.1029 46.3374,12.1179 46.3194,12.1299 C44.5424,11.4199 42.5844,11.0499 40.5244,11.0499 C38.8654,11.0499 37.1894,11.2899 35.5434,11.7639 C28.9454,13.6589 23.5974,18.9299 21.4274,25.0919 L21.4274,19.9649 C21.4274,17.0179 20.0684,14.3669 17.6954,12.6899 C16.1804,11.6209 14.3784,11.0539 12.4674,11.0499 C11.5754,11.0499 10.6794,11.1779 9.8164,11.4269 C5.5214,12.6589 2.4044,16.7169 2.4044,21.0739 L2.4044,43.0169 C2.4044,45.9739 3.7644,48.6309 6.1254,50.2959 C7.6374,51.3679 9.4384,51.9339 11.3324,51.9339 C12.2404,51.9339 13.1604,51.8029 14.0604,51.5429 L27.4434,47.6949 C28.8434,47.2929 30.1154,46.5869 31.1974,45.6729 C30.8454,47.0729 30.6444,48.5049 30.6444,49.9459 L30.6444,66.3859 C30.6444,69.2829 32.0384,71.9939 34.3634,73.6309 C35.8804,74.7019 37.6824,75.2679 39.5764,75.2679 C40.4724,75.2679 41.3754,75.1399 42.2584,74.8859 C46.5294,73.6579 49.6294,69.6209 49.6294,65.2869 L49.6294,63.6999 C49.7574,63.6659 49.8864,63.6299 50.0154,63.5929 C53.2864,62.6519 56.2514,60.8809 58.6744,58.5849 C60.0764,59.4339 61.6724,59.9049 63.3524,59.9049 C64.2474,59.9049 65.1464,59.7769 66.0284,59.5239 C68.3974,58.8439 70.4034,57.2939 71.7234,55.3059 C74.8224,56.3739 78.3824,56.4469 81.9364,55.4239 C82.3904,55.2939 82.8344,55.1509 83.2674,54.9969 C86.8794,58.5579 91.7994,60.6539 97.0884,60.6539 C107.9484,60.6539 116.7834,51.8189 116.7834,40.9589 L116.7834,24.5939 C116.7834,24.0099 116.7244,23.4189 116.6094,22.8279" id="Fill-7" fill="#0A1853"></path>
                <path d="M33.0879,27.1277 C34.0699,25.2587 35.8699,23.7417 37.8139,23.1837 C38.3759,23.0217 38.9609,22.9357 39.5059,22.9357 C40.4909,22.9357 41.7689,23.2037 42.4549,24.4347 L33.0879,27.1277 Z M47.5219,22.7327 C47.3379,22.1847 47.1689,21.7357 46.8379,21.2187 C46.3959,20.4947 45.8209,19.8747 45.1169,19.3777 C43.8879,18.5087 42.2999,18.0497 40.5249,18.0497 C39.5209,18.0497 38.4949,18.1977 37.4769,18.4907 C31.9069,20.0917 27.3769,25.7097 27.3769,31.0157 C27.3769,33.5767 28.4159,35.7217 30.3039,37.0537 C31.5629,37.9417 33.1259,38.4117 34.8249,38.4117 C35.7889,38.4117 36.7949,38.2637 37.8139,37.9707 L37.9059,37.9437 C39.3829,37.5207 41.4009,36.9407 43.9909,34.5537 C44.9669,33.6687 45.6639,32.2837 45.0199,31.1897 C44.7129,30.6967 44.1869,30.3707 43.5739,30.2897 C43.4759,30.2757 43.3759,30.2697 43.2759,30.2697 C42.6679,30.2697 42.0449,30.5197 41.5659,30.9527 C39.9079,32.4477 38.5099,32.9817 37.4769,33.2777 C36.9459,33.4307 36.4269,33.5077 35.9329,33.5077 C34.6179,33.5077 33.5339,32.9507 32.9099,31.9687 L45.5699,28.3287 C46.8839,27.9507 47.9129,26.6857 47.9129,25.4457 C47.9129,24.4587 47.7789,23.5517 47.5219,22.7327 L47.5219,22.7327 Z" id="Fill-9" fill="#FFFFFF"></path>
                <path d="M47.7461,52.1716 C47.2141,52.3236 46.6931,52.4006 46.1991,52.4006 C45.3571,52.4006 44.6211,52.1836 44.0121,51.7526 C43.1201,51.1236 42.6291,50.0916 42.6291,48.8476 L42.6291,48.8106 C42.6291,45.9616 45.0751,42.9416 48.0821,42.0756 C48.6051,41.9256 49.1181,41.8496 49.6051,41.8496 C50.4351,41.8496 51.1931,42.0746 51.7971,42.5006 C52.7001,43.1386 53.1971,44.1816 53.1971,45.4376 C53.1971,48.2866 50.7521,51.3076 47.7461,52.1716 M55.2541,38.3006 C53.9951,37.4126 52.4321,36.9426 50.7331,36.9426 C49.7691,36.9426 48.7651,37.0916 47.7461,37.3836 C42.1761,38.9846 37.6441,44.6196 37.6441,49.9446 L37.6441,66.3846 C37.6441,67.0256 37.9131,67.5676 38.4011,67.9116 C38.7301,68.1446 39.1371,68.2676 39.5761,68.2676 C39.8181,68.2676 40.0701,68.2306 40.3251,68.1576 C41.5961,67.7916 42.6291,66.5036 42.6291,65.2856 L42.6291,56.9536 C43.3951,57.1846 44.2231,57.3016 45.0941,57.3016 C46.0691,57.3016 47.0751,57.1536 48.0821,56.8636 C53.6501,55.2636 58.1811,49.6456 58.1811,44.3396 C58.1811,41.7776 57.1421,39.6336 55.2541,38.3006" id="Fill-11" fill="#FFFFFF"></path>
                <path d="M79.666,44.0398 C79.105,44.2008 78.552,44.2828 78.021,44.2828 C77.144,44.2828 76.359,44.0578 75.754,43.6298 C74.904,43.0298 74.437,42.0458 74.437,40.8578 C74.437,37.9988 76.985,34.8498 80.003,33.9808 C80.496,33.8388 80.981,33.7668 81.444,33.7668 C82.229,33.7668 82.946,33.9798 83.518,34.3838 C84.45,35.0418 84.964,36.1468 84.964,37.4968 C84.964,40.3578 82.687,43.1718 79.666,44.0398 M109.666,23.8818 L109.666,23.8618 C109.666,23.2218 109.397,22.6798 108.91,22.3348 C108.58,22.1018 108.173,21.9788 107.733,21.9788 C107.489,21.9788 107.238,22.0168 106.985,22.0898 C106.794,22.1438 106.612,22.2258 106.435,22.3178 C105.866,22.5438 105.407,22.9758 105.141,23.5208 C104.856,23.9698 104.683,24.4698 104.683,24.9608 L104.683,34.0608 C104.683,35.9178 103.085,37.8888 101.121,38.4528 C100.795,38.5478 100.472,38.5958 100.159,38.5958 C99.625,38.5958 99.144,38.4548 98.766,38.1878 C98.205,37.7918 97.895,37.1378 97.895,36.3468 L97.895,27.2458 C97.895,26.6028 97.625,26.0568 97.135,25.7098 C96.81,25.4798 96.405,25.3588 95.966,25.3588 C95.732,25.3588 95.493,25.3938 95.256,25.4618 C93.984,25.8268 92.95,27.1148 92.95,28.3328 L92.95,37.5088 C92.971,39.5708 93.825,41.2958 95.357,42.3678 C96.385,43.0858 97.657,43.4658 99.037,43.4658 C99.819,43.4658 100.634,43.3458 101.457,43.1088 C102.577,42.7868 103.682,42.2588 104.683,41.5688 L104.683,42.6898 C104.226,44.6958 102.995,46.4068 101.319,47.4958 C101.188,47.5468 101.062,47.6068 100.927,47.6458 C100.883,47.6578 100.782,47.7448 100.645,47.8868 C99.578,48.4368 98.37,48.7538 97.088,48.7538 C93.838,48.7538 91.048,46.7518 89.88,43.9188 C89.893,43.8128 89.909,43.7088 89.909,43.6028 L89.909,36.4098 C89.909,33.7188 88.87,31.5028 86.983,30.1718 C85.788,29.3278 84.289,28.8818 82.649,28.8818 C81.691,28.8818 80.687,29.0308 79.666,29.3248 C73.96,30.9648 69.49,36.5088 69.49,41.9448 C69.49,44.4738 70.486,46.5688 72.296,47.8468 C73.525,48.7148 75.081,49.1738 76.796,49.1738 C77.822,49.1738 78.901,49.0128 80.003,48.6958 C82.113,48.0888 83.804,47.1498 85.291,45.7538 C85.312,45.7818 85.345,45.8018 85.367,45.8298 C87.281,50.4188 91.812,53.6538 97.088,53.6538 C104.088,53.6538 109.783,47.9588 109.783,40.9588 L109.783,24.5938 C109.783,24.3448 109.735,24.1078 109.666,23.8818" id="Fill-13" fill="#FFFFFF"></path>
                <path d="M25.5127,40.9665 L12.1257,44.8155 C11.8517,44.8935 11.5847,44.9335 11.3317,44.9335 C10.8897,44.9335 10.4987,44.8165 10.1707,44.5835 C9.6767,44.2355 9.4047,43.6785 9.4047,43.0165 L9.4047,21.0725 C9.4047,19.8145 10.4337,18.5315 11.7467,18.1545 C11.9877,18.0845 12.2297,18.0495 12.4677,18.0495 C12.9137,18.0495 13.3257,18.1735 13.6587,18.4085 C14.1547,18.7595 14.4277,19.3115 14.4277,19.9635 L14.4277,39.3265 L25.1767,36.2375 C25.4167,36.1675 25.6587,36.1335 25.8957,36.1335 C26.3427,36.1335 26.7547,36.2575 27.0867,36.4915 C27.5837,36.8415 27.8567,37.3945 27.8567,38.0465 C27.8567,39.2845 26.8057,40.5945 25.5127,40.9665" id="Fill-15" fill="#FFFFFF"></path>
                <path d="M58.3535,20.2576 L58.3535,31.7006 C58.3535,32.9396 57.3025,34.2486 56.0105,34.6196 C55.7805,34.6866 55.5465,34.7196 55.3185,34.7196 C54.8805,34.7196 54.4765,34.5976 54.1485,34.3646 C53.6535,34.0166 53.3705,33.4456 53.3705,32.7996 L53.3705,21.6906 L51.3425,22.2736 C51.1135,22.3406 50.8795,22.3746 50.6515,22.3746 C50.2145,22.3746 49.8095,22.2516 49.4785,22.0196 C49.3685,21.9416 49.2715,21.8476 49.1825,21.7486 C48.9535,21.4426 48.8185,21.1716 48.7325,20.7426 C48.7185,20.6466 48.7005,20.5526 48.7005,20.4516 C48.7005,19.2346 49.7335,17.9456 51.0045,17.5816 L53.3705,16.9016 L53.3705,9.9736 C53.3705,8.7546 54.4035,7.4666 55.6745,7.1016 C55.9285,7.0286 56.1805,6.9916 56.4235,6.9916 C56.8645,6.9916 57.2695,7.1146 57.5975,7.3476 C58.0845,7.6926 58.3535,8.2346 58.3535,8.8746 L58.3535,15.4686 L60.3445,14.8966 C60.5995,14.8236 60.8515,14.7866 61.0935,14.7866 C61.5325,14.7866 61.9385,14.9086 62.2675,15.1416 C62.7545,15.4866 63.0235,16.0286 63.0235,16.6696 C63.0235,17.9076 61.9725,19.2166 60.6805,19.5886 L58.3535,20.2576 Z" id="Fill-17" fill="#FFFFFF"></path>
                <path d="M66.4033,49.8874 C66.4033,51.1464 65.3903,52.4234 64.0973,52.7944 C63.8453,52.8674 63.5943,52.9044 63.3523,52.9044 C62.9163,52.9044 62.5123,52.7824 62.1853,52.5514 C61.6913,52.2024 61.4193,51.6464 61.4193,50.9854 L61.4193,27.0964 C61.4193,25.8594 62.4483,24.5924 63.7603,24.2144 C63.9983,24.1454 64.2383,24.1114 64.4723,24.1114 C64.9113,24.1114 65.3153,24.2324 65.6423,24.4634 C66.1323,24.8094 66.4033,25.3544 66.4033,25.9984 L66.4033,49.8874 Z" id="Fill-19" fill="#FFFFFF"></path>
                <g id="Group-23" transform="translate(51.000000, 63.611600)">
                    <mask id="mask-2" fill="white">
                        <use xlink:href="#path-1"></use>
                    </mask>
                    <g id="Clip-22"></g>
                    <path d="M67.6836,10.4692 C67.6946,10.3432 67.6996,10.2162 67.6996,10.0882 L67.6996,4.8582 C67.6996,3.6672 67.2466,2.5422 66.4126,1.6772 C65.5536,0.7932 64.3976,0.3062 63.1586,0.3062 C61.9176,0.3062 60.7616,0.7932 59.8896,1.6902 C59.8496,1.7312 59.8226,1.7802 59.7846,1.8232 C59.0136,1.2602 58.0916,0.9432 57.1116,0.9432 C55.8926,0.9432 54.7516,1.4112 53.9016,2.2632 C53.7106,2.4522 53.5466,2.6602 53.3966,2.8762 C52.9506,2.9662 52.5216,3.1132 52.1266,3.3262 C51.4676,2.9692 50.7246,2.7792 49.9496,2.7792 C49.2606,2.7792 48.6046,2.9442 48.0026,3.2282 C46.0566,2.4792 43.7576,2.6152 41.9386,3.6392 C41.4816,3.8962 41.0746,4.2072 40.7006,4.5502 C40.3296,4.2092 39.9276,3.9012 39.4776,3.6462 C37.4096,2.4712 34.7156,2.4592 32.6216,3.5892 C30.5376,2.4592 27.8496,2.4742 25.7806,3.6392 C25.4886,3.8032 25.2146,3.9882 24.9566,4.1882 C24.4926,3.8162 23.9736,3.5012 23.3926,3.2652 C22.6546,2.9642 21.8366,2.7962 21.0036,2.7592 C20.9026,2.5542 20.7906,2.3532 20.6616,2.1642 C19.7856,0.8892 18.4006,0.1572 16.8596,0.1572 C15.9176,0.1572 15.0196,0.4442 14.2496,0.9682 C14.1606,0.9622 14.0746,0.9432 13.9846,0.9432 C12.7656,0.9432 11.6246,1.4112 10.7746,2.2632 C10.6096,2.4282 10.4596,2.6052 10.3246,2.7902 C10.0896,2.7682 9.8566,2.7462 9.6146,2.7462 C9.3886,2.7462 9.1676,2.7682 8.9486,2.7872 C8.7336,2.3652 8.4696,1.9632 8.1206,1.6122 C7.2706,0.7702 6.1356,0.3062 4.9246,0.3062 C3.7056,0.3062 2.5656,0.7752 1.7146,1.6262 C0.8626,2.4782 0.3936,3.6172 0.3936,4.8362 L0.3936,10.6292 C0.3936,11.5702 0.5796,12.4612 0.9416,13.2692 C1.3746,14.2442 2.0576,15.0692 2.9136,15.6512 C3.8196,16.2672 4.8816,16.5922 6.0066,16.5922 C6.5776,16.5922 7.1246,16.4932 7.6396,16.3152 C8.3186,16.5192 9.0286,16.6342 9.7736,16.6342 C10.5326,16.6342 11.3046,16.5032 12.0716,16.2462 C12.3016,16.1682 12.5096,16.0622 12.7256,15.9662 C13.5286,16.3692 14.4126,16.5922 15.3216,16.5922 L15.5116,16.5922 C16.2976,16.5922 17.0356,16.4002 17.7036,16.0492 C17.8166,16.0942 17.9236,16.1462 18.0406,16.1872 C18.0416,16.1872 18.0426,16.1872 18.0436,16.1882 C18.8916,16.4842 19.7926,16.6342 20.7216,16.6342 C21.7116,16.6342 22.6266,16.4542 23.4456,16.1142 C23.4926,16.1802 23.5296,16.2512 23.5796,16.3162 C24.2696,17.1882 25.1336,17.8652 26.1516,18.3342 C27.1156,18.7772 28.1546,19.0002 29.2406,19.0002 C30.5266,19.0002 31.7216,18.6802 32.7986,18.0462 C33.5006,17.6302 34.0946,17.1022 34.5946,16.4882 C35.0496,16.5752 35.5156,16.6342 35.9986,16.6342 C37.2626,16.6342 38.4356,16.3322 39.4846,15.7382 C39.9336,15.4822 40.3346,15.1732 40.7046,14.8342 C41.0786,15.1762 41.4836,15.4862 41.9386,15.7422 C41.9396,15.7432 41.9406,15.7442 41.9416,15.7442 C42.9916,16.3352 44.1616,16.6342 45.4196,16.6342 C46.6106,16.6342 47.7166,16.3562 48.7186,15.8272 C48.7226,15.8302 48.7266,15.8332 48.7316,15.8362 C49.7126,16.3732 50.8006,16.6452 51.9646,16.6452 C52.4466,16.6452 52.9186,16.5962 53.3776,16.4982 C53.6806,16.5602 53.9926,16.5922 54.3096,16.5922 C55.0036,16.5922 55.6626,16.4302 56.2566,16.1532 C56.9486,16.4362 57.6896,16.5922 58.4486,16.5922 L58.6386,16.5922 C59.4586,16.5922 60.2306,16.3892 60.9206,16.0062 C61.6046,16.3762 62.3626,16.5922 63.1586,16.5922 C64.3976,16.5922 65.5716,16.1152 66.4726,15.2382 C67.3866,14.3422 67.8896,13.1422 67.8896,11.8602 C67.8896,11.3812 67.8196,10.9132 67.6836,10.4692" id="Fill-21" fill="#0A1953" mask="url(#mask-2)"></path>
                </g>
                <path d="M56.1631,75.9548 C55.9191,75.7888 55.7291,75.5558 55.5961,75.2548 C55.4611,74.9538 55.3931,74.6158 55.3931,74.2408 L55.3931,68.4478 C55.3931,68.2928 55.4431,68.1658 55.5431,68.0658 C55.6421,67.9678 55.7681,67.9178 55.9251,67.9178 C56.0801,67.9178 56.2071,67.9678 56.3071,68.0658 C56.4051,68.1658 56.4551,68.2928 56.4551,68.4478 L56.4551,74.2408 C56.4551,74.5028 56.5041,74.7188 56.6031,74.8888 C56.7021,75.0588 56.8301,75.1428 56.9851,75.1428 L57.2511,75.1428 C57.3921,75.1428 57.5071,75.1918 57.5961,75.2918 C57.6841,75.3908 57.7281,75.5178 57.7281,75.6738 C57.7281,75.8288 57.6611,75.9568 57.5261,76.0558 C57.3921,76.1538 57.2191,76.2038 57.0071,76.2038 L56.9851,76.2038 C56.6821,76.2038 56.4071,76.1208 56.1631,75.9548" id="Fill-24" fill="#FFFFFF"></path>
                <path d="M59.3564,71.6951 C59.0354,71.9781 58.8324,72.3561 58.7474,72.8301 L62.2804,72.8301 C62.2154,72.3561 62.0394,71.9781 61.7494,71.6951 C61.4594,71.4121 61.0814,71.2701 60.6144,71.2701 C60.0974,71.2701 59.6784,71.4121 59.3564,71.6951 M63.1184,73.5471 C63.0264,73.6341 62.9094,73.6781 62.7674,73.6781 L58.7364,73.6781 C58.8144,74.1741 59.0394,74.5741 59.4104,74.8781 C59.7814,75.1811 60.2354,75.3341 60.7734,75.3341 C60.9854,75.3341 61.2064,75.2951 61.4364,75.2171 C61.6664,75.1391 61.8554,75.0441 62.0034,74.9301 C62.1024,74.8531 62.2194,74.8141 62.3544,74.8141 C62.4884,74.8141 62.5944,74.8491 62.6714,74.9201 C62.7994,75.0261 62.8634,75.1461 62.8634,75.2811 C62.8634,75.4081 62.8064,75.5141 62.6934,75.5991 C62.4534,75.7901 62.1544,75.9461 61.7964,76.0661 C61.4394,76.1861 61.0984,76.2461 60.7734,76.2461 C60.1934,76.2461 59.6734,76.1211 59.2134,75.8701 C58.7534,75.6191 58.3944,75.2701 58.1364,74.8251 C57.8784,74.3791 57.7504,73.8741 57.7504,73.3071 C57.7504,72.7421 57.8724,72.2341 58.1154,71.7851 C58.3594,71.3361 58.6994,70.9861 59.1334,70.7351 C59.5694,70.4841 60.0624,70.3581 60.6144,70.3581 C61.1584,70.3581 61.6284,70.4781 62.0254,70.7181 C62.4204,70.9601 62.7254,71.2961 62.9374,71.7261 C63.1494,72.1581 63.2554,72.6531 63.2554,73.2121 C63.2554,73.3461 63.2104,73.4581 63.1184,73.5471" id="Fill-26" fill="#FFFFFF"></path>
                <path d="M67.0049,75.2917 C67.0939,75.3907 67.1379,75.5187 67.1379,75.6737 C67.1379,75.8287 67.0789,75.9567 66.9629,76.0557 C66.8459,76.1537 66.6959,76.2037 66.5119,76.2037 L66.3209,76.2037 C65.9749,76.2037 65.6579,76.1137 65.3709,75.9337 C65.0849,75.7527 64.8599,75.5077 64.6979,75.1957 C64.5349,74.8847 64.4539,74.5347 64.4539,74.1457 L64.4539,71.5247 L63.9659,71.5247 C63.8169,71.5247 63.6969,71.4827 63.6059,71.3977 C63.5129,71.3127 63.4669,71.2067 63.4669,71.0797 C63.4669,70.9377 63.5129,70.8247 63.6059,70.7397 C63.6969,70.6547 63.8169,70.6127 63.9659,70.6127 L64.4539,70.6127 L64.4539,69.0847 C64.4539,68.9297 64.5029,68.8027 64.6029,68.7027 C64.7009,68.6037 64.8279,68.5547 64.9839,68.5547 C65.1399,68.5547 65.2669,68.6037 65.3659,68.7027 C65.4649,68.8027 65.5149,68.9297 65.5149,69.0847 L65.5149,70.6127 L66.4159,70.6127 C66.5659,70.6127 66.6859,70.6547 66.7769,70.7397 C66.8689,70.8247 66.9149,70.9377 66.9149,71.0797 C66.9149,71.2067 66.8689,71.3127 66.7769,71.3977 C66.6859,71.4827 66.5659,71.5247 66.4159,71.5247 L65.5149,71.5247 L65.5149,74.1457 C65.5149,74.4287 65.5929,74.6657 65.7479,74.8557 C65.9029,75.0477 66.0949,75.1437 66.3209,75.1437 L66.6819,75.1437 C66.8089,75.1437 66.9169,75.1917 67.0049,75.2917" id="Fill-28" fill="#FFFFFF"></path>
                <path d="M68.3633,68.0398 C68.4873,68.2208 68.5493,68.4518 68.5493,68.7348 C68.5493,68.9758 68.4833,69.2678 68.3523,69.6098 C68.2213,69.9528 68.0663,70.2508 67.8853,70.5018 C67.7063,70.7528 67.5413,70.8778 67.3923,70.8778 C67.3013,70.8778 67.2263,70.8468 67.1703,70.7818 C67.1133,70.7188 67.0853,70.6418 67.0853,70.5488 C67.0853,70.4998 67.0953,70.4498 67.1173,70.3998 C67.2863,70.0118 67.3713,69.6858 67.3713,69.4248 C67.3713,69.2898 67.3423,69.1168 67.2863,68.9048 C67.2373,68.6718 67.2123,68.5048 67.2123,68.4058 C67.2123,68.2288 67.2763,68.0788 67.4033,67.9548 C67.5303,67.8318 67.6823,67.7688 67.8593,67.7688 C68.0713,67.7688 68.2393,67.8588 68.3633,68.0398" id="Fill-30" fill="#FFFFFF"></path>
                <path d="M70.3633,76.0232 C69.9393,75.8752 69.6063,75.6802 69.3663,75.4402 C69.2743,75.3482 69.2283,75.2382 69.2283,75.1112 C69.2283,74.9412 69.2993,74.8032 69.4403,74.6972 C69.5743,74.5982 69.6983,74.5482 69.8113,74.5482 C69.9533,74.5482 70.0883,74.6122 70.2153,74.7402 C70.3493,74.8882 70.5503,75.0172 70.8193,75.1272 C71.0883,75.2372 71.3753,75.2922 71.6783,75.2922 C72.0823,75.2922 72.3953,75.2242 72.6183,75.0892 C72.8413,74.9562 72.9523,74.7752 72.9523,74.5482 C72.9523,74.3302 72.8423,74.1472 72.6233,74.0022 C72.4043,73.8572 72.0323,73.7352 71.5093,73.6362 C70.1513,73.3752 69.4723,72.8162 69.4723,71.9602 C69.4723,71.6142 69.5743,71.3202 69.7803,71.0802 C69.9853,70.8392 70.2543,70.6592 70.5863,70.5392 C70.9193,70.4182 71.2723,70.3582 71.6473,70.3582 C72.1063,70.3582 72.5183,70.4322 72.8833,70.5812 C73.2473,70.7292 73.5353,70.9342 73.7483,71.1962 C73.8403,71.3092 73.8853,71.4222 73.8853,71.5362 C73.8853,71.6562 73.8253,71.7652 73.7053,71.8652 C73.6273,71.9212 73.5283,71.9502 73.4083,71.9502 C73.2243,71.9502 73.0583,71.8822 72.9093,71.7482 C72.7323,71.5852 72.5453,71.4702 72.3473,71.4032 C72.1493,71.3352 71.9093,71.3022 71.6263,71.3022 C71.3003,71.3022 71.0333,71.3572 70.8253,71.4662 C70.6163,71.5772 70.5113,71.7302 70.5113,71.9282 C70.5113,72.0702 70.5473,72.1882 70.6183,72.2842 C70.6883,72.3792 70.8233,72.4672 71.0213,72.5482 C71.2183,72.6302 71.5063,72.7102 71.8813,72.7882 C72.6513,72.9432 73.1973,73.1592 73.5193,73.4342 C73.8423,73.7102 74.0023,74.0682 74.0023,74.5062 C74.0023,74.8322 73.9143,75.1272 73.7373,75.3922 C73.5603,75.6582 73.3013,75.8662 72.9573,76.0182 C72.6143,76.1702 72.2023,76.2462 71.7213,76.2462 C71.2403,76.2462 70.7883,76.1712 70.3633,76.0232" id="Fill-32" fill="#FFFFFF"></path>
                <path d="M81.2324,75.0369 C81.5184,74.8669 81.7424,74.6319 81.9014,74.3319 C82.0594,74.0309 82.1394,73.6889 82.1394,73.3069 C82.1394,72.9259 82.0594,72.5829 81.9014,72.2779 C81.7424,71.9739 81.5184,71.7369 81.2324,71.5669 C80.9464,71.3979 80.6224,71.3129 80.2614,71.3129 C79.9014,71.3129 79.5774,71.3979 79.2914,71.5669 C79.0044,71.7369 78.7804,71.9739 78.6174,72.2779 C78.4544,72.5829 78.3734,72.9259 78.3734,73.3069 C78.3734,73.6889 78.4544,74.0309 78.6174,74.3319 C78.7804,74.6319 79.0044,74.8669 79.2914,75.0369 C79.5774,75.2069 79.9014,75.2919 80.2614,75.2919 C80.6224,75.2919 80.9464,75.2069 81.2324,75.0369 M81.7624,70.7349 C82.2054,70.9859 82.5514,71.3339 82.8024,71.7799 C83.0534,72.2249 83.1794,72.7339 83.1794,73.3069 L83.1794,75.5989 C83.1794,76.1579 83.0554,76.6669 82.8074,77.1269 C82.5604,77.5869 82.2114,77.9489 81.7624,78.2149 C81.3134,78.4789 80.8064,78.6119 80.2404,78.6119 C79.7314,78.6119 79.2574,78.5119 78.8194,78.3099 C78.3794,78.1079 78.0124,77.8199 77.7154,77.4449 C77.6374,77.3469 77.5984,77.2469 77.5984,77.1479 C77.5984,76.9999 77.6724,76.8719 77.8214,76.7659 C77.9204,76.7029 78.0194,76.6709 78.1194,76.6709 C78.2944,76.6709 78.4404,76.7449 78.5534,76.8929 C78.7444,77.1409 78.9854,77.3299 79.2754,77.4609 C79.5654,77.5919 79.8934,77.6569 80.2614,77.6569 C80.6084,77.6569 80.9224,77.5739 81.2064,77.4079 C81.4894,77.2419 81.7144,76.9979 81.8844,76.6759 C82.0544,76.3539 82.1394,75.9709 82.1394,75.5249 L82.1394,75.0049 C81.9194,75.3939 81.6294,75.6979 81.2694,75.9179 C80.9094,76.1369 80.5024,76.2459 80.0494,76.2459 C79.5264,76.2459 79.0574,76.1209 78.6434,75.8699 C78.2304,75.6189 77.9084,75.2699 77.6784,74.8249 C77.4484,74.3789 77.3344,73.8739 77.3344,73.3069 C77.3344,72.7339 77.4574,72.2249 77.7054,71.7799 C77.9524,71.3339 78.2984,70.9859 78.7444,70.7349 C79.1904,70.4839 79.6964,70.3579 80.2614,70.3579 C80.8204,70.3579 81.3214,70.4839 81.7624,70.7349" id="Fill-34" fill="#FFFFFF"></path>
                <path d="M87.9697,75.0369 C88.2557,74.8669 88.4797,74.6319 88.6387,74.3319 C88.7967,74.0309 88.8767,73.6889 88.8767,73.3069 C88.8767,72.9259 88.7967,72.5829 88.6387,72.2779 C88.4797,71.9739 88.2557,71.7369 87.9697,71.5669 C87.6837,71.3979 87.3597,71.3129 86.9987,71.3129 C86.6387,71.3129 86.3147,71.3979 86.0287,71.5669 C85.7417,71.7369 85.5177,71.9739 85.3547,72.2779 C85.1917,72.5829 85.1107,72.9259 85.1107,73.3069 C85.1107,73.6889 85.1917,74.0309 85.3547,74.3319 C85.5177,74.6319 85.7417,74.8669 86.0287,75.0369 C86.3147,75.2069 86.6387,75.2919 86.9987,75.2919 C87.3597,75.2919 87.6837,75.2069 87.9697,75.0369 M85.4817,75.8699 C85.0357,75.6189 84.6897,75.2699 84.4427,74.8249 C84.1947,74.3789 84.0717,73.8739 84.0717,73.3069 C84.0717,72.7339 84.1947,72.2249 84.4427,71.7799 C84.6897,71.3339 85.0357,70.9859 85.4817,70.7349 C85.9277,70.4839 86.4337,70.3579 86.9987,70.3579 C87.5577,70.3579 88.0587,70.4839 88.4997,70.7349 C88.9427,70.9859 89.2887,71.3339 89.5397,71.7799 C89.7907,72.2249 89.9167,72.7339 89.9167,73.3069 C89.9167,73.8739 89.7927,74.3789 89.5447,74.8249 C89.2977,75.2699 88.9527,75.6189 88.5107,75.8699 C88.0687,76.1209 87.5647,76.2459 86.9987,76.2459 C86.4337,76.2459 85.9277,76.1209 85.4817,75.8699" id="Fill-36" fill="#FFFFFF"></path>
                <path d="M97.3906,75.0369 C97.6766,74.8669 97.9006,74.6319 98.0596,74.3319 C98.2176,74.0309 98.2976,73.6889 98.2976,73.3069 C98.2976,72.9259 98.2176,72.5829 98.0596,72.2779 C97.9006,71.9739 97.6766,71.7369 97.3906,71.5669 C97.1046,71.3979 96.7806,71.3129 96.4196,71.3129 C96.0596,71.3129 95.7356,71.3979 95.4496,71.5669 C95.1626,71.7369 94.9386,71.9739 94.7756,72.2779 C94.6126,72.5829 94.5316,72.9259 94.5316,73.3069 C94.5316,73.6889 94.6126,74.0309 94.7756,74.3319 C94.9386,74.6319 95.1626,74.8669 95.4496,75.0369 C95.7356,75.2069 96.0596,75.2919 96.4196,75.2919 C96.7806,75.2919 97.1046,75.2069 97.3906,75.0369 M94.9026,75.8699 C94.4566,75.6189 94.1106,75.2699 93.8636,74.8249 C93.6156,74.3789 93.4926,73.8739 93.4926,73.3069 C93.4926,72.7339 93.6156,72.2249 93.8636,71.7799 C94.1106,71.3339 94.4566,70.9859 94.9026,70.7349 C95.3486,70.4839 95.8546,70.3579 96.4196,70.3579 C96.9786,70.3579 97.4796,70.4839 97.9206,70.7349 C98.3636,70.9859 98.7096,71.3339 98.9606,71.7799 C99.2116,72.2249 99.3376,72.7339 99.3376,73.3069 C99.3376,73.8739 99.2136,74.3789 98.9656,74.8249 C98.7186,75.2699 98.3736,75.6189 97.9316,75.8699 C97.4896,76.1209 96.9856,76.2459 96.4196,76.2459 C95.8546,76.2459 95.3486,76.1209 94.9026,75.8699" id="Fill-38" fill="#FFFFFF"></path>
                <path d="M105.7021,70.5388 C105.8021,70.6378 105.8501,70.7678 105.8501,70.9318 L105.8501,75.6628 C105.8501,75.8178 105.8021,75.9478 105.7021,76.0498 C105.6031,76.1528 105.4731,76.2038 105.3091,76.2038 C105.1541,76.2038 105.0251,76.1528 104.9231,76.0498 C104.8201,75.9478 104.7681,75.8178 104.7681,75.6628 L104.7681,75.5458 C104.5421,75.7718 104.2731,75.9478 103.9631,76.0708 C103.6511,76.1948 103.3191,76.2568 102.9651,76.2568 C102.4771,76.2568 102.0391,76.1508 101.6491,75.9378 C101.2611,75.7268 100.9561,75.4168 100.7371,75.0108 C100.5171,74.6028 100.4081,74.1138 100.4081,73.5408 L100.4081,70.9318 C100.4081,70.7748 100.4601,70.6458 100.5621,70.5438 C100.6651,70.4408 100.7941,70.3908 100.9491,70.3908 C101.1051,70.3908 101.2341,70.4408 101.3371,70.5438 C101.4391,70.6458 101.4901,70.7748 101.4901,70.9318 L101.4901,73.5408 C101.4901,74.1138 101.6441,74.5478 101.9521,74.8408 C102.2601,75.1348 102.6681,75.2808 103.1781,75.2808 C103.4741,75.2808 103.7451,75.2208 103.9891,75.1008 C104.2331,74.9798 104.4241,74.8178 104.5621,74.6118 C104.7001,74.4068 104.7681,74.1778 104.7681,73.9228 L104.7681,70.9318 C104.7681,70.7678 104.8201,70.6378 104.9231,70.5388 C105.0251,70.4388 105.1541,70.3908 105.3091,70.3908 C105.4731,70.3908 105.6031,70.4388 105.7021,70.5388" id="Fill-40" fill="#FFFFFF"></path>
                <path d="M110.1318,75.2917 C110.2208,75.3907 110.2648,75.5187 110.2648,75.6737 C110.2648,75.8287 110.2058,75.9567 110.0898,76.0557 C109.9728,76.1537 109.8228,76.2037 109.6388,76.2037 L109.4478,76.2037 C109.1018,76.2037 108.7848,76.1137 108.4978,75.9337 C108.2118,75.7527 107.9868,75.5077 107.8248,75.1957 C107.6618,74.8847 107.5808,74.5347 107.5808,74.1457 L107.5808,71.5247 L107.0928,71.5247 C106.9438,71.5247 106.8238,71.4827 106.7328,71.3977 C106.6398,71.3127 106.5938,71.2067 106.5938,71.0797 C106.5938,70.9377 106.6398,70.8247 106.7328,70.7397 C106.8238,70.6547 106.9438,70.6127 107.0928,70.6127 L107.5808,70.6127 L107.5808,69.0847 C107.5808,68.9297 107.6298,68.8027 107.7298,68.7027 C107.8278,68.6037 107.9548,68.5547 108.1108,68.5547 C108.2668,68.5547 108.3938,68.6037 108.4928,68.7027 C108.5918,68.8027 108.6418,68.9297 108.6418,69.0847 L108.6418,70.6127 L109.5428,70.6127 C109.6928,70.6127 109.8128,70.6547 109.9038,70.7397 C109.9958,70.8247 110.0418,70.9377 110.0418,71.0797 C110.0418,71.2067 109.9958,71.3127 109.9038,71.3977 C109.8128,71.4827 109.6928,71.5247 109.5428,71.5247 L108.6418,71.5247 L108.6418,74.1457 C108.6418,74.4287 108.7198,74.6657 108.8748,74.8557 C109.0298,75.0477 109.2218,75.1437 109.4478,75.1437 L109.8088,75.1437 C109.9358,75.1437 110.0438,75.1917 110.1318,75.2917" id="Fill-42" fill="#FFFFFF"></path>
                <path d="M113.7764,74.0818 C113.6704,73.9768 113.6174,73.8488 113.6174,73.6998 L113.6174,68.4698 C113.6174,68.3138 113.6684,68.1838 113.7704,68.0768 C113.8734,67.9718 114.0024,67.9178 114.1584,67.9178 C114.3134,67.9178 114.4424,67.9718 114.5454,68.0768 C114.6474,68.1838 114.6994,68.3138 114.6994,68.4698 L114.6994,73.6998 C114.6994,73.8488 114.6444,73.9768 114.5344,74.0818 C114.4244,74.1878 114.2994,74.2408 114.1584,74.2408 C114.0094,74.2408 113.8814,74.1878 113.7764,74.0818 M113.6434,75.9918 C113.4984,75.8508 113.4254,75.6778 113.4254,75.4718 C113.4254,75.2668 113.4984,75.0918 113.6434,74.9468 C113.7884,74.8018 113.9604,74.7288 114.1584,74.7288 C114.3554,74.7288 114.5274,74.8018 114.6724,74.9468 C114.8174,75.0918 114.8894,75.2668 114.8894,75.4718 C114.8894,75.6778 114.8174,75.8508 114.6724,75.9918 C114.5274,76.1338 114.3554,76.2038 114.1584,76.2038 C113.9604,76.2038 113.7884,76.1338 113.6434,75.9918" id="Fill-44" fill="#FFFFFF"></path>
            </g>
        </g>
    </g>
</svg>