<?xml version="1.0" encoding="UTF-8"?>
<svg width="220px" height="86px" viewBox="0 0 220 86" version="1.1" xmlns="http://www.w3.org/2000/svg" xmlns:xlink="http://www.w3.org/1999/xlink">
    <!-- Generator: Sketch 49.2 (51160) - http://www.bohemiancoding.com/sketch -->
    <title>logo_main_kr</title>
    <desc>Created with Sketch.</desc>
    <defs>
        <polygon id="path-1" points="0.7265 0.918 28.6884847 0.918 28.6884847 40.9645 0.7265 40.9645"></polygon>
        <polygon id="path-3" points="0.502047725 0.968447291 20.662 0.968447291 20.662 21.5645 0.502047725 21.5645"></polygon>
        <polygon id="path-5" points="0 72.082 203.662 72.082 203.662 1 0 1"></polygon>
    </defs>
    <g id="logo_main_kr" stroke="none" stroke-width="1" fill="none" fill-rule="evenodd">
        <g id="Page-1" transform="translate(8.000000, 5.000000)">
            <path d="M165.0518,69.0639 L162.7908,66.8029 C162.9478,66.4189 163.0308,66.0049 163.0308,65.5779 C163.0308,64.7149 162.6938,63.9029 162.0828,63.2929 C161.1368,62.3469 159.7448,62.1099 158.5738,62.5869 L156.3128,60.3239 L168.4338,48.2039 L170.6958,50.4659 C170.2198,51.6349 170.4548,53.0279 171.4018,53.9749 C172.3148,54.8879 173.7568,55.1549 174.9108,54.6819 L177.1728,56.9429 L165.0518,69.0639 Z M176.6158,44.0559 C176.1288,43.5679 175.3378,43.5669 174.8488,44.0559 C174.5718,44.3319 174.0908,44.3329 173.8138,44.0559 C173.6748,43.9169 173.5988,43.7329 173.5988,43.5379 C173.5988,43.3429 173.6748,43.1599 173.8138,43.0219 C174.0478,42.7869 174.1798,42.4689 174.1798,42.1379 C174.1798,41.8059 174.0478,41.4879 173.8138,41.2529 L169.9608,37.4009 C169.4728,36.9129 168.6818,36.9129 168.1938,37.4009 L158.3628,47.2319 C157.8738,47.7209 157.8738,48.5119 158.3628,48.9999 C158.8508,49.4879 159.6418,49.4879 160.1298,48.9999 L169.0768,40.0529 L171.3378,42.3139 C171.1808,42.6969 171.0988,43.1109 171.0988,43.5379 C171.0988,44.4019 171.4358,45.2129 172.0458,45.8229 C172.9548,46.7349 174.3938,47.0049 175.5558,46.5309 L177.8168,48.7919 L174.6768,51.9319 C174.5018,51.9889 174.3368,52.0739 174.2038,52.2069 C173.9268,52.4829 173.4468,52.4819 173.1688,52.2069 C172.8838,51.9219 172.8838,51.4569 173.1688,51.1719 C173.6568,50.6839 173.6568,49.8929 173.1688,49.4039 L169.3178,45.5519 C169.0828,45.3169 168.7658,45.1859 168.4338,45.1859 C168.1028,45.1859 167.7838,45.3169 167.5498,45.5519 L153.6608,59.4399 C153.1728,59.9289 153.1728,60.7199 153.6608,61.2079 L157.5128,65.0609 C157.9998,65.5479 158.7908,65.5499 159.2808,65.0609 C159.5658,64.7749 160.0308,64.7749 160.3158,65.0609 C160.4538,65.1989 160.5308,65.3829 160.5308,65.5779 C160.5308,65.7729 160.4538,65.9569 160.3158,66.0949 C160.0808,66.3299 159.9488,66.6469 159.9488,66.9799 C159.9488,67.3109 160.0808,67.6289 160.3158,67.8629 L164.1678,71.7159 C164.4118,71.9599 164.7318,72.0819 165.0518,72.0819 C165.3718,72.0819 165.6918,71.9599 165.9358,71.7159 L179.8238,57.8269 C180.0588,57.5919 180.1908,57.2739 180.1908,56.9429 C180.1908,56.6109 180.0588,56.2929 179.8238,56.0589 L176.9538,53.1889 L180.4678,49.6759 C180.9558,49.1879 180.9558,48.3969 180.4678,47.9079 L176.6158,44.0559 Z" id="Fill-1" fill="#083CC3"></path>
            <path d="M29.7256,59.0586 C28.4136,59.0586 27.3466,57.9926 27.3466,56.6806 C27.3466,55.3696 28.4136,54.3026 29.7256,54.3026 C31.0376,54.3026 32.1036,55.3696 32.1036,56.6806 C32.1036,57.9926 31.0376,59.0586 29.7256,59.0586 M29.7256,51.8026 C27.0356,51.8026 24.8466,53.9906 24.8466,56.6806 C24.8466,59.3706 27.0356,61.5586 29.7256,61.5586 C32.4146,61.5586 34.6036,59.3706 34.6036,56.6806 C34.6036,53.9906 32.4146,51.8026 29.7256,51.8026" id="Fill-3" fill="#083CC3"></path>
            <path d="M160.8604,19.3398 L163.2104,19.3398 L161.5484,21.0008 C161.0604,21.4888 161.0604,22.2808 161.5484,22.7688 C161.7934,23.0128 162.1124,23.1348 162.4324,23.1348 C162.7534,23.1348 163.0724,23.0128 163.3164,22.7688 L164.9774,21.1078 L164.9774,23.4568 C164.9774,24.1478 165.5374,24.7068 166.2274,24.7068 C166.9184,24.7068 167.4774,24.1478 167.4774,23.4568 L167.4774,21.1078 L169.1384,22.7688 C169.3824,23.0128 169.7024,23.1348 170.0224,23.1348 C170.3424,23.1348 170.6624,23.0128 170.9064,22.7688 C171.3944,22.2808 171.3944,21.4888 170.9064,21.0008 L169.2454,19.3398 L171.5944,19.3398 C172.2854,19.3398 172.8444,18.7798 172.8444,18.0898 C172.8444,17.3998 172.2854,16.8398 171.5944,16.8398 L169.2454,16.8398 L170.9064,15.1788 C171.3944,14.6908 171.3944,13.8988 170.9064,13.4108 C170.4184,12.9228 169.6274,12.9228 169.1384,13.4108 L167.4774,15.0718 L167.4774,12.7228 C167.4774,12.0318 166.9184,11.4728 166.2274,11.4728 C165.5374,11.4728 164.9774,12.0318 164.9774,12.7228 L164.9774,15.0718 L163.3164,13.4108 C162.8284,12.9228 162.0374,12.9228 161.5484,13.4108 C161.0604,13.8988 161.0604,14.6908 161.5484,15.1788 L163.2104,16.8398 L160.8604,16.8398 C160.1704,16.8398 159.6104,17.3998 159.6104,18.0898 C159.6104,18.7798 160.1704,19.3398 160.8604,19.3398" id="Fill-5" fill="#083CC3"></path>
            <path d="M7.9121,34.2148 C7.2951,33.2538 6.4751,32.4348 5.5151,31.8168 C6.4751,31.1988 7.2951,30.3798 7.9121,29.4188 C8.5291,30.3798 9.3491,31.1988 10.3091,31.8168 C9.3491,32.4348 8.5291,33.2538 7.9121,34.2148 M14.5741,30.5668 C11.5901,30.5668 9.1621,28.1388 9.1621,25.1538 C9.1621,24.4638 8.6021,23.9038 7.9121,23.9038 C7.2221,23.9038 6.6621,24.4638 6.6621,25.1538 C6.6621,28.1388 4.2341,30.5668 1.2501,30.5668 C0.5591,30.5668 0.0001,31.1268 0.0001,31.8168 C0.0001,32.5068 0.5591,33.0668 1.2501,33.0668 C4.2341,33.0668 6.6621,35.4948 6.6621,38.4798 C6.6621,39.1698 7.2221,39.7298 7.9121,39.7298 C8.6021,39.7298 9.1621,39.1698 9.1621,38.4798 C9.1621,35.4948 11.5901,33.0668 14.5741,33.0668 C15.2651,33.0668 15.8241,32.5068 15.8241,31.8168 C15.8241,31.1268 15.2651,30.5668 14.5741,30.5668" id="Fill-7" fill="#083CC3"></path>
            <g id="Group-11" transform="translate(27.000000, 0.082000)">
                <mask id="mask-2" fill="white">
                    <use xlink:href="#path-1"></use>
                </mask>
                <g id="Clip-10"></g>
                <path d="M22.9805,20.3105 L24.7745,20.3105 C25.4425,21.3225 25.9605,22.4435 26.3015,23.6465 L23.8255,23.6465 C23.6345,22.4715 23.3545,21.3495 22.9805,20.3105 Z M22.0995,26.9465 C22.0995,27.6405 22.0555,28.3175 21.9865,28.9795 L19.0415,28.9795 C19.0715,28.2645 19.0845,27.5785 19.0845,26.9465 C19.0845,26.5345 19.0775,26.0945 19.0645,25.6435 L22.0545,25.6435 C22.0835,26.0725 22.0995,26.5055 22.0995,26.9465 Z M17.5645,38.0455 C17.7655,37.5145 17.9405,36.9305 18.0965,36.3105 L19.3465,36.3105 C18.8085,37.0175 18.2095,37.6055 17.5645,38.0455 Z M21.1645,16.7785 C21.8665,17.2205 22.5135,17.7385 23.1085,18.3135 L22.0985,18.3135 C21.8125,17.7675 21.5015,17.2545 21.1645,16.7785 Z M18.2675,18.3135 C18.0755,17.4195 17.8425,16.5835 17.5645,15.8475 C18.4205,16.4305 19.1945,17.2745 19.8505,18.3135 L18.2675,18.3135 Z M18.6265,20.3105 L20.8725,20.3105 C21.2845,21.3245 21.6015,22.4485 21.8115,23.6465 L18.9725,23.6465 C18.8995,22.5495 18.7875,21.4145 18.6265,20.3105 Z M12.5155,23.6465 C12.5995,22.4135 12.7255,21.2985 12.8805,20.3105 L16.6065,20.3105 C16.7625,21.2985 16.8895,22.4135 16.9735,23.6465 L12.5155,23.6465 Z M7.8045,36.3105 C7.9625,36.5735 8.1255,36.8295 8.2955,37.0745 C7.9255,36.8375 7.5665,36.5845 7.2255,36.3105 L7.8045,36.3105 Z M5.7915,30.9775 C6.0295,32.1645 6.3755,33.2805 6.8025,34.3125 L5.2665,34.3125 C4.4895,33.3135 3.8685,32.1905 3.4345,30.9775 L5.7915,30.9775 Z M5.4365,25.6435 C5.4105,26.0735 5.3925,26.5065 5.3925,26.9465 C5.3925,27.6385 5.4375,28.3135 5.5025,28.9795 L2.9105,28.9795 C2.7965,28.3175 2.7245,27.6405 2.7245,26.9465 C2.7245,26.5055 2.7515,26.0725 2.7975,25.6435 L5.4365,25.6435 Z M7.3915,18.3135 L6.4005,18.3135 C6.9795,17.7535 7.6145,17.2545 8.2955,16.8185 C7.9715,17.2845 7.6685,17.7825 7.3915,18.3135 Z M14.7085,14.9285 C14.7135,14.9285 14.7195,14.9275 14.7255,14.9275 C15.1415,15.0785 15.7335,16.2515 16.2215,18.3135 L13.2615,18.3135 C13.7425,16.2555 14.3195,15.0825 14.7085,14.9285 Z M9.6395,18.3135 C10.2955,17.2745 11.0695,16.4305 11.9255,15.8475 C11.6475,16.5835 11.4155,17.4195 11.2225,18.3135 L9.6395,18.3135 Z M7.6785,23.6465 C7.8885,22.4485 8.2065,21.3245 8.6185,20.3105 L10.8635,20.3105 C10.7035,21.4145 10.5905,22.5495 10.5175,23.6465 L7.6785,23.6465 Z M7.5035,28.9795 C7.4345,28.3175 7.3905,27.6405 7.3905,26.9465 C7.3905,26.5055 7.4075,26.0725 7.4355,25.6435 L10.4255,25.6435 C10.4135,26.0945 10.4055,26.5345 10.4055,26.9465 C10.4055,27.5785 10.4185,28.2645 10.4495,28.9795 L7.5035,28.9795 Z M11.3935,36.3105 C11.5495,36.9305 11.7245,37.5145 11.9255,38.0455 C11.2805,37.6055 10.6815,37.0175 10.1435,36.3105 L11.3935,36.3105 Z M8.9465,34.3125 C8.4695,33.3135 8.0905,32.1905 7.8255,30.9775 L10.5745,30.9775 C10.6655,32.0915 10.7985,33.2225 10.9815,34.3125 L8.9465,34.3125 Z M4.7315,20.3105 L6.5095,20.3105 C6.1355,21.3495 5.8555,22.4715 5.6655,23.6465 L3.1965,23.6465 C3.5395,22.4485 4.0575,21.3245 4.7315,20.3105 Z M14.7825,38.9645 C14.7765,38.9645 14.7705,38.9655 14.7645,38.9655 C14.4005,38.8335 13.9015,37.9185 13.4565,36.3105 L16.0435,36.3105 C15.6065,37.9145 15.1225,38.8295 14.7825,38.9645 Z M18.9165,30.9775 L21.6655,30.9775 C21.3995,32.1905 21.0205,33.3135 20.5435,34.3125 L18.5085,34.3125 C18.6915,33.2225 18.8255,32.0915 18.9165,30.9775 Z M16.4865,34.3125 L13.0075,34.3125 C12.8295,33.3395 12.6765,32.2275 12.5705,30.9775 L16.9195,30.9775 C16.8135,32.2275 16.6635,33.3395 16.4865,34.3125 Z M17.0865,26.9465 C17.0865,27.6555 17.0695,28.3275 17.0425,28.9795 L12.4485,28.9795 C12.4205,28.3275 12.4035,27.6555 12.4035,26.9465 C12.4035,26.5005 12.4095,26.0675 12.4195,25.6435 L17.0705,25.6435 C17.0815,26.0675 17.0865,26.5005 17.0865,26.9465 Z M28.5905,24.6445 C28.5905,24.4975 28.5545,24.3595 28.4975,24.2335 C27.2885,18.0355 22.0695,13.4195 15.7445,12.9745 L15.7445,1.9165 C15.7445,1.3655 15.2965,0.9175 14.7455,0.9175 C14.1935,0.9175 13.7465,1.3655 13.7465,1.9165 L13.7465,12.9785 C9.5615,13.2755 5.8865,15.4135 3.5165,18.5895 C3.4635,18.6405 3.4275,18.7025 3.3865,18.7635 C2.2355,20.3575 1.4015,22.1935 1.0015,24.1905 C0.9295,24.3285 0.8785,24.4785 0.8785,24.6445 C0.8785,24.6985 0.9015,24.7445 0.9095,24.7955 C0.7995,25.4985 0.7265,26.2135 0.7265,26.9465 C0.7265,34.6765 7.0155,40.9645 14.7455,40.9645 C17.5535,40.9645 20.2645,40.1375 22.5845,38.5705 C23.0415,38.2615 23.1615,37.6405 22.8525,37.1835 C22.5435,36.7265 21.9235,36.6065 21.4645,36.9145 C21.3725,36.9775 21.2755,37.0325 21.1805,37.0915 C21.3565,36.8415 21.5235,36.5805 21.6855,36.3105 L22.0525,36.3105 C22.6045,36.3105 23.0515,35.8635 23.0515,35.3115 C23.0515,34.9705 22.8705,34.6845 22.6095,34.5045 C23.5465,32.3205 24.0975,29.7305 24.0975,26.9465 C24.0975,26.5065 24.0805,26.0735 24.0535,25.6435 L26.6965,25.6435 C26.7565,26.1905 27.2215,26.5885 27.7965,26.5285 C28.3445,26.4685 28.7425,25.9765 28.6825,25.4275 C28.6575,25.1905 28.6105,24.9615 28.5745,24.7285 C28.5765,24.6995 28.5905,24.6745 28.5905,24.6445 Z" id="Fill-9" fill="#083CC3" mask="url(#mask-2)"></path>
            </g>
            <g id="Group-14" transform="translate(183.000000, 14.082000)">
                <mask id="mask-4" fill="white">
                    <use xlink:href="#path-3"></use>
                </mask>
                <g id="Clip-13"></g>
                <path d="M15.4687,15.0625 C15.0737,15.3295 14.6047,15.4265 14.1347,15.3375 C13.6687,15.2485 13.2657,14.9825 12.9987,14.5895 C12.7327,14.1975 12.6347,13.7235 12.7237,13.2575 C12.8867,12.4065 13.6337,11.8125 14.4697,11.8125 C14.5797,11.8125 14.6917,11.8235 14.8037,11.8445 C15.7667,12.0295 16.4007,12.9625 16.2167,13.9255 C16.1267,14.3915 15.8617,14.7955 15.4687,15.0625 Z M11.5597,4.6315 L11.7407,3.6815 L17.9487,4.8695 L17.7677,5.8195 L11.5597,4.6315 Z M5.7807,18.7565 C5.3867,19.0235 4.9147,19.1215 4.4467,19.0315 C3.9807,18.9425 3.5767,18.6765 3.3107,18.2845 C3.0437,17.8915 2.9467,17.4175 3.0347,16.9515 C3.1977,16.1005 3.9457,15.5075 4.7807,15.5075 C4.8917,15.5075 5.0027,15.5175 5.1147,15.5395 C6.0777,15.7235 6.7117,16.6565 6.5287,17.6195 C6.4387,18.0855 6.1727,18.4905 5.7807,18.7565 Z M19.6477,2.6485 L10.9837,0.9905 C10.6567,0.9285 10.3217,0.9985 10.0457,1.1845 C9.7717,1.3705 9.5827,1.6585 9.5207,1.9835 L8.8687,5.3875 C8.8687,5.3885 8.8677,5.3885 8.8677,5.3895 L8.8677,5.3925 L7.2567,13.8105 C6.7707,13.4625 6.2097,13.2035 5.5847,13.0835 C3.2727,12.6415 1.0237,14.1655 0.5797,16.4815 C0.3647,17.6035 0.5997,18.7425 1.2407,19.6875 C1.8827,20.6335 2.8547,21.2725 3.9767,21.4875 C4.2477,21.5395 4.5207,21.5645 4.7897,21.5645 C5.6377,21.5645 6.4667,21.3125 7.1837,20.8255 C8.1297,20.1835 8.7687,19.2115 8.9837,18.0895 L11.0887,7.0875 L17.2977,8.2755 L16.9457,10.1165 C16.4587,9.7685 15.8987,9.5085 15.2737,9.3895 C12.9637,8.9465 10.7117,10.4705 10.2687,12.7875 C10.0537,13.9095 10.2877,15.0475 10.9297,15.9935 C11.5717,16.9395 12.5427,17.5785 13.6647,17.7925 C13.9367,17.8445 14.2087,17.8705 14.4787,17.8705 C15.3257,17.8705 16.1557,17.6175 16.8717,17.1305 C17.8187,16.4895 18.4567,15.5175 18.6717,14.3955 L20.6397,4.1115 C20.7697,3.4335 20.3247,2.7785 19.6477,2.6485 Z" id="Fill-12" fill="#083CC3" mask="url(#mask-4)"></path>
            </g>
            <path d="M137.79,35.1257 C137.676,35.8337 137.604,36.6097 137.604,37.4967 C137.604,38.4947 137.684,39.3697 137.829,40.1427 C137.684,39.3697 137.604,38.4947 137.604,37.4967 C137.604,36.6097 137.676,35.8337 137.79,35.1257" id="Fill-15" fill="#FFFFFF"></path>
            <path d="M141.1689,31.0197 C141.1119,31.0197 141.0629,31.0387 141.0069,31.0417 C141.0629,31.0387 141.1119,31.0197 141.1689,31.0197" id="Fill-17" fill="#FFFFFF"></path>
            <path d="M156.5088,51.9079 C156.5088,53.0379 155.5938,53.9529 154.4638,53.9529 C153.3348,53.9529 152.4188,53.0379 152.4188,51.9079 L152.4188,27.3629 C152.4188,26.2329 153.3348,25.3169 154.4638,25.3169 C155.5938,25.3169 156.5088,26.2329 156.5088,27.3629 L156.5088,51.9079 Z M148.0958,41.7429 C147.7128,43.0029 147.1918,44.0779 146.5298,44.9659 C145.8688,45.8539 145.0788,46.5359 144.1588,47.0119 C143.2388,47.4869 142.2428,47.7239 141.1688,47.7239 C140.0948,47.7239 139.0968,47.4869 138.1788,47.0119 C137.2588,46.5359 136.4678,45.8539 135.8078,44.9659 C135.1458,44.0779 134.6238,43.0029 134.2428,41.7429 C133.8598,40.4829 133.6688,39.0679 133.6688,37.4969 C133.6688,35.9269 133.8598,34.5169 134.2428,33.2669 C134.6238,32.0169 135.1458,30.9529 135.8078,30.0749 C136.4678,29.1969 137.2588,28.5199 138.1788,28.0449 C139.0968,27.5699 140.0948,27.3319 141.1688,27.3319 C142.2428,27.3319 143.2388,27.5699 144.1588,28.0449 C145.0788,28.5199 145.8688,29.1969 146.5298,30.0749 C147.1918,30.9529 147.7128,32.0169 148.0958,33.2669 C148.4778,34.5169 148.6688,35.9269 148.6688,37.4969 C148.6688,39.0679 148.4778,40.4829 148.0958,41.7429 Z M128.8028,51.9699 C128.8028,53.0139 127.9558,53.8599 126.9128,53.8599 L126.8508,53.8599 C125.8068,53.8599 124.9598,53.0139 124.9598,51.9699 L124.9598,27.2079 C124.9598,26.1629 125.8068,25.3169 126.8508,25.3169 L126.9128,25.3169 C127.9558,25.3169 128.8028,26.1629 128.8028,27.2079 L128.8028,51.9699 Z M122.9458,50.6679 C122.9458,51.7119 122.0988,52.5579 121.0558,52.5579 C120.0108,52.5579 119.1648,51.7119 119.1648,50.6679 L119.1648,38.3959 L118.0188,38.3959 C117.0938,38.3959 116.3448,37.6459 116.3448,36.7219 C116.3448,35.7979 117.0938,35.0489 118.0188,35.0489 L119.1648,35.0489 L119.1648,27.7349 C119.1648,26.6909 120.0108,25.8439 121.0558,25.8439 C122.0988,25.8439 122.9458,26.6909 122.9458,27.7349 L122.9458,50.6679 Z M115.9208,46.7439 C114.6598,46.9259 113.4428,47.0459 112.2688,47.1039 C110.6058,47.1869 108.8918,47.2279 107.1248,47.2279 L105.9898,47.2279 C105.5128,47.2279 105.1258,46.8409 105.1258,46.3639 L105.1258,36.7189 C105.1258,36.2409 105.5128,35.8539 105.9898,35.8539 L111.2308,35.8539 L111.2308,31.3919 L106.7218,31.3919 C105.8228,31.3919 105.0948,30.6629 105.0948,29.7639 C105.0948,28.8659 105.8228,28.1369 106.7218,28.1369 L114.3028,28.1369 C114.7798,28.1369 115.1668,28.5249 115.1668,29.0019 L115.1668,38.2129 C115.1668,38.6909 114.7798,39.0769 114.3028,39.0769 L109.0628,39.0769 L109.0628,43.8809 C110.4248,43.8399 111.7578,43.7729 113.0598,43.6789 C113.8488,43.6229 114.6628,43.5419 115.5058,43.4369 C116.4268,43.3219 117.2638,43.9929 117.3598,44.9169 C117.4518,45.8129 116.8128,46.6159 115.9208,46.7439 Z M102.4468,39.0619 C102.4468,39.8749 101.7878,40.5339 100.9758,40.5339 L78.1348,40.5339 C77.3208,40.5339 76.6628,39.8749 76.6628,39.0619 L76.6628,38.7829 C76.6628,37.9699 77.3208,37.3109 78.1348,37.3109 L100.9758,37.3109 C101.7878,37.3109 102.4468,37.9699 102.4468,38.7829 L102.4468,39.0619 Z M98.5888,53.6739 L80.5028,53.6739 C80.0248,53.6739 79.6378,53.2869 79.6378,52.8099 L79.6378,47.3179 C79.6378,46.8409 80.0248,46.4529 80.5028,46.4529 L95.2878,46.4529 L95.2878,45.0589 L81.0788,45.0589 C80.2658,45.0589 79.6068,44.3999 79.6068,43.5869 C79.6068,42.7739 80.2658,42.1149 81.0788,42.1149 L98.4518,42.1149 C98.9308,42.1149 99.3178,42.5019 99.3178,42.9789 L99.3178,48.3159 C99.3178,48.7929 98.9308,49.1799 98.4518,49.1799 L83.6968,49.1799 L83.6968,50.7299 L98.5888,50.7299 C99.4018,50.7299 100.0618,51.3889 100.0618,52.2019 C100.0618,53.0149 99.4018,53.6739 98.5888,53.6739 Z M78.9248,27.5949 C78.9248,26.7829 79.5828,26.1229 80.3968,26.1229 L98.6828,26.1229 C99.4948,26.1229 100.1548,26.7829 100.1548,27.5949 L100.1548,27.6879 C100.1548,28.5009 99.4948,29.1599 98.6828,29.1599 L96.5288,29.1599 L96.5288,32.8169 L98.4638,32.8169 C99.2778,32.8169 99.9368,33.4759 99.9368,34.2889 L99.9368,34.3829 C99.9368,35.1959 99.2778,35.8549 98.4638,35.8549 L80.5828,35.8549 C79.7698,35.8549 79.1108,35.1959 79.1108,34.3829 L79.1108,34.2889 C79.1108,33.4759 79.7698,32.8169 80.5828,32.8169 L82.5498,32.8169 L82.5498,29.1599 L80.3968,29.1599 C79.5828,29.1599 78.9248,28.5009 78.9248,27.6879 L78.9248,27.5949 Z M74.4078,52.5979 L74.3268,52.7559 C73.9948,53.4009 73.2698,53.7289 72.5578,53.5849 C70.8078,53.2319 69.2778,52.6929 67.9638,51.9699 C66.3538,51.0819 65.1138,49.9859 64.2448,48.6849 C63.3778,49.9859 62.1438,51.0819 60.5418,51.9699 C59.2398,52.6919 57.7098,53.2299 55.9508,53.5829 C55.2318,53.7279 54.4978,53.3889 54.1718,52.7309 L54.0988,52.5829 C53.6348,51.6449 54.1928,50.5499 55.2118,50.3139 C55.9248,50.1489 56.5808,49.9469 57.1798,49.7069 C58.3158,49.2529 59.2568,48.7159 59.9998,48.0959 C60.7438,47.4759 61.2958,46.8049 61.6568,46.0809 C61.8598,45.6779 62.0048,44.8919 62.0948,44.2789 C62.1668,43.7819 62.5938,43.4159 63.0968,43.4159 L65.3978,43.4159 C65.8978,43.4159 66.3248,43.7789 66.3988,44.2739 C66.4898,44.8889 66.6408,45.6769 66.8498,46.0809 C67.2208,46.8049 67.7838,47.4759 68.5378,48.0959 C69.2918,48.7159 70.2378,49.2529 71.3738,49.7069 C71.9628,49.9429 72.6088,50.1429 73.3078,50.3059 C74.3368,50.5459 74.8928,51.6589 74.4078,52.5979 Z M55.7998,42.0369 C54.9018,42.0479 53.9248,42.0529 52.8718,42.0529 L51.7838,42.0529 C51.3068,42.0529 50.9188,41.6649 50.9188,41.1879 L50.9188,33.9609 C50.9188,33.4829 51.3068,33.0959 51.7838,33.0959 L56.9928,33.0959 L56.9928,30.5239 L52.4848,30.5239 C51.6028,30.5239 50.8878,29.8089 50.8878,28.9279 C50.8878,28.0459 51.6028,27.3319 52.4848,27.3319 L60.0648,27.3319 C60.5418,27.3319 60.9288,27.7189 60.9288,28.1969 L60.9288,35.2059 C60.9288,35.6839 60.5418,36.0709 60.0648,36.0709 L54.8548,36.0709 L54.8548,38.8609 C56.3638,38.8399 57.7268,38.7829 58.9458,38.6899 C59.6598,38.6359 60.3878,38.5579 61.1298,38.4579 C62.0098,38.3389 62.8158,38.9699 62.9188,39.8529 L62.9208,39.8729 C63.0228,40.7429 62.3998,41.5319 61.5308,41.6469 C61.2618,41.6819 60.9938,41.7139 60.7278,41.7419 C59.9538,41.8249 59.1628,41.8929 58.3578,41.9439 C57.5508,41.9959 56.6988,42.0269 55.7998,42.0369 Z M61.9208,33.3279 C61.9208,32.4469 62.6358,31.7329 63.5168,31.7329 L64.4628,31.7329 L64.4628,27.4709 C64.4628,26.5899 65.1778,25.8749 66.0598,25.8749 L66.6478,25.8749 C67.5298,25.8749 68.2438,26.5899 68.2438,27.4709 L68.2438,40.7659 C68.2438,41.6479 67.5298,42.3629 66.6478,42.3629 L66.0598,42.3629 C65.1778,42.3629 64.4628,41.6479 64.4628,40.7659 L64.4628,35.0179 L63.5168,35.0179 C62.6358,35.0179 61.9208,34.3029 61.9208,33.4219 L61.9208,33.3279 Z M70.2278,26.9449 C70.2278,26.0629 70.9428,25.3479 71.8228,25.3479 L72.4738,25.3479 C73.3558,25.3479 74.0698,26.0629 74.0698,26.9449 L74.0698,43.1529 C74.0698,44.0339 73.3558,44.7489 72.4738,44.7489 L71.8228,44.7489 C70.9428,44.7489 70.2278,44.0339 70.2278,43.1529 L70.2278,26.9449 Z M154.4638,21.7409 C151.3998,21.7409 148.9008,24.2049 148.8438,27.2569 C147.9698,26.2629 146.9498,25.4619 145.8018,24.8669 C144.3718,24.1299 142.8148,23.7559 141.1688,23.7559 C139.5218,23.7559 137.9618,24.1299 136.5358,24.8669 C135.1408,25.5899 133.9348,26.6169 132.9498,27.9229 C132.7488,28.1909 132.5618,28.4739 132.3788,28.7649 L132.3788,27.2069 C132.3788,24.1929 129.9268,21.7409 126.9128,21.7409 L126.8508,21.7409 C125.6058,21.7409 124.4558,22.1589 123.5358,22.8639 C122.7908,22.4829 121.9468,22.2679 121.0558,22.2679 C119.0218,22.2679 117.2428,23.3859 116.3018,25.0369 C115.6998,24.7329 115.0218,24.5619 114.3028,24.5619 L106.7218,24.5619 C105.4458,24.5619 104.2918,25.0399 103.3868,25.8049 C102.6608,23.9059 100.8328,22.5469 98.6828,22.5469 L80.3968,22.5469 C78.9768,22.5469 77.6968,23.1399 76.7788,24.0869 C75.8518,22.6939 74.2698,21.7729 72.4738,21.7729 L71.8228,21.7729 C70.6888,21.7729 69.6388,22.1399 68.7848,22.7619 C68.1338,22.4639 67.4088,22.2989 66.6478,22.2989 L66.0588,22.2989 C64.4378,22.2989 62.9878,23.0489 62.0388,24.2199 C61.4448,23.9229 60.7738,23.7559 60.0648,23.7559 L52.4838,23.7559 C49.6318,23.7559 47.3118,26.0759 47.3118,28.9279 C47.3118,29.8939 47.5778,30.7989 48.0418,31.5729 C47.5998,32.2629 47.3438,33.0819 47.3438,33.9609 L47.3438,41.1879 C47.3438,43.6369 49.3348,45.6279 51.7838,45.6279 L52.8718,45.6279 C53.9408,45.6279 54.9308,45.6239 55.8418,45.6129 C56.3758,45.6069 56.9038,45.5939 57.4168,45.5729 C57.0008,45.8639 56.4768,46.1369 55.8528,46.3869 C55.4258,46.5579 54.9398,46.7069 54.4048,46.8309 C52.8358,47.1919 51.5398,48.2319 50.8538,49.6809 C50.1768,51.1129 50.1908,52.7489 50.8938,54.1689 L50.9658,54.3149 C51.8448,56.0909 53.6278,57.1929 55.6188,57.1929 C55.9658,57.1929 56.3158,57.1579 56.6558,57.0889 C58.7678,56.6639 60.6588,55.9939 62.2768,55.0979 C62.9838,54.7049 63.6418,54.2749 64.2488,53.8099 C64.8608,54.2769 65.5248,54.7079 66.2378,55.1019 C67.8638,55.9969 69.7518,56.6659 71.8488,57.0899 C72.1928,57.1589 72.5418,57.1939 72.8918,57.1939 C74.4558,57.1939 75.8918,56.4999 76.8628,55.3409 C77.6658,56.4919 78.9948,57.2499 80.5028,57.2499 L98.5888,57.2499 C101.3718,57.2499 103.6368,54.9859 103.6368,52.2019 C103.6368,51.1919 103.3328,50.2529 102.8198,49.4629 C103.6258,50.2879 104.7468,50.8039 105.9898,50.8039 L107.1248,50.8039 C108.9488,50.8039 110.7388,50.7609 112.4458,50.6759 C113.4628,50.6249 114.5168,50.5319 115.5888,50.3969 L115.5888,50.6679 C115.5888,53.6819 118.0408,56.1339 121.0558,56.1339 C121.7218,56.1339 122.3598,56.0139 122.9498,55.7959 C123.9428,56.8079 125.3248,57.4359 126.8508,57.4359 L126.9128,57.4359 C129.9268,57.4359 132.3788,54.9839 132.3788,51.9699 L132.3788,46.2679 C132.5578,46.5549 132.7408,46.8369 132.9388,47.1009 C133.9248,48.4259 135.1358,49.4639 136.5368,50.1879 C137.9598,50.9249 139.5198,51.2999 141.1688,51.2999 C142.8158,51.2999 144.3738,50.9249 145.8018,50.1879 C146.9488,49.5949 147.9698,48.7899 148.8428,47.7899 L148.8428,51.9079 C148.8428,55.0079 151.3638,57.5299 154.4638,57.5299 C157.5638,57.5299 160.0848,55.0079 160.0848,51.9079 L160.0848,27.3619 C160.0848,24.2629 157.5638,21.7409 154.4638,21.7409 Z" id="Fill-19" fill="#FFFFFF"></path>
            <path d="M143.7412,42.3579 C143.0802,43.4639 142.2212,44.0159 141.1692,44.0159 C140.1152,44.0159 139.2572,43.4639 138.5962,42.3579 C137.9342,41.2539 137.6042,39.6359 137.6042,37.5079 C137.6042,35.3799 137.9342,33.7689 138.5962,32.6729 C139.2572,31.5789 140.1152,31.0309 141.1692,31.0309 C142.2212,31.0309 143.0802,31.5789 143.7412,32.6729 C144.4022,33.7689 144.7332,35.3799 144.7332,37.5079 C144.7332,39.6359 144.4022,41.2539 143.7412,42.3579" id="Fill-21" fill="#FFFFFF"></path>
            <mask id="mask-6" fill="white">
                <use xlink:href="#path-5"></use>
            </mask>
            <g id="Clip-24"></g>
            <polygon id="Fill-23" fill="#FFFFFF" mask="url(#mask-6)" points="86.611 32.817 92.468 32.817 92.468 29.16 86.611 29.16"></polygon>
        </g>
    </g>
</svg>