<?xml version="1.0" encoding="UTF-8"?>
<svg width="214px" height="120px" viewBox="0 0 214 120" version="1.1" xmlns="http://www.w3.org/2000/svg" xmlns:xlink="http://www.w3.org/1999/xlink">
    <!-- Generator: Sketch 45.2 (43514) - http://www.bohemiancoding.com/sketch -->
    <title>logo_login</title>
    <desc>Created with Sketch.</desc>
    <defs>
        <polygon id="path-1" points="79.8701176 22.3529412 0.463058824 22.3529412 0.463058824 0.184941176 79.8701176 0.184941176 79.8701176 22.3529412"></polygon>
    </defs>
    <g id="Symbols" stroke="none" stroke-width="1" fill="none" fill-rule="evenodd">
        <g id="logo_login">
            <g id="Page-1-Copy" transform="translate(37.000000, 11.000000)">
                <path d="M108.879882,8.70952941 C108.159882,6.54364706 105.816353,5.36717647 103.654,6.086 L79.7810588,14.0024706 C78.7316471,14.3495294 77.8810588,15.0848235 77.3857647,16.0730588 C76.8904706,17.0612941 76.8081176,18.1824706 77.1563529,19.2295294 C77.7222353,20.9307059 79.2951765,22.0648235 81.0810588,22.0648235 L81.1234118,22.0648235 L81.1257647,22.0648235 C81.5551765,22.0601176 81.9787059,21.9871765 82.3822353,21.8530588 L106.256353,13.9365882 C108.418706,13.2189412 109.596353,10.8742353 108.879882,8.70952941" id="Fill-1" fill="#F87F78"></path>
                <path d="M43.6258824,67.4089412 C43.2776471,66.3607059 42.5435294,65.5101176 41.5588235,65.0148235 C40.5717647,64.5171765 39.4494118,64.4371765 38.4011765,64.7854118 L14.5282353,72.7018824 C13.48,73.0489412 12.6282353,73.7842353 12.1329412,74.7724706 C11.6376471,75.7595294 11.5552941,76.8807059 11.9023529,77.9277647 C12.4694118,79.6289412 14.0423529,80.7642353 15.8270588,80.7642353 L15.8694118,80.7642353 L15.8717647,80.7642353 C16.3011765,80.7595294 16.7258824,80.6865882 17.1294118,80.5524706 L41.0035294,72.636 C42.0505882,72.2877647 42.9011765,71.5524706 43.3964706,70.5665882 C43.8929412,69.5783529 43.9741176,68.4571765 43.6258824,67.4089412" id="Fill-3" fill="#4CF1FD"></path>
                <path d="M4.00505882,76.0244706 C1.79682353,76.0244706 0.000352941176,77.8209412 0.000352941176,80.0291765 C0.000352941176,82.2374118 1.79682353,84.0350588 4.00505882,84.0350588 C6.21329412,84.0350588 8.00976471,82.2374118 8.00976471,80.0291765 C8.00976471,77.8209412 6.21329412,76.0244706 4.00505882,76.0244706" id="Fill-5" fill="#4CF1FD"></path>
                <path d="M137.187529,26.8563529 C136.858118,23.8987059 135.329882,21.2822353 132.871059,19.5422353 C131.086353,18.2869412 128.968706,17.6222353 126.745176,17.6222353 C125.684,17.6222353 124.615765,17.7751765 123.602824,18.0692941 C122.981647,18.2469412 122.372235,18.4810588 121.752235,18.7834118 C119.926353,19.5963529 118.367529,20.8798824 117.219294,22.4975294 C114.962824,21.5010588 112.349882,21.3116471 109.792235,22.0398824 C107.092235,22.8151765 104.791059,24.5445882 103.238118,26.7692941 C99.6663529,25.4822353 95.5181176,25.4116471 91.4498824,26.5869412 C89.6051765,27.1163529 87.8463529,27.8763529 86.1945882,28.8128235 C85.7510588,26.1198824 84.3110588,23.7469412 82.0663529,22.1257647 C82.2604706,21.3045882 82.3804706,20.4645882 82.3804706,19.6116471 C82.3804706,16.1598824 80.7887059,13.0551765 77.9934118,11.0775294 C77.6369412,10.8269412 77.2675294,10.5998824 76.8863529,10.3975294 C76.8722353,6.96341176 75.2816471,3.87635294 72.5087059,1.91517647 C69.8734118,0.0575294118 66.4134118,-0.478941176 63.2263529,0.441058824 C58.2004706,1.88341176 54.5534118,6.634 54.5534118,11.734 L54.5534118,14.2269412 C54.5322353,14.2387059 54.5145882,14.2563529 54.4934118,14.2704706 C52.4028235,13.4351765 50.0992941,12.9998824 47.6757647,12.9998824 C45.724,12.9998824 43.7522353,13.2822353 41.8157647,13.8398824 C34.0534118,16.0692941 27.7616471,22.2704706 25.2087059,29.5198824 L25.2087059,23.4881176 C25.2087059,20.0210588 23.6098824,16.9022353 20.8181176,14.9292941 C19.0357647,13.6716471 16.9157647,13.0045882 14.6675294,12.9998824 C13.6181176,12.9998824 12.564,13.1504706 11.5487059,13.4434118 C6.49576471,14.8928235 2.82870588,19.6669412 2.82870588,24.7928235 L2.82870588,50.6081176 C2.82870588,54.0869412 4.42870588,57.2128235 7.20635294,59.1716471 C8.98517647,60.4328235 11.104,61.0987059 13.3322353,61.0987059 C14.4004706,61.0987059 15.4828235,60.9445882 16.5416471,60.6387059 L32.2863529,56.1116471 C33.9334118,55.6387059 35.4298824,54.8081176 36.7028235,53.7328235 C36.2887059,55.3798824 36.0522353,57.0645882 36.0522353,58.7598824 L36.0522353,78.1010588 C36.0522353,81.5092941 37.6922353,84.6987059 40.4275294,86.6245882 C42.2122353,87.8845882 44.3322353,88.5504706 46.5604706,88.5504706 C47.6145882,88.5504706 48.6769412,88.3998824 49.7157647,88.1010588 C54.7404706,86.6563529 58.3875294,81.9069412 58.3875294,76.8081176 L58.3875294,74.9410588 C58.5381176,74.9010588 58.6898824,74.8587059 58.8416471,74.8151765 C62.6898824,73.7081176 66.1781176,71.6245882 69.0287059,68.9234118 C70.6781176,69.9222353 72.5557647,70.4763529 74.5322353,70.4763529 C75.5851765,70.4763529 76.6428235,70.3257647 77.6804706,70.0281176 C80.4675294,69.2281176 82.8275294,67.4045882 84.3804706,65.0657647 C88.0263529,66.3222353 92.2145882,66.4081176 96.3957647,65.2045882 C96.9298824,65.0516471 97.4522353,64.8834118 97.9616471,64.7022353 C102.211059,68.8916471 107.999294,71.3575294 114.221647,71.3575294 C126.998118,71.3575294 137.392235,60.9634118 137.392235,48.1869412 L137.392235,28.934 C137.392235,28.2469412 137.322824,27.5516471 137.187529,26.8563529" id="Fill-7" fill="#0A1853"></path>
                <path d="M38.9269412,31.9149412 C40.0822353,29.7161176 42.1998824,27.9314118 44.4869412,27.2749412 C45.1481176,27.0843529 45.8363529,26.9831765 46.4775294,26.9831765 C47.6363529,26.9831765 49.1398824,27.2984706 49.9469412,28.7467059 L38.9269412,31.9149412 Z M55.9081176,26.7443529 C55.6916471,26.0996471 55.4928235,25.5714118 55.1034118,24.9631765 C54.5834118,24.1114118 53.9069412,23.382 53.0787059,22.7972941 C51.6328235,21.7749412 49.7645882,21.2349412 47.6763529,21.2349412 C46.4951765,21.2349412 45.2881176,21.4090588 44.0904706,21.7537647 C37.5375294,23.6372941 32.2081176,30.2467059 32.2081176,36.4890588 C32.2081176,39.502 33.4304706,42.0255294 35.6516471,43.5925882 C37.1328235,44.6372941 38.9716471,45.1902353 40.9704706,45.1902353 C42.1045882,45.1902353 43.2881176,45.0161176 44.4869412,44.6714118 L44.5951765,44.6396471 C46.3328235,44.142 48.7069412,43.4596471 51.754,40.6514118 C52.9022353,39.6102353 53.7222353,37.9808235 52.9645882,36.6937647 C52.6034118,36.1137647 51.9845882,35.7302353 51.2634118,35.6349412 C51.1481176,35.6184706 51.0304706,35.6114118 50.9128235,35.6114118 C50.1975294,35.6114118 49.4645882,35.9055294 48.9010588,36.4149412 C46.9504706,38.1737647 45.3057647,38.802 44.0904706,39.1502353 C43.4657647,39.3302353 42.8551765,39.4208235 42.274,39.4208235 C40.7269412,39.4208235 39.4516471,38.7655294 38.7175294,37.6102353 L53.6116471,33.3278824 C55.1575294,32.8831765 56.3681176,31.3949412 56.3681176,29.9361176 C56.3681176,28.7749412 56.2104706,27.7078824 55.9081176,26.7443529 L55.9081176,26.7443529 Z" id="Fill-9" fill="#FFFFFF"></path>
                <path d="M56.1718824,61.3783529 C55.546,61.5571765 54.9330588,61.6477647 54.3518824,61.6477647 C53.3612941,61.6477647 52.4954118,61.3924706 51.7789412,60.8854118 C50.7295294,60.1454118 50.1518824,58.9312941 50.1518824,57.4677647 L50.1518824,57.4242353 C50.1518824,54.0724706 53.0295294,50.5195294 56.5671765,49.5007059 C57.1824706,49.3242353 57.786,49.2348235 58.3589412,49.2348235 C59.3354118,49.2348235 60.2271765,49.4995294 60.9377647,50.0007059 C62.0001176,50.7512941 62.5848235,51.9783529 62.5848235,53.456 C62.5848235,56.8077647 59.7083529,60.3618824 56.1718824,61.3783529 M65.0048235,45.0595294 C63.5236471,44.0148235 61.6848235,43.4618824 59.686,43.4618824 C58.5518824,43.4618824 57.3707059,43.6371765 56.1718824,43.9807059 C49.6189412,45.8642353 44.2871765,52.4936471 44.2871765,58.7583529 L44.2871765,78.0995294 C44.2871765,78.8536471 44.6036471,79.4912941 45.1777647,79.896 C45.5648235,80.1701176 46.0436471,80.3148235 46.5601176,80.3148235 C46.8448235,80.3148235 47.1412941,80.2712941 47.4412941,80.1854118 C48.9365882,79.7548235 50.1518824,78.2395294 50.1518824,76.8065882 L50.1518824,67.0042353 C51.0530588,67.276 52.0271765,67.4136471 53.0518824,67.4136471 C54.1989412,67.4136471 55.3824706,67.2395294 56.5671765,66.8983529 C63.1177647,65.016 68.4483529,58.4065882 68.4483529,52.1642353 C68.4483529,49.1501176 67.226,46.6277647 65.0048235,45.0595294" id="Fill-11" fill="#FFFFFF"></path>
                <path d="M93.7247059,51.8115294 C93.0647059,52.0009412 92.4141176,52.0974118 91.7894118,52.0974118 C90.7576471,52.0974118 89.8341176,51.8327059 89.1223529,51.3291765 C88.1223529,50.6232941 87.5729412,49.4656471 87.5729412,48.068 C87.5729412,44.7044706 90.5705882,40.9997647 94.1211765,39.9774118 C94.7011765,39.8103529 95.2717647,39.7256471 95.8164706,39.7256471 C96.74,39.7256471 97.5835294,39.9762353 98.2564706,40.4515294 C99.3529412,41.2256471 99.9576471,42.5256471 99.9576471,44.1138824 C99.9576471,47.4797647 97.2788235,50.7903529 93.7247059,51.8115294 M129.018824,28.0962353 L129.018824,28.0727059 C129.018824,27.3197647 128.702353,26.6821176 128.129412,26.2762353 C127.741176,26.0021176 127.262353,25.8574118 126.744706,25.8574118 C126.457647,25.8574118 126.162353,25.9021176 125.864706,25.988 C125.64,26.0515294 125.425882,26.148 125.217647,26.2562353 C124.548235,26.5221176 124.008235,27.0303529 123.695294,27.6715294 C123.36,28.1997647 123.156471,28.788 123.156471,29.3656471 L123.156471,40.0715294 C123.156471,42.2562353 121.276471,44.5750588 118.965882,45.2385882 C118.582353,45.3503529 118.202353,45.4068235 117.834118,45.4068235 C117.205882,45.4068235 116.64,45.2409412 116.195294,44.9268235 C115.535294,44.4609412 115.170588,43.6915294 115.170588,42.7609412 L115.170588,32.0538824 C115.170588,31.2974118 114.852941,30.6550588 114.276471,30.2468235 C113.894118,29.9762353 113.417647,29.8338824 112.901176,29.8338824 C112.625882,29.8338824 112.344706,29.8750588 112.065882,29.9550588 C110.569412,30.3844706 109.352941,31.8997647 109.352941,33.3327059 L109.352941,44.128 C109.377647,46.5538824 110.382353,48.5832941 112.184706,49.8444706 C113.394118,50.6891765 114.890588,51.1362353 116.514118,51.1362353 C117.434118,51.1362353 118.392941,50.9950588 119.361176,50.7162353 C120.678824,50.3374118 121.978824,49.7162353 123.156471,48.9044706 L123.156471,50.2232941 C122.618824,52.5832941 121.170588,54.5962353 119.198824,55.8774118 C119.044706,55.9374118 118.896471,56.008 118.737647,56.0538824 C118.685882,56.068 118.567059,56.1703529 118.405882,56.3374118 C117.150588,56.9844706 115.729412,57.3574118 114.221176,57.3574118 C110.397647,57.3574118 107.115294,55.0021176 105.741176,51.6691765 C105.756471,51.5444706 105.775294,51.4221176 105.775294,51.2974118 L105.775294,42.8350588 C105.775294,39.6691765 104.552941,37.0621176 102.332941,35.4962353 C100.927059,34.5032941 99.1635294,33.9785882 97.2341176,33.9785882 C96.1070588,33.9785882 94.9258824,34.1538824 93.7247059,34.4997647 C87.0117647,36.4291765 81.7529412,42.9515294 81.7529412,49.3468235 C81.7529412,52.3221176 82.9247059,54.7868235 85.0541176,56.2903529 C86.5,57.3115294 88.3305882,57.8515294 90.3482353,57.8515294 C91.5552941,57.8515294 92.8247059,57.6621176 94.1211765,57.2891765 C96.6035294,56.5750588 98.5929412,55.4703529 100.342353,53.828 C100.367059,53.8609412 100.405882,53.8844706 100.431765,53.9174118 C102.683529,59.3162353 108.014118,63.1221176 114.221176,63.1221176 C122.456471,63.1221176 129.156471,56.4221176 129.156471,48.1868235 L129.156471,28.9338824 C129.156471,28.6409412 129.1,28.3621176 129.018824,28.0962353" id="Fill-13" fill="#FFFFFF"></path>
                <path d="M30.0149412,48.1958824 L14.2655294,52.7241176 C13.9431765,52.8158824 13.6290588,52.8629412 13.3314118,52.8629412 C12.8114118,52.8629412 12.3514118,52.7252941 11.9655294,52.4511765 C11.3843529,52.0417647 11.0643529,51.3864706 11.0643529,50.6076471 L11.0643529,24.7911765 C11.0643529,23.3111765 12.2749412,21.8017647 13.8196471,21.3582353 C14.1031765,21.2758824 14.3878824,21.2347059 14.6678824,21.2347059 C15.1925882,21.2347059 15.6772941,21.3805882 16.0690588,21.6570588 C16.6525882,22.07 16.9737647,22.7194118 16.9737647,23.4864706 L16.9737647,46.2664706 L29.6196471,42.6323529 C29.902,42.55 30.1867059,42.51 30.4655294,42.51 C30.9914118,42.51 31.4761176,42.6558824 31.8667059,42.9311765 C32.4514118,43.3429412 32.7725882,43.9935294 32.7725882,44.7605882 C32.7725882,46.2170588 31.5361176,47.7582353 30.0149412,48.1958824" id="Fill-15" fill="#FFFFFF"></path>
                <path d="M68.6511765,23.8324706 L68.6511765,37.2948235 C68.6511765,38.7524706 67.4147059,40.2924706 65.8947059,40.7289412 C65.6241176,40.8077647 65.3488235,40.8465882 65.0805882,40.8465882 C64.5652941,40.8465882 64.09,40.7030588 63.7041176,40.4289412 C63.1217647,40.0195294 62.7888235,39.3477647 62.7888235,38.5877647 L62.7888235,25.5183529 L60.4029412,26.2042353 C60.1335294,26.2830588 59.8582353,26.3230588 59.59,26.3230588 C59.0758824,26.3230588 58.5994118,26.1783529 58.21,25.9054118 C58.0805882,25.8136471 57.9664706,25.7030588 57.8617647,25.5865882 C57.5923529,25.2265882 57.4335294,24.9077647 57.3323529,24.4030588 C57.3158824,24.2901176 57.2947059,24.1795294 57.2947059,24.0607059 C57.2947059,22.6289412 58.51,21.1124706 60.0052941,20.6842353 L62.7888235,19.8842353 L62.7888235,11.7336471 C62.7888235,10.2995294 64.0041176,8.78423529 65.4994118,8.35482353 C65.7982353,8.26894118 66.0947059,8.22541176 66.3805882,8.22541176 C66.8994118,8.22541176 67.3758824,8.37011765 67.7617647,8.64423529 C68.3347059,9.05011765 68.6511765,9.68776471 68.6511765,10.4407059 L68.6511765,18.1983529 L70.9935294,17.5254118 C71.2935294,17.4395294 71.59,17.396 71.8747059,17.396 C72.3911765,17.396 72.8688235,17.5395294 73.2558824,17.8136471 C73.8288235,18.2195294 74.1452941,18.8571765 74.1452941,19.6112941 C74.1452941,21.0677647 72.9088235,22.6077647 71.3888235,23.0454118 L68.6511765,23.8324706 Z" id="Fill-17" fill="#FFFFFF"></path>
                <path d="M78.1215294,58.6910588 C78.1215294,60.1722353 76.9297647,61.6745882 75.4085882,62.1110588 C75.1121176,62.1969412 74.8168235,62.2404706 74.5321176,62.2404706 C74.0191765,62.2404706 73.5438824,62.0969412 73.1591765,61.8251765 C72.578,61.4145882 72.258,60.7604706 72.258,59.9828235 L72.258,31.8781176 C72.258,30.4228235 73.4685882,28.9322353 75.0121176,28.4875294 C75.2921176,28.4063529 75.5744706,28.3663529 75.8497647,28.3663529 C76.3662353,28.3663529 76.8415294,28.5087059 77.2262353,28.7804706 C77.8027059,29.1875294 78.1215294,29.8287059 78.1215294,30.5863529 L78.1215294,58.6910588 Z" id="Fill-19" fill="#FFFFFF"></path>
                <g id="Group-23" transform="translate(60.000000, 74.837176)">
                    <mask id="mask-2" fill="white">
                        <use xlink:href="#path-1"></use>
                    </mask>
                    <g id="Clip-22"></g>
                    <path d="M79.6277647,12.3167059 C79.6407059,12.1684706 79.6465882,12.0190588 79.6465882,11.8684706 L79.6465882,5.71552941 C79.6465882,4.31435294 79.1136471,2.99082353 78.1324706,1.97317647 C77.1218824,0.933176471 75.7618824,0.360235294 74.3042353,0.360235294 C72.8442353,0.360235294 71.4842353,0.933176471 70.4583529,1.98847059 C70.4112941,2.03670588 70.3795294,2.09435294 70.3348235,2.14494118 C69.4277647,1.48258824 68.3430588,1.10964706 67.1901176,1.10964706 C65.756,1.10964706 64.4136471,1.66023529 63.4136471,2.66258824 C63.1889412,2.88494118 62.996,3.12964706 62.8195294,3.38376471 C62.2948235,3.48964706 61.7901176,3.66258824 61.3254118,3.91317647 C60.5501176,3.49317647 59.676,3.26964706 58.7642353,3.26964706 C57.9536471,3.26964706 57.1818824,3.46376471 56.4736471,3.79788235 C54.1842353,2.91670588 51.4795294,3.07670588 49.3395294,4.28141176 C48.8018824,4.58376471 48.3230588,4.94964706 47.8830588,5.35317647 C47.4465882,4.952 46.9736471,4.58964706 46.4442353,4.28964706 C44.0112941,2.90729412 40.8418824,2.89317647 38.3783529,4.22258824 C35.9265882,2.89317647 32.7642353,2.91082353 30.3301176,4.28141176 C29.9865882,4.47435294 29.6642353,4.692 29.3607059,4.92729412 C28.8148235,4.48964706 28.2042353,4.11905882 27.5207059,3.84141176 C26.6524706,3.48729412 25.6901176,3.28964706 24.7101176,3.24611765 C24.5912941,3.00494118 24.4595294,2.76847059 24.3077647,2.54611765 C23.2771765,1.04611765 21.6477647,0.184941176 19.8348235,0.184941176 C18.7265882,0.184941176 17.6701176,0.522588235 16.7642353,1.13905882 C16.6595294,1.132 16.5583529,1.10964706 16.4524706,1.10964706 C15.0183529,1.10964706 13.676,1.66023529 12.676,2.66258824 C12.4818824,2.85670588 12.3054118,3.06494118 12.1465882,3.28258824 C11.8701176,3.25670588 11.596,3.23082353 11.3112941,3.23082353 C11.0454118,3.23082353 10.7854118,3.25670588 10.5277647,3.27905882 C10.2748235,2.78258824 9.96423529,2.30964706 9.55364706,1.89670588 C8.55364706,0.906117647 7.21835294,0.360235294 5.79364706,0.360235294 C4.35952941,0.360235294 3.01835294,0.912 2.01717647,1.91317647 C1.01482353,2.91552941 0.463058824,4.25552941 0.463058824,5.68964706 L0.463058824,12.5049412 C0.463058824,13.612 0.681882353,14.6602353 1.10776471,15.6108235 C1.61717647,16.7578824 2.42070588,17.7284706 3.42776471,18.4131765 C4.49364706,19.1378824 5.74305882,19.5202353 7.06658824,19.5202353 C7.73835294,19.5202353 8.38188235,19.4037647 8.98776471,19.1943529 C9.78658824,19.4343529 10.6218824,19.5696471 11.4983529,19.5696471 C12.3912941,19.5696471 13.2995294,19.4155294 14.2018824,19.1131765 C14.4724706,19.0214118 14.7171765,18.8967059 14.9712941,18.7837647 C15.916,19.2578824 16.956,19.5202353 18.0254118,19.5202353 L18.2489412,19.5202353 C19.1736471,19.5202353 20.0418824,19.2943529 20.8277647,18.8814118 C20.9607059,18.9343529 21.0865882,18.9955294 21.2242353,19.0437647 C21.2254118,19.0437647 21.2265882,19.0437647 21.2277647,19.0449412 C22.2254118,19.3931765 23.2854118,19.5696471 24.3783529,19.5696471 C25.5430588,19.5696471 26.6195294,19.3578824 27.5830588,18.9578824 C27.6383529,19.0355294 27.6818824,19.1190588 27.7407059,19.1955294 C28.5524706,20.2214118 29.5689412,21.0178824 30.7665882,21.5696471 C31.9007059,22.0908235 33.1230588,22.3531765 34.4007059,22.3531765 C35.9136471,22.3531765 37.3195294,21.9767059 38.5865882,21.2308235 C39.4124706,20.7414118 40.1112941,20.1202353 40.6995294,19.3978824 C41.2348235,19.5002353 41.7830588,19.5696471 42.3512941,19.5696471 C43.8383529,19.5696471 45.2183529,19.2143529 46.4524706,18.5155294 C46.9807059,18.2143529 47.4524706,17.8508235 47.8877647,17.452 C48.3277647,17.8543529 48.8042353,18.2190588 49.3395294,18.5202353 C49.3407059,18.5214118 49.3418824,18.5225882 49.3430588,18.5225882 C50.5783529,19.2178824 51.9548235,19.5696471 53.4348235,19.5696471 C54.836,19.5696471 56.1371765,19.2425882 57.316,18.6202353 C57.3207059,18.6237647 57.3254118,18.6272941 57.3312941,18.6308235 C58.4854118,19.2625882 59.7654118,19.5825882 61.1348235,19.5825882 C61.7018824,19.5825882 62.2571765,19.5249412 62.7971765,19.4096471 C63.1536471,19.4825882 63.5207059,19.5202353 63.8936471,19.5202353 C64.7101176,19.5202353 65.4854118,19.3296471 66.1842353,19.0037647 C66.9983529,19.3367059 67.8701176,19.5202353 68.7630588,19.5202353 L68.9865882,19.5202353 C69.9512941,19.5202353 70.8595294,19.2814118 71.6712941,18.8308235 C72.476,19.2661176 73.3677647,19.5202353 74.3042353,19.5202353 C75.7618824,19.5202353 77.1430588,18.9590588 78.2030588,17.9272941 C79.2783529,16.8731765 79.8701176,15.4614118 79.8701176,13.9531765 C79.8701176,13.3896471 79.7877647,12.8390588 79.6277647,12.3167059" id="Fill-21" fill="#0A1953" mask="url(#mask-2)"></path>
                </g>
                <path d="M66.0742353,89.3585882 C65.7871765,89.1632941 65.5636471,88.8891765 65.4071765,88.5350588 C65.2483529,88.1809412 65.1683529,87.7832941 65.1683529,87.3421176 L65.1683529,80.5268235 C65.1683529,80.3444706 65.2271765,80.1950588 65.3448235,80.0774118 C65.4612941,79.9621176 65.6095294,79.9032941 65.7942353,79.9032941 C65.9765882,79.9032941 66.126,79.9621176 66.2436471,80.0774118 C66.3589412,80.1950588 66.4177647,80.3444706 66.4177647,80.5268235 L66.4177647,87.3421176 C66.4177647,87.6503529 66.4754118,87.9044706 66.5918824,88.1044706 C66.7083529,88.3044706 66.8589412,88.4032941 67.0412941,88.4032941 L67.3542353,88.4032941 C67.5201176,88.4032941 67.6554118,88.4609412 67.7601176,88.5785882 C67.8636471,88.6950588 67.9154118,88.8444706 67.9154118,89.028 C67.9154118,89.2103529 67.8365882,89.3609412 67.6777647,89.4774118 C67.5201176,89.5927059 67.3165882,89.6515294 67.0671765,89.6515294 L67.0412941,89.6515294 C66.6848235,89.6515294 66.3612941,89.5538824 66.0742353,89.3585882" id="Fill-24" fill="#FFFFFF"></path>
                <path d="M69.8310588,84.3471765 C69.4534118,84.6801176 69.2145882,85.1248235 69.1145882,85.6824706 L73.2710588,85.6824706 C73.1945882,85.1248235 72.9875294,84.6801176 72.6463529,84.3471765 C72.3051765,84.0142353 71.8604706,83.8471765 71.3110588,83.8471765 C70.7028235,83.8471765 70.2098824,84.0142353 69.8310588,84.3471765 M74.2569412,86.526 C74.1487059,86.6283529 74.0110588,86.6801176 73.844,86.6801176 L69.1016471,86.6801176 C69.1934118,87.2636471 69.4581176,87.7342353 69.8945882,88.0918824 C70.3310588,88.4483529 70.8651765,88.6283529 71.4981176,88.6283529 C71.7475294,88.6283529 72.0075294,88.5824706 72.2781176,88.4907059 C72.5487059,88.3989412 72.7710588,88.2871765 72.9451765,88.1530588 C73.0616471,88.0624706 73.1992941,88.0165882 73.3581176,88.0165882 C73.5157647,88.0165882 73.6404706,88.0577647 73.7310588,88.1412941 C73.8816471,88.266 73.9569412,88.4071765 73.9569412,88.566 C73.9569412,88.7154118 73.8898824,88.8401176 73.7569412,88.9401176 C73.4745882,89.1648235 73.1228235,89.3483529 72.7016471,89.4895294 C72.2816471,89.6307059 71.8804706,89.7012941 71.4981176,89.7012941 C70.8157647,89.7012941 70.204,89.5542353 69.6628235,89.2589412 C69.1216471,88.9636471 68.6992941,88.5530588 68.3957647,88.0295294 C68.0922353,87.5048235 67.9416471,86.9107059 67.9416471,86.2436471 C67.9416471,85.5789412 68.0851765,84.9812941 68.3710588,84.4530588 C68.6581176,83.9248235 69.0581176,83.5130588 69.5687059,83.2177647 C70.0816471,82.9224706 70.6616471,82.7742353 71.3110588,82.7742353 C71.9510588,82.7742353 72.504,82.9154118 72.9710588,83.1977647 C73.4357647,83.4824706 73.7945882,83.8777647 74.044,84.3836471 C74.2934118,84.8918824 74.4181176,85.4742353 74.4181176,86.1318824 C74.4181176,86.2895294 74.3651765,86.4212941 74.2569412,86.526" id="Fill-26" fill="#FFFFFF"></path>
                <path d="M78.8292941,88.5784706 C78.934,88.6949412 78.9857647,88.8455294 78.9857647,89.0278824 C78.9857647,89.2102353 78.9163529,89.3608235 78.7798824,89.4772941 C78.6422353,89.5925882 78.4657647,89.6514118 78.2492941,89.6514118 L78.0245882,89.6514118 C77.6175294,89.6514118 77.2445882,89.5455294 76.9069412,89.3337647 C76.5704706,89.1208235 76.3057647,88.8325882 76.1151765,88.4655294 C75.9234118,88.0996471 75.8281176,87.6878824 75.8281176,87.2302353 L75.8281176,84.1467059 L75.254,84.1467059 C75.0787059,84.1467059 74.9375294,84.0972941 74.8304706,83.9972941 C74.7210588,83.8972941 74.6669412,83.7725882 74.6669412,83.6231765 C74.6669412,83.4561176 74.7210588,83.3231765 74.8304706,83.2231765 C74.9375294,83.1231765 75.0787059,83.0737647 75.254,83.0737647 L75.8281176,83.0737647 L75.8281176,81.2761176 C75.8281176,81.0937647 75.8857647,80.9443529 76.0034118,80.8267059 C76.1187059,80.7102353 76.2681176,80.6525882 76.4516471,80.6525882 C76.6351765,80.6525882 76.7845882,80.7102353 76.9010588,80.8267059 C77.0175294,80.9443529 77.0763529,81.0937647 77.0763529,81.2761176 L77.0763529,83.0737647 L78.1363529,83.0737647 C78.3128235,83.0737647 78.454,83.1231765 78.5610588,83.2231765 C78.6692941,83.3231765 78.7234118,83.4561176 78.7234118,83.6231765 C78.7234118,83.7725882 78.6692941,83.8972941 78.5610588,83.9972941 C78.454,84.0972941 78.3128235,84.1467059 78.1363529,84.1467059 L77.0763529,84.1467059 L77.0763529,87.2302353 C77.0763529,87.5631765 77.1681176,87.842 77.3504706,88.0655294 C77.5328235,88.2914118 77.7587059,88.4043529 78.0245882,88.4043529 L78.4492941,88.4043529 C78.5987059,88.4043529 78.7257647,88.4608235 78.8292941,88.5784706" id="Fill-28" fill="#FFFFFF"></path>
                <path d="M80.4274118,80.0468235 C80.5732941,80.2597647 80.6462353,80.5315294 80.6462353,80.8644706 C80.6462353,81.148 80.5685882,81.4915294 80.4144706,81.8938824 C80.2603529,82.2974118 80.078,82.648 79.8650588,82.9432941 C79.6544706,83.2385882 79.4603529,83.3856471 79.2850588,83.3856471 C79.178,83.3856471 79.0897647,83.3491765 79.0238824,83.2727059 C78.9568235,83.1985882 78.9238824,83.108 78.9238824,82.9985882 C78.9238824,82.9409412 78.9356471,82.8821176 78.9615294,82.8232941 C79.1603529,82.3668235 79.2603529,81.9832941 79.2603529,81.6762353 C79.2603529,81.5174118 79.2262353,81.3138824 79.1603529,81.0644706 C79.1027059,80.7903529 79.0732941,80.5938824 79.0732941,80.4774118 C79.0732941,80.2691765 79.1485882,80.0927059 79.298,79.9468235 C79.4474118,79.8021176 79.6262353,79.728 79.8344706,79.728 C80.0838824,79.728 80.2815294,79.8338824 80.4274118,80.0468235" id="Fill-30" fill="#FFFFFF"></path>
                <path d="M82.7803529,89.4390588 C82.2815294,89.2649412 81.8897647,89.0355294 81.6074118,88.7531765 C81.4991765,88.6449412 81.4450588,88.5155294 81.4450588,88.3661176 C81.4450588,88.1661176 81.5285882,88.0037647 81.6944706,87.8790588 C81.8521176,87.7625882 81.998,87.7037647 82.1309412,87.7037647 C82.298,87.7037647 82.4568235,87.7790588 82.6062353,87.9296471 C82.7638824,88.1037647 83.0003529,88.2555294 83.3168235,88.3849412 C83.6332941,88.5143529 83.9709412,88.5790588 84.3274118,88.5790588 C84.8027059,88.5790588 85.1709412,88.4990588 85.4332941,88.3402353 C85.6956471,88.1837647 85.8262353,87.9708235 85.8262353,87.7037647 C85.8262353,87.4472941 85.6968235,87.232 85.4391765,87.0614118 C85.1815294,86.8908235 84.7438824,86.7472941 84.1285882,86.6308235 C82.5309412,86.3237647 81.7321176,85.6661176 81.7321176,84.6590588 C81.7321176,84.252 81.8521176,83.9061176 82.0944706,83.6237647 C82.3356471,83.3402353 82.6521176,83.1284706 83.0427059,82.9872941 C83.4344706,82.8449412 83.8497647,82.7743529 84.2909412,82.7743529 C84.8309412,82.7743529 85.3156471,82.8614118 85.7450588,83.0367059 C86.1732941,83.2108235 86.5121176,83.452 86.7627059,83.7602353 C86.8709412,83.8931765 86.9238824,84.0261176 86.9238824,84.1602353 C86.9238824,84.3014118 86.8532941,84.4296471 86.7121176,84.5472941 C86.6203529,84.6131765 86.5038824,84.6472941 86.3627059,84.6472941 C86.1462353,84.6472941 85.9509412,84.5672941 85.7756471,84.4096471 C85.5674118,84.2178824 85.3474118,84.0825882 85.1144706,84.0037647 C84.8815294,83.9237647 84.5991765,83.8849412 84.2662353,83.8849412 C83.8827059,83.8849412 83.5685882,83.9496471 83.3238824,84.0778824 C83.078,84.2084706 82.9544706,84.3884706 82.9544706,84.6214118 C82.9544706,84.7884706 82.9968235,84.9272941 83.0803529,85.0402353 C83.1627059,85.152 83.3215294,85.2555294 83.5544706,85.3508235 C83.7862353,85.4472941 84.1250588,85.5414118 84.5662353,85.6331765 C85.4721176,85.8155294 86.1144706,86.0696471 86.4932941,86.3931765 C86.8732941,86.7178824 87.0615294,87.1390588 87.0615294,87.6543529 C87.0615294,88.0378824 86.958,88.3849412 86.7497647,88.6967059 C86.5415294,89.0096471 86.2368235,89.2543529 85.8321176,89.4331765 C85.4285882,89.612 84.9438824,89.7014118 84.378,89.7014118 C83.8121176,89.7014118 83.2803529,89.6131765 82.7803529,89.4390588" id="Fill-32" fill="#FFFFFF"></path>
                <path d="M95.5675294,88.2787059 C95.904,88.0787059 96.1675294,87.8022353 96.3545882,87.4492941 C96.5404706,87.0951765 96.6345882,86.6928235 96.6345882,86.2434118 C96.6345882,85.7951765 96.5404706,85.3916471 96.3545882,85.0328235 C96.1675294,84.6751765 95.904,84.3963529 95.5675294,84.1963529 C95.2310588,83.9975294 94.8498824,83.8975294 94.4251765,83.8975294 C94.0016471,83.8975294 93.6204706,83.9975294 93.284,84.1963529 C92.9463529,84.3963529 92.6828235,84.6751765 92.4910588,85.0328235 C92.2992941,85.3916471 92.204,85.7951765 92.204,86.2434118 C92.204,86.6928235 92.2992941,87.0951765 92.4910588,87.4492941 C92.6828235,87.8022353 92.9463529,88.0787059 93.284,88.2787059 C93.6204706,88.4787059 94.0016471,88.5787059 94.4251765,88.5787059 C94.8498824,88.5787059 95.2310588,88.4787059 95.5675294,88.2787059 M96.1910588,83.2175294 C96.7122353,83.5128235 97.1192941,83.9222353 97.4145882,84.4469412 C97.7098824,84.9704706 97.8581176,85.5692941 97.8581176,86.2434118 L97.8581176,88.9398824 C97.8581176,89.5975294 97.7122353,90.1963529 97.4204706,90.7375294 C97.1298824,91.2787059 96.7192941,91.7045882 96.1910588,92.0175294 C95.6628235,92.3281176 95.0663529,92.4845882 94.4004706,92.4845882 C93.8016471,92.4845882 93.244,92.3669412 92.7287059,92.1292941 C92.2110588,91.8916471 91.7792941,91.5528235 91.4298824,91.1116471 C91.3381176,90.9963529 91.2922353,90.8787059 91.2922353,90.7622353 C91.2922353,90.5881176 91.3792941,90.4375294 91.5545882,90.3128235 C91.6710588,90.2387059 91.7875294,90.2010588 91.9051765,90.2010588 C92.1110588,90.2010588 92.2828235,90.2881176 92.4157647,90.4622353 C92.6404706,90.754 92.924,90.9763529 93.2651765,91.1304706 C93.6063529,91.2845882 93.9922353,91.3610588 94.4251765,91.3610588 C94.8334118,91.3610588 95.2028235,91.2634118 95.5369412,91.0681176 C95.8698824,90.8728235 96.1345882,90.5857647 96.3345882,90.2069412 C96.5345882,89.8281176 96.6345882,89.3775294 96.6345882,88.8528235 L96.6345882,88.2410588 C96.3757647,88.6987059 96.0345882,89.0563529 95.6110588,89.3151765 C95.1875294,89.5728235 94.7087059,89.7010588 94.1757647,89.7010588 C93.5604706,89.7010588 93.0087059,89.554 92.5216471,89.2587059 C92.0357647,88.9634118 91.6569412,88.5528235 91.3863529,88.0292941 C91.1157647,87.5045882 90.9816471,86.9104706 90.9816471,86.2434118 C90.9816471,85.5692941 91.1263529,84.9704706 91.4181176,84.4469412 C91.7087059,83.9222353 92.1157647,83.5128235 92.6404706,83.2175294 C93.1651765,82.9222353 93.7604706,82.774 94.4251765,82.774 C95.0828235,82.774 95.6722353,82.9222353 96.1910588,83.2175294" id="Fill-34" fill="#FFFFFF"></path>
                <path d="M103.493765,88.2787059 C103.830235,88.0787059 104.093765,87.8022353 104.280824,87.4492941 C104.466706,87.0951765 104.560824,86.6928235 104.560824,86.2434118 C104.560824,85.7951765 104.466706,85.3916471 104.280824,85.0328235 C104.093765,84.6751765 103.830235,84.3963529 103.493765,84.1963529 C103.157294,83.9975294 102.776118,83.8975294 102.351412,83.8975294 C101.927882,83.8975294 101.546706,83.9975294 101.210235,84.1963529 C100.872588,84.3963529 100.609059,84.6751765 100.417294,85.0328235 C100.225529,85.3916471 100.130235,85.7951765 100.130235,86.2434118 C100.130235,86.6928235 100.225529,87.0951765 100.417294,87.4492941 C100.609059,87.8022353 100.872588,88.0787059 101.210235,88.2787059 C101.546706,88.4787059 101.927882,88.5787059 102.351412,88.5787059 C102.776118,88.5787059 103.157294,88.4787059 103.493765,88.2787059 M100.566706,89.2587059 C100.042,88.9634118 99.6349412,88.5528235 99.3443529,88.0292941 C99.0525882,87.5045882 98.9078824,86.9104706 98.9078824,86.2434118 C98.9078824,85.5692941 99.0525882,84.9704706 99.3443529,84.4469412 C99.6349412,83.9222353 100.042,83.5128235 100.566706,83.2175294 C101.091412,82.9222353 101.686706,82.774 102.351412,82.774 C103.009059,82.774 103.598471,82.9222353 104.117294,83.2175294 C104.638471,83.5128235 105.045529,83.9222353 105.340824,84.4469412 C105.636118,84.9704706 105.784353,85.5692941 105.784353,86.2434118 C105.784353,86.9104706 105.638471,87.5045882 105.346706,88.0292941 C105.056118,88.5528235 104.650235,88.9634118 104.130235,89.2587059 C103.610235,89.554 103.017294,89.7010588 102.351412,89.7010588 C101.686706,89.7010588 101.091412,89.554 100.566706,89.2587059" id="Fill-36" fill="#FFFFFF"></path>
                <path d="M114.577176,88.2787059 C114.913647,88.0787059 115.177176,87.8022353 115.364235,87.4492941 C115.550118,87.0951765 115.644235,86.6928235 115.644235,86.2434118 C115.644235,85.7951765 115.550118,85.3916471 115.364235,85.0328235 C115.177176,84.6751765 114.913647,84.3963529 114.577176,84.1963529 C114.240706,83.9975294 113.859529,83.8975294 113.434824,83.8975294 C113.011294,83.8975294 112.630118,83.9975294 112.293647,84.1963529 C111.956,84.3963529 111.692471,84.6751765 111.500706,85.0328235 C111.308941,85.3916471 111.213647,85.7951765 111.213647,86.2434118 C111.213647,86.6928235 111.308941,87.0951765 111.500706,87.4492941 C111.692471,87.8022353 111.956,88.0787059 112.293647,88.2787059 C112.630118,88.4787059 113.011294,88.5787059 113.434824,88.5787059 C113.859529,88.5787059 114.240706,88.4787059 114.577176,88.2787059 M111.650118,89.2587059 C111.125412,88.9634118 110.718353,88.5528235 110.427765,88.0292941 C110.136,87.5045882 109.991294,86.9104706 109.991294,86.2434118 C109.991294,85.5692941 110.136,84.9704706 110.427765,84.4469412 C110.718353,83.9222353 111.125412,83.5128235 111.650118,83.2175294 C112.174824,82.9222353 112.770118,82.774 113.434824,82.774 C114.092471,82.774 114.681882,82.9222353 115.200706,83.2175294 C115.721882,83.5128235 116.128941,83.9222353 116.424235,84.4469412 C116.719529,84.9704706 116.867765,85.5692941 116.867765,86.2434118 C116.867765,86.9104706 116.721882,87.5045882 116.430118,88.0292941 C116.139529,88.5528235 115.733647,88.9634118 115.213647,89.2587059 C114.693647,89.554 114.100706,89.7010588 113.434824,89.7010588 C112.770118,89.7010588 112.174824,89.554 111.650118,89.2587059" id="Fill-38" fill="#FFFFFF"></path>
                <path d="M124.355412,82.9868235 C124.473059,83.1032941 124.529529,83.2562353 124.529529,83.4491765 L124.529529,89.0150588 C124.529529,89.1974118 124.473059,89.3503529 124.355412,89.4703529 C124.238941,89.5915294 124.086,89.6515294 123.893059,89.6515294 C123.710706,89.6515294 123.558941,89.5915294 123.438941,89.4703529 C123.317765,89.3503529 123.256588,89.1974118 123.256588,89.0150588 L123.256588,88.8774118 C122.990706,89.1432941 122.674235,89.3503529 122.309529,89.4950588 C121.942471,89.6409412 121.551882,89.7138824 121.135412,89.7138824 C120.561294,89.7138824 120.046,89.5891765 119.587176,89.3385882 C119.130706,89.0903529 118.771882,88.7256471 118.514235,88.248 C118.255412,87.768 118.127176,87.1927059 118.127176,86.5185882 L118.127176,83.4491765 C118.127176,83.2644706 118.188353,83.1127059 118.308353,82.9927059 C118.429529,82.8715294 118.581294,82.8127059 118.763647,82.8127059 C118.947176,82.8127059 119.098941,82.8715294 119.220118,82.9927059 C119.340118,83.1127059 119.400118,83.2644706 119.400118,83.4491765 L119.400118,86.5185882 C119.400118,87.1927059 119.581294,87.7032941 119.943647,88.048 C120.306,88.3938824 120.786,88.5656471 121.386,88.5656471 C121.734235,88.5656471 122.053059,88.4950588 122.340118,88.3538824 C122.627176,88.2115294 122.851882,88.0209412 123.014235,87.7785882 C123.176588,87.5374118 123.256588,87.268 123.256588,86.968 L123.256588,83.4491765 C123.256588,83.2562353 123.317765,83.1032941 123.438941,82.9868235 C123.558941,82.8691765 123.710706,82.8127059 123.893059,82.8127059 C124.086,82.8127059 124.238941,82.8691765 124.355412,82.9868235" id="Fill-40" fill="#FFFFFF"></path>
                <path d="M129.566824,88.5784706 C129.671529,88.6949412 129.723294,88.8455294 129.723294,89.0278824 C129.723294,89.2102353 129.653882,89.3608235 129.517412,89.4772941 C129.379765,89.5925882 129.203294,89.6514118 128.986824,89.6514118 L128.762118,89.6514118 C128.355059,89.6514118 127.982118,89.5455294 127.644471,89.3337647 C127.308,89.1208235 127.043294,88.8325882 126.852706,88.4655294 C126.660941,88.0996471 126.565647,87.6878824 126.565647,87.2302353 L126.565647,84.1467059 L125.991529,84.1467059 C125.816235,84.1467059 125.675059,84.0972941 125.568,83.9972941 C125.458588,83.8972941 125.404471,83.7725882 125.404471,83.6231765 C125.404471,83.4561176 125.458588,83.3231765 125.568,83.2231765 C125.675059,83.1231765 125.816235,83.0737647 125.991529,83.0737647 L126.565647,83.0737647 L126.565647,81.2761176 C126.565647,81.0937647 126.623294,80.9443529 126.740941,80.8267059 C126.856235,80.7102353 127.005647,80.6525882 127.189176,80.6525882 C127.372706,80.6525882 127.522118,80.7102353 127.638588,80.8267059 C127.755059,80.9443529 127.813882,81.0937647 127.813882,81.2761176 L127.813882,83.0737647 L128.873882,83.0737647 C129.050353,83.0737647 129.191529,83.1231765 129.298588,83.2231765 C129.406824,83.3231765 129.460941,83.4561176 129.460941,83.6231765 C129.460941,83.7725882 129.406824,83.8972941 129.298588,83.9972941 C129.191529,84.0972941 129.050353,84.1467059 128.873882,84.1467059 L127.813882,84.1467059 L127.813882,87.2302353 C127.813882,87.5631765 127.905647,87.842 128.088,88.0655294 C128.270353,88.2914118 128.496235,88.4043529 128.762118,88.4043529 L129.186824,88.4043529 C129.336235,88.4043529 129.463294,88.4608235 129.566824,88.5784706" id="Fill-42" fill="#FFFFFF"></path>
                <path d="M133.854588,87.1550588 C133.729882,87.0315294 133.667529,86.8809412 133.667529,86.7056471 L133.667529,80.5527059 C133.667529,80.3691765 133.727529,80.2162353 133.847529,80.0903529 C133.968706,79.9668235 134.120471,79.9032941 134.304,79.9032941 C134.486353,79.9032941 134.638118,79.9668235 134.759294,80.0903529 C134.879294,80.2162353 134.940471,80.3691765 134.940471,80.5527059 L134.940471,86.7056471 C134.940471,86.8809412 134.875765,87.0315294 134.746353,87.1550588 C134.616941,87.2797647 134.469882,87.3421176 134.304,87.3421176 C134.128706,87.3421176 133.978118,87.2797647 133.854588,87.1550588 M133.698118,89.4021176 C133.527529,89.2362353 133.441647,89.0327059 133.441647,88.7903529 C133.441647,88.5491765 133.527529,88.3432941 133.698118,88.1727059 C133.868706,88.0021176 134.071059,87.9162353 134.304,87.9162353 C134.535765,87.9162353 134.738118,88.0021176 134.908706,88.1727059 C135.079294,88.3432941 135.164,88.5491765 135.164,88.7903529 C135.164,89.0327059 135.079294,89.2362353 134.908706,89.4021176 C134.738118,89.5691765 134.535765,89.6515294 134.304,89.6515294 C134.071059,89.6515294 133.868706,89.5691765 133.698118,89.4021176" id="Fill-44" fill="#FFFFFF"></path>
            </g>
        </g>
    </g>
</svg>