<?xml version="1.0" encoding="UTF-8"?>
<svg width="249px" height="77px" viewBox="0 0 249 77" version="1.1" xmlns="http://www.w3.org/2000/svg" xmlns:xlink="http://www.w3.org/1999/xlink">
    <!-- Generator: Sketch 48.2 (47327) - http://www.bohemiancoding.com/sketch -->
    <title>main_special_banner</title>
    <desc>Created with Sketch.</desc>
    <defs>
        <rect id="path-1" x="0" y="0" width="79.6834532" height="79.9117647"></rect>
        <polygon id="path-3" points="0 0 4.48920863 0 4.48920863 3.91176471 0 3.91176471"></polygon>
    </defs>
    <g id="symbol" stroke="none" stroke-width="1" fill="none" fill-rule="evenodd">
        <g id="main_special_banner">
            <path d="M75.614,18 L75.614,33.81 L73.455,33.81 L73.455,18 L75.614,18 Z M64.139,30.563 L63,28.863 C68.117,25.82 68.44,24.953 68.44,22.437 L68.44,21.264 L63.289,21.264 L63.289,19.411 L70.599,19.411 L70.599,22.539 C70.599,25.973 69.783,27.112 64.139,30.563 Z M77.3852811,25.99 L91.8692811,25.99 L91.8692811,27.792 L85.9362811,27.792 L85.9362811,30.393 L83.7942811,30.393 L83.7942811,27.792 L77.3852811,27.792 L77.3852811,25.99 Z M81.5672811,29.169 L81.5672811,31.821 L90.1522811,31.821 L90.1522811,33.64 L79.4252811,33.64 L79.4252811,29.169 L81.5672811,29.169 Z M89.8462811,24.766 L79.4082811,24.766 L79.4082811,18.34 L81.5332811,18.34 L81.5332811,19.938 L87.7212811,19.938 L87.7212811,18.34 L89.8462811,18.34 L89.8462811,24.766 Z M81.5332811,21.706 L81.5332811,22.998 L87.7212811,22.998 L87.7212811,21.706 L81.5332811,21.706 Z M98.1998433,20.006 L98.1998433,18.357 L108.943843,18.357 L108.943843,20.006 L104.642843,20.006 L104.642843,20.091 C104.642843,20.567 104.931843,20.975 105.713843,21.247 C106.988843,21.689 108.348843,22.097 109.589843,22.454 L109.028843,24.069 C107.872843,23.729 106.444843,23.287 105.305843,22.913 C104.285843,22.573 103.724843,22.335 103.605843,22.097 L103.588843,22.097 C103.469843,22.335 102.874843,22.607 101.854843,22.947 C100.715843,23.321 99.2878433,23.763 98.1318433,24.103 L97.5538433,22.454 C98.7948433,22.097 100.154843,21.689 101.429843,21.247 C102.211843,20.975 102.500843,20.567 102.500843,20.091 L102.500843,20.006 L98.1998433,20.006 Z M103.571843,34.252 C101.038843,34.252 99.2198433,33.64 99.2198433,32.28 L99.2198433,31.906 C99.2198433,30.546 101.038843,29.934 103.571843,29.934 C106.104843,29.934 107.923843,30.546 107.923843,31.906 L107.923843,32.28 C107.923843,33.64 106.104843,34.252 103.571843,34.252 Z M96.3298433,24.681 L102.500843,24.681 L102.500843,23.355 L104.642843,23.355 L104.642843,24.681 L110.813843,24.681 L110.813843,26.33 L96.3298433,26.33 L96.3298433,24.681 Z M97.9448433,27.86 L102.483843,27.86 L102.483843,26.772 L104.659843,26.772 L104.659843,27.86 L109.402843,27.86 L109.402843,29.441 L97.9448433,29.441 L97.9448433,27.86 Z M103.571843,31.464 C102.160843,31.464 101.310843,31.583 101.310843,32.059 L101.310843,32.127 C101.310843,32.603 102.160843,32.722 103.571843,32.722 C104.982843,32.722 105.832843,32.603 105.832843,32.127 L105.832843,32.059 C105.832843,31.583 104.982843,31.464 103.571843,31.464 Z M115.594124,28.914 L115.594124,31.821 L124.162124,31.821 L124.162124,33.64 L113.452124,33.64 L113.452124,28.914 L115.594124,28.914 Z M111.412124,26.16 L125.896124,26.16 L125.896124,27.962 L111.412124,27.962 L111.412124,26.16 Z M118.654124,25.191 C115.611124,25.191 113.469124,24.035 113.469124,22.046 L113.469124,21.4 C113.469124,19.411 115.611124,18.255 118.654124,18.255 C121.697124,18.255 123.839124,19.411 123.839124,21.4 L123.839124,22.046 C123.839124,24.035 121.697124,25.191 118.654124,25.191 Z M118.654124,19.989 C116.750124,19.989 115.594124,20.703 115.594124,21.502 L115.594124,21.944 C115.594124,22.743 116.750124,23.457 118.654124,23.457 C120.558124,23.457 121.714124,22.743 121.714124,21.944 L121.714124,21.502 C121.714124,20.703 120.558124,19.989 118.654124,19.989 Z M143.497687,18 L143.497687,25.854 L141.355687,25.854 L141.355687,18 L143.497687,18 Z M133.501687,26.568 L143.497687,26.568 L143.497687,31.073 L135.660687,31.073 L135.660687,32.263 L143.973687,32.263 L143.973687,33.963 L133.586687,33.963 L133.586687,29.458 L141.423687,29.458 L141.423687,28.268 L133.501687,28.268 L133.501687,26.568 Z M134.912687,25.599 C132.379687,25.599 130.866687,23.916 130.866687,22.199 L130.866687,21.655 C130.866687,19.938 132.379687,18.255 134.912687,18.255 C137.445687,18.255 138.958687,19.938 138.958687,21.655 L138.958687,22.199 C138.958687,23.916 137.445687,25.599 134.912687,25.599 Z M134.912687,20.057 C133.637687,20.057 132.889687,20.89 132.889687,21.689 L132.889687,22.165 C132.889687,22.964 133.637687,23.797 134.912687,23.797 C136.187687,23.797 136.935687,22.964 136.935687,22.165 L136.935687,21.689 C136.935687,20.89 136.187687,20.057 134.912687,20.057 Z M150.317968,30.087 C147.427968,30.087 146.237968,28.166 146.237968,25.514 L146.237968,23.627 C146.237968,20.975 147.427968,19.054 150.317968,19.054 C153.207968,19.054 154.397968,20.975 154.397968,23.627 L154.397968,25.514 C154.397968,28.166 153.207968,30.087 150.317968,30.087 Z M150.317968,20.941 C148.872968,20.941 148.294968,21.961 148.294968,23.882 L148.294968,25.259 C148.294968,27.18 148.872968,28.2 150.317968,28.2 C151.762968,28.2 152.340968,27.18 152.340968,25.259 L152.340968,23.882 C152.340968,21.961 151.762968,20.941 150.317968,20.941 Z M158.749968,18 L158.749968,33.81 L156.590968,33.81 L156.590968,18 L158.749968,18 Z M174.49853,18.204 L174.49853,21.519 L175.80753,21.519 L175.80753,18 L177.84753,18 L177.84753,27.52 L175.80753,27.52 L175.80753,23.372 L174.49853,23.372 L174.49853,26.857 L172.47553,26.857 L172.47553,18.204 L174.49853,18.204 Z M172.83253,34.286 C169.90853,34.286 167.76653,33.147 167.76653,31.294 L167.76653,30.58 C167.76653,28.727 169.90853,27.588 172.83253,27.588 C175.75653,27.588 177.89853,28.727 177.89853,30.58 L177.89853,31.294 C177.89853,33.147 175.75653,34.286 172.83253,34.286 Z M172.83253,29.322 C171.30253,29.322 169.87453,29.951 169.87453,30.75 L169.87453,31.124 C169.87453,31.923 171.30253,32.552 172.83253,32.552 C174.36253,32.552 175.79053,31.923 175.79053,31.124 L175.79053,30.75 C175.79053,29.951 174.36253,29.322 172.83253,29.322 Z M172.20353,25.446 L170.94553,26.806 C170.41853,26.364 169.70453,25.718 169.26253,25.31 C168.75253,24.834 168.46353,24.528 168.36153,24.273 L168.34453,24.273 C168.24253,24.562 167.98753,24.868 167.51153,25.361 C167.06953,25.82 166.28753,26.585 165.43753,27.35 L164.06053,25.939 C164.77453,25.31 165.50553,24.613 166.18553,23.899 C167.01853,23.015 167.22253,22.318 167.22253,21.196 L167.22253,18.799 L169.33053,18.799 L169.33053,21.094 C169.33053,22.216 169.48353,22.879 170.31653,23.712 C170.91153,24.307 171.54053,24.885 172.20353,25.446 Z M192.606811,18 L192.606811,25.888 L190.464811,25.888 L190.464811,18 L192.606811,18 Z M182.610811,26.602 L192.606811,26.602 L192.606811,31.073 L184.769811,31.073 L184.769811,32.263 L193.082811,32.263 L193.082811,33.963 L182.695811,33.963 L182.695811,29.458 L190.532811,29.458 L190.532811,28.285 L182.610811,28.285 L182.610811,26.602 Z M180.638811,26.517 L179.890811,24.851 C184.735811,23.1 185.415811,22.488 185.415811,20.958 L185.415811,20.431 L180.553811,20.431 L180.553811,18.629 L187.557811,18.629 L187.557811,21.094 C187.557811,23.814 185.976811,24.596 180.638811,26.517 Z M200.093373,30.546 L198.954373,28.846 C204.071373,25.803 204.394373,24.936 204.394373,22.42 L204.394373,21.281 L199.243373,21.281 L199.243373,19.428 L206.553373,19.428 L206.553373,22.522 C206.553373,22.845 206.536373,23.134 206.519373,23.406 L209.596373,23.406 L209.596373,18 L211.755373,18 L211.755373,33.81 L209.596373,33.81 L209.596373,25.259 L206.162373,25.259 C205.533373,26.925 203.935373,28.2 200.093373,30.546 Z M217.232654,29.968 C214.835654,29.968 213.713654,28.353 213.713654,25.497 L213.713654,23.661 C213.713654,20.805 214.835654,19.19 217.232654,19.19 C218.898654,19.19 219.952654,19.972 220.428654,21.417 L222.162654,21.417 L222.162654,18.323 L224.185654,18.323 L224.185654,33.045 L222.162654,33.045 L222.162654,27.775 L220.428654,27.775 C219.935654,29.203 218.881654,29.968 217.232654,29.968 Z M227.279654,18 L227.279654,33.81 L225.239654,33.81 L225.239654,18 L227.279654,18 Z M217.232654,21.06 C216.059654,21.06 215.685654,22.046 215.685654,23.899 L215.685654,25.259 C215.685654,27.112 216.059654,28.098 217.232654,28.098 C218.405654,28.098 218.779654,27.112 218.779654,25.259 L218.779654,23.899 C218.779654,22.046 218.405654,21.06 217.232654,21.06 Z M220.751654,25.497 C220.751654,25.667 220.751654,25.837 220.734654,25.99 L222.162654,25.99 L222.162654,23.202 L220.734654,23.202 C220.751654,23.355 220.751654,23.508 220.751654,23.661 L220.751654,25.497 Z M228.574935,30.019 L231.974935,30.019 L231.974935,26.449 C230.988935,25.752 230.393935,24.732 230.393935,23.525 L230.393935,22.743 C230.393935,20.346 232.722935,18.748 235.816935,18.748 C238.910935,18.748 241.239935,20.346 241.239935,22.743 L241.239935,23.525 C241.239935,24.749 240.644935,25.752 239.658935,26.449 L239.658935,30.019 L243.058935,30.019 L243.058935,31.821 L228.574935,31.821 L228.574935,30.019 Z M235.816935,20.55 C234.048935,20.55 232.501935,21.468 232.501935,22.862 L232.501935,23.406 C232.501935,24.8 234.048935,25.718 235.816935,25.718 C237.584935,25.718 239.131935,24.8 239.131935,23.406 L239.131935,22.862 C239.131935,21.468 237.584935,20.55 235.816935,20.55 Z M235.816935,27.52 C235.204935,27.52 234.626935,27.452 234.082935,27.333 L234.082935,30.019 L237.550935,30.019 L237.550935,27.333 C237.006935,27.452 236.428935,27.52 235.816935,27.52 Z" id="기분-좋은-일이-생길-거예요" fill="#FFFFFF"></path>
            <g id="special_price_banner">
                <g id="Group" transform="translate(-1.122302, 0.000000)">
                    <mask id="mask-2" fill="white">
                        <use xlink:href="#path-1"></use>
                    </mask>
                    <g id="Rectangle-2"></g>
                    <g id="Group-Copy-10" mask="url(#mask-2)">
                        <g transform="translate(0.000000, -23.470588)">
                            <path d="M26.3435968,90.3173277 C27.9476475,89.5672421 29.8638715,90.242572 30.6239931,91.825444 L35.8065078,89.4029239 L23.7192191,64.2253985 L18.5370704,66.6482798 C19.2968261,68.2311519 18.6124604,70.1224367 17.0084097,70.8725223 C15.403993,71.6222468 13.4877691,70.946917 12.7280134,69.3640449 L7.54549868,71.7869262 L19.6324214,96.9640904 L24.8149361,94.5412091 C24.0551804,92.958337 24.7391802,91.0670522 26.3435968,90.3173277" id="Fill-1" fill="#E24E51" transform="translate(21.676003, 80.594744) rotate(-39.000000) translate(-21.676003, -80.594744) "></path>
                            <g id="Page-1-Copy" stroke-width="1" fill="none" transform="translate(3.928058, 0.000000)">
                                <path d="M28.9280715,62.5882353 C28.9280715,62.5882353 30.2299083,62.5899761 31.4124188,62.5899761 C32.5949292,62.5899761 34.7913669,63.9373358 34.7913669,66.8200589 L34.7913669,68.1764706 L31.7905169,68.1764706 L30.2299083,68.1764706 L26.9352518,64.8700429 L28.9280715,62.5882353 Z" id="Fill-1" fill="#FF5B5E"></path>
                                <path d="M31.010254,67.0588235 L34.2302158,67.0588235 L34.2302158,66.71581 C34.2302158,64.6021748 32.4899149,63.7071743 31.7974575,63.7071743 L29.7271299,63.7058824 L28.618705,64.8657332 L31.010254,67.0588235 Z M34.958653,69.2941176 L30.5285236,69.2941176 C30.2752001,69.2941176 30.0326564,69.1944453 29.8534435,69.0165069 L26.6538869,65.8400376 C26.298156,65.4868365 26.2792915,64.9202429 26.610768,64.5446322 L28.5460652,62.3525106 C28.7276361,62.1471455 28.9893813,62.0294118 29.2642642,62.0294118 L29.2656117,62.0294118 L31.676901,62.0310841 C33.408394,62.0310841 35.9136691,63.8158203 35.9136691,67.0427947 L35.9136691,68.3458929 C35.9136691,68.8696742 35.4858488,69.2941176 34.958653,69.2941176 Z" id="Fill-3" fill="#FFFFFF"></path>
                                <path d="M31.1590823,44.1470588 L19.4345368,52.7387529 C18.5042841,53.4205104 17.9568345,54.4929985 17.9568345,55.6325172 L17.9568345,67.2742677 L27.9803759,77.1176471 C27.9803759,77.1176471 30.4864328,74.4926785 32.3239562,72.6879074 C34.1618227,70.8834731 32.9924896,68.0944651 31.6557659,66.7821493 C31.2122494,66.3466194 28.6489093,64.1571808 28.6489093,64.1571808 L30.6260393,60.3768623 C30.6260393,60.3768623 36.9762488,57.5700019 38.1582734,51.020212 L31.1590823,44.1470588 Z" id="Fill-5" fill="#FF5B5E"></path>
                                <path d="M18.5179856,67.5749704 L27.4413268,76.5588235 C28.3106815,75.6344717 29.8484055,74.0099465 31.0739753,72.7757714 C31.6559176,72.1902462 31.8524969,71.4173939 31.6586291,70.4780287 C31.4545934,69.4881636 30.8818022,68.632396 30.4140792,68.1611779 C30.1093814,67.8547668 28.4994653,66.4305348 27.4914884,65.5481525 C27.1576426,65.2557311 27.0654538,64.7722293 27.2671169,64.3760785 L29.2210467,60.5466211 C29.3203531,60.3517872 29.4830393,60.1961931 29.6816521,60.1064536 C29.7365587,60.0812037 35.1997666,57.5193604 36.4748201,51.8278921 L30.5106742,45.8235294 L19.5920538,54.0263412 C18.9196173,54.5316808 18.5179856,55.3376309 18.5179856,56.1824796 L18.5179856,67.5749704 Z M27.7009315,78.7941176 C27.4463721,78.7941176 27.2016426,78.6931426 27.0216545,78.5119314 L17.1162086,68.5769357 C16.9358816,68.3960645 16.8345324,68.1509364 16.8345324,67.8952689 L16.8345324,56.1447616 C16.8345324,54.6977921 17.5249951,53.3171194 18.6811898,52.4518616 L30.2672023,43.7795643 C30.6498888,43.4929583 31.1840907,43.5323964 31.5210176,43.8706799 L38.4375088,50.8080417 C38.6598669,51.0307309 38.7595213,51.3475954 38.7046097,51.6576603 C37.6026488,57.8943163 32.3823165,60.958587 31.0241013,61.6582729 L29.5594525,64.5185535 C30.3478749,65.2100798 31.6823628,66.3864224 32.0121715,66.7172263 C32.8724535,67.5804442 33.5337657,68.8064245 33.7798511,69.9970464 C34.1038974,71.5633501 33.7107031,72.9997801 32.6728057,74.0411493 C30.8885171,75.8304821 28.4263072,78.4633138 28.4019021,78.4894925 C28.2239477,78.6802232 27.9765065,78.7900378 27.7165237,78.7941176 L27.7009315,78.7941176 Z" id="Fill-7" fill="#FFFFFF"></path>
                                <g id="Group-13" transform="translate(27.496403, 0.000000)" fill="#FFFFFF">
                                    <path d="M2.24460432,42.0056142 L13.9345366,53.6470588 L53.8705036,13.8767388 L42.1805713,2.23529412 L2.24460432,42.0056142 Z M13.9728627,55.8823529 C13.7273049,55.8823529 13.4820854,55.789388 13.2947038,55.6027846 L0.280818645,42.6426003 C-0.093606215,42.2697301 -0.093606215,41.6654582 0.280818645,41.2925881 L41.4645092,0.27990522 C41.8385958,-0.0933017399 42.4457255,-0.0933017399 42.8204886,0.27990522 L55.8340356,13.2397527 C56.2087987,13.6126228 56.2087987,14.2172316 55.8340356,14.5901017 L14.6506833,55.6027846 C14.46364,55.789388 14.2180822,55.8823529 13.9728627,55.8823529 Z" id="Fill-11"></path>
                                </g>
                                <path d="M34.3912849,83.6906467 L38.1582734,79.939283 L19.6126549,61.4705882 L15.8456664,65.2219519 C17.0118009,66.3832495 17.0118009,68.2657028 15.8456664,69.4270004 C14.6795319,70.588298 12.7892381,70.5879594 11.6231036,69.4270004 L7.85611511,73.1783641 L26.4017336,91.6470588 L30.1687221,87.8956951 C29.0025876,86.7343975 29.0025876,84.8519443 30.1687221,83.6906467 C31.3348566,82.5296876 33.2251504,82.5296876 34.3912849,83.6906467 Z" id="Fill-14" fill="#FFFFFF"></path>
                                <path d="M9.53956835,72.9087333 L26.6724874,89.9705882 L29.1525911,87.5007716 C28.789525,86.8985091 28.5956186,86.2077977 28.5956186,85.4870406 C28.5956186,84.4394954 29.0054663,83.4547421 29.7488871,82.7137296 L29.7492261,82.7137296 C31.0506364,81.4180549 33.0432621,81.2212393 34.5551896,82.1209196 L37.0359712,79.6500903 L19.9030521,62.5882353 L17.4229485,65.0580519 C17.7860145,65.6603144 17.9799209,66.3510259 17.9799209,67.0717829 C17.9799209,68.1193281 17.5700733,69.1040814 16.8266524,69.8447563 C15.5255811,71.140431 13.5326165,71.3379218 12.0203499,70.4379039 L9.53956835,72.9087333 Z M26.6566208,92.2058824 C26.4116625,92.2058824 26.1670417,92.113144 25.980455,91.9269952 L7.57484403,73.5980633 C7.20167069,73.2261018 7.20167069,72.6233024 7.57484403,72.2513409 L11.313663,68.5283659 C11.6868363,68.1560684 12.2931587,68.1560684 12.6659946,68.5283659 C13.4491188,69.3075698 14.7221595,69.3068978 15.503934,68.5283659 C16.2867208,67.749162 16.2867208,66.4810656 15.503934,65.7018617 C15.1307607,65.3299002 15.1307607,64.7271008 15.503934,64.3551393 L19.242753,60.6321643 C19.6159263,60.2598668 20.2222486,60.2598668 20.5950846,60.6321643 L39.0006955,78.9607602 C39.3738689,79.3327217 39.3738689,79.9358571 39.0006955,80.3078186 L35.2618766,84.0307937 C34.8887032,84.4030912 34.2827183,84.4030912 33.909545,84.0307937 C33.1267582,83.2519258 31.8540549,83.2519258 31.0712682,84.0307937 C30.2891562,84.8099975 30.2891562,86.0780939 31.0716056,86.8569618 C31.4447789,87.2289233 31.4447789,87.8320587 31.0716056,88.2040202 L27.3327866,91.9269952 C27.1461999,92.113144 26.9015791,92.2058824 26.6566208,92.2058824 Z" id="Fill-16" fill="#FFFFFF"></path>
                                <path d="M25.6139187,55.3235294 C25.6139187,55.3235294 21.410635,65.9977832 20.9256791,67.4532274 C20.4403912,68.9090037 21.0869991,70.2027319 22.218563,70.6882121 C23.3507908,71.1730281 24.6436748,71.1730281 25.6139187,69.5558678 C26.5838306,67.9387076 30.3021583,60.6608223 30.3021583,60.6608223" id="Fill-18" fill="#FF5B5E"></path>
                                <path d="M23.3855869,72.0882353 C22.8587949,72.0882353 22.3032315,71.9686355 21.7298571,71.7257091 C20.0131591,70.9979463 19.2253688,69.1107774 19.8566286,67.238855 C20.3597869,65.7467379 24.5347333,55.2602452 24.7121574,54.8143719 C24.9087625,54.321404 25.4732314,54.0784776 25.9715945,54.2729543 C26.4703,54.4674309 26.7155426,55.0251114 26.5189375,55.518418 C26.4754378,55.6271758 22.1854054,66.4023343 21.6990305,67.8463404 C21.3904222,68.7614648 21.7175265,69.63085 22.4946988,69.9601728 C23.5246491,70.3968983 24.187763,70.1746393 24.7830586,69.1937858 C25.7558084,67.5902004 29.5505604,60.2488762 29.5885798,60.1750157 C29.8331373,59.7023765 30.4184998,59.5156925 30.8952843,59.7569248 C31.3727537,59.9981572 31.5618234,60.5768438 31.3179509,61.0491442 C31.1603929,61.3533952 27.4543529,68.5229429 26.4480364,70.1820931 C25.6873049,71.4363658 24.61591,72.0882353 23.3855869,72.0882353" id="Fill-20" fill="#FFFFFF"></path>
                                <polygon id="Fill-22" fill="#FFFFFF" points="43.991098 66.5 44.4938614 68.0039888 46.0143885 68.4409135 44.7434949 69.3855966 44.7990856 70.9705882 43.5107107 70.0504515 42.0247966 70.5932761 42.4988906 69.0798194 41.5251799 67.8300605 43.1068917 67.814982"></polygon>
                                <polygon id="Fill-24" fill="#FFFFFF" points="9.76088214 55.8823529 10.2636455 57.3863417 11.7841727 57.8232664 10.5132791 58.7679495 10.5688698 60.3529412 9.28049486 59.4328044 7.79423116 59.975629 8.26867478 58.4621724 7.29496403 57.2124134 8.87667586 57.197335"></polygon>
                                <g id="Group-28" transform="translate(7.294964, 91.647059)">
                                    <mask id="mask-4" fill="white">
                                        <use xlink:href="#path-3"></use>
                                    </mask>
                                    <g id="Clip-27"></g>
                                    <polygon id="Fill-26" fill="#FFFFFF" mask="url(#mask-4)" points="2.46591811 0 2.9686815 1.31599018 4.48920863 1.69829929 3.21831507 2.52489699 3.27390574 3.91176471 1.98553083 3.10664504 0.499616755 3.58161655 0.973710751 2.25734198 0 1.16380293 1.58171183 1.15060928"></polygon>
                                </g>
                                <path d="M46.0143885,81.0292535 C46.0143885,81.3378646 45.7632217,81.5882353 45.4532374,81.5882353 C45.1432531,81.5882353 44.8920863,81.3378646 44.8920863,81.0292535 C44.8920863,80.7206424 45.1432531,80.4705882 45.4532374,80.4705882 C45.7632217,80.4705882 46.0143885,80.7206424 46.0143885,81.0292535" id="Fill-29" fill="#FFFFFF"></path>
                                <path d="M36.4748201,88.8527829 C36.4748201,89.161394 36.2234067,89.4117647 35.9135101,89.4117647 C35.6039315,89.4117647 35.352518,89.161394 35.352518,88.8527829 C35.352518,88.5441718 35.6039315,88.2941176 35.9135101,88.2941176 C36.2234067,88.2941176 36.4748201,88.5441718 36.4748201,88.8527829" id="Fill-31" fill="#FFFFFF"></path>
                                <path d="M1.12230216,71.5294118 C1.12230216,71.8381103 0.870888676,72.0882353 0.560992158,72.0882353 C0.251413483,72.0882353 0,71.8381103 0,71.5294118 C0,71.2207132 0.251413483,70.9705882 0.560992158,70.9705882 C0.870888676,70.9705882 1.12230216,71.2207132 1.12230216,71.5294118" id="Fill-33" fill="#FFFFFF"></path>
                            </g>
                            <path d="M25.3302368,81.9095588 L23.8330857,81.9095588 L29.3957763,72.6554412 L30.8800209,72.6554412 L25.3302368,81.9095588 Z M24.4009706,72.4755 C25.7561504,72.4755 26.6079778,73.3366471 26.6079778,74.6862059 L26.6079778,75.1874706 C26.6079778,76.5370294 25.7561504,77.3981765 24.4009706,77.3981765 C23.0457907,77.3981765 22.1939634,76.5370294 22.1939634,75.1874706 L22.1939634,74.6862059 C22.1939634,73.3366471 23.0457907,72.4755 24.4009706,72.4755 Z M24.4009706,76.3056765 C25.1237332,76.3056765 25.3302368,75.8558235 25.3302368,75.1617647 L25.3302368,74.7119118 C25.3302368,74.0307059 25.1237332,73.568 24.4009706,73.568 C23.678208,73.568 23.4717044,74.0307059 23.4717044,74.7119118 L23.4717044,75.1617647 C23.4717044,75.8558235 23.678208,76.3056765 24.4009706,76.3056765 Z M30.3250425,77.1025588 C31.6802224,77.1025588 32.5320497,77.9637059 32.5320497,79.3132647 L32.5320497,79.8145294 C32.5320497,81.1640882 31.6802224,82.0252353 30.3250425,82.0252353 C28.9698627,82.0252353 28.1180353,81.1640882 28.1180353,79.8145294 L28.1180353,79.3132647 C28.1180353,77.9637059 28.9698627,77.1025588 30.3250425,77.1025588 Z M30.3250425,80.9327353 C31.0478051,80.9327353 31.2543087,80.4828824 31.2543087,79.7888235 L31.2543087,79.3389706 C31.2543087,78.6577647 31.0478051,78.1950588 30.3250425,78.1950588 C29.6022799,78.1950588 29.3957763,78.6577647 29.3957763,79.3389706 L29.3957763,79.7888235 C29.3957763,80.4828824 29.6022799,80.9327353 30.3250425,80.9327353 Z" id="%-copy" fill="#FF5B5E" transform="translate(27.363007, 77.250368) rotate(-315.000000) translate(-27.363007, -77.250368) "></path>
                        </g>
                    </g>
                </g>
            </g>
            <g id="Group-Copy-3" transform="translate(64.000000, 43.000000)">
                <rect id="Rectangle-2" fill="#FFFFFF" x="0" y="0" width="89" height="20" rx="10"></rect>
                <path d="M12.299,13.286 L10.891,13.286 L10.891,5.355 L15.995,5.355 L15.995,6.543 L12.299,6.543 L12.299,8.809 L15.764,8.809 L15.764,9.997 L12.299,9.997 L12.299,13.286 Z M17.9991231,9.711 L20.7271231,9.711 L20.7271231,9.447 C20.7271231,8.798 20.3531231,8.237 19.3851231,8.237 C18.4611231,8.237 17.9991231,8.798 17.9991231,9.48 L17.9991231,9.711 Z M21.3321231,11.724 L21.9041231,12.725 C21.3211231,13.121 20.5511231,13.374 19.4181231,13.374 C18.0211231,13.374 16.6461231,12.714 16.6461231,10.547 L16.6461231,9.92 C16.6461231,7.951 17.8671231,7.093 19.4071231,7.093 C20.9471231,7.093 22.0581231,7.984 22.0581231,9.755 L22.0581231,10.756 L17.9991231,10.756 C17.9991231,11.724 18.5271231,12.219 19.4951231,12.219 C20.2101231,12.219 20.7271231,12.076 21.3321231,11.724 Z M24.1502462,9.711 L26.8782462,9.711 L26.8782462,9.447 C26.8782462,8.798 26.5042462,8.237 25.5362462,8.237 C24.6122462,8.237 24.1502462,8.798 24.1502462,9.48 L24.1502462,9.711 Z M27.4832462,11.724 L28.0552462,12.725 C27.4722462,13.121 26.7022462,13.374 25.5692462,13.374 C24.1722462,13.374 22.7972462,12.714 22.7972462,10.547 L22.7972462,9.92 C22.7972462,7.951 24.0182462,7.093 25.5582462,7.093 C27.0982462,7.093 28.2092462,7.984 28.2092462,9.755 L28.2092462,10.756 L24.1502462,10.756 C24.1502462,11.724 24.6782462,12.219 25.6462462,12.219 C26.3612462,12.219 26.8782462,12.076 27.4832462,11.724 Z M29.2673693,13.286 L29.2673693,4.97 L30.6533693,4.97 L30.6533693,13.286 L29.2673693,13.286 Z M32.0854924,13.286 L32.0854924,7.225 L33.4714924,7.225 L33.4714924,13.286 L32.0854924,13.286 Z M32.0524924,6.334 L32.0524924,4.838 L33.5044924,4.838 L33.5044924,6.334 L32.0524924,6.334 Z M38.0276155,7.093 C39.1166155,7.093 40.1396155,7.709 40.1396155,9.337 L40.1396155,13.286 L38.7536155,13.286 L38.7536155,9.634 C38.7536155,8.732 38.3796155,8.303 37.5986155,8.303 C37.1476155,8.303 36.2896155,8.501 36.2896155,9.7 L36.2896155,13.286 L34.9036155,13.286 L34.9036155,7.225 L36.2126155,7.225 L36.2126155,7.918 L36.2346155,7.918 C36.6636155,7.313 37.3126155,7.093 38.0276155,7.093 Z M45.2017386,13.22 L45.2017386,12.472 L45.1797386,12.472 C44.8607386,13.055 44.2117386,13.264 43.4857386,13.264 C41.9347386,13.264 41.1647386,12.318 41.1647386,10.679 L41.1647386,9.722 C41.1647386,8.094 42.1217386,7.093 43.5847386,7.093 C44.5307386,7.093 45.0367386,7.489 45.2237386,7.753 L45.2347386,7.753 L45.2347386,7.225 L46.5657386,7.225 L46.5657386,13.231 C46.5657386,14.914 45.6637386,15.739 43.6837386,15.739 C42.9247386,15.739 42.0997386,15.464 41.6047386,15.079 L42.2317386,14.001 C42.4737386,14.21 43.1337386,14.518 43.7057386,14.518 C44.6847386,14.518 45.2017386,14.111 45.2017386,13.22 Z M42.5287386,9.898 L42.5287386,10.47 C42.5287386,11.493 42.9577386,12.087 43.7607386,12.087 C44.6737386,12.087 45.2017386,11.427 45.2017386,10.602 L45.2017386,9.48 C45.2017386,8.919 44.7727386,8.281 43.8157386,8.281 C42.9357386,8.281 42.5287386,8.886 42.5287386,9.898 Z M50.5299848,5.355 L51.9379848,5.355 L51.9379848,12.098 L55.5569848,12.098 L55.5569848,13.286 L50.5299848,13.286 L50.5299848,5.355 Z M58.3971079,13.385 C57.1321079,13.385 56.2961079,12.615 56.2961079,11.141 L56.2961079,7.225 L57.6821079,7.225 L57.6821079,10.844 C57.6821079,11.9 58.1771079,12.175 58.8261079,12.175 C59.3761079,12.175 60.1131079,11.845 60.1131079,10.756 L60.1131079,7.225 L61.4991079,7.225 L61.4991079,13.286 L60.1791079,13.286 L60.1791079,12.56 L60.1571079,12.56 C59.8161079,13.132 59.0571079,13.385 58.3971079,13.385 Z M65.318231,7.093 C66.462231,7.093 67.056231,7.445 67.529231,7.808 L66.858231,8.82 C66.363231,8.424 65.890231,8.303 65.318231,8.303 C64.625231,8.303 63.976231,8.71 63.976231,9.832 L63.976231,10.569 C63.976231,11.801 64.735231,12.153 65.340231,12.153 C66.099231,12.153 66.561231,11.955 66.990231,11.636 L67.650231,12.648 C67.243231,13.022 66.429231,13.374 65.329231,13.374 C63.547231,13.374 62.579231,12.318 62.579231,10.591 L62.579231,9.832 C62.579231,8.105 63.624231,7.093 65.318231,7.093 Z M73.8453541,7.225 L71.4913541,9.733 L73.9443541,13.286 L72.1733541,13.286 L70.5233541,10.712 L69.8303541,11.482 L69.8303541,13.286 L68.4443541,13.286 L68.4443541,4.97 L69.8303541,4.97 L69.8303541,9.788 L72.0963541,7.225 L73.8453541,7.225 Z M73.9574772,7.225 L75.4974772,7.225 L76.8724772,11.702 L76.9164772,11.702 L78.3024772,7.225 L79.7764772,7.225 L76.6304772,15.805 L75.3324772,15.354 L76.1134772,13.363 L73.9574772,7.225 Z" id="Feeling-Lucky" fill="#FF5B5E"></path>
            </g>
        </g>
    </g>
</svg>