<?xml version="1.0" encoding="UTF-8"?>
<svg width="188px" height="243px" viewBox="0 0 188 243" version="1.1" xmlns="http://www.w3.org/2000/svg" xmlns:xlink="http://www.w3.org/1999/xlink">
    <!-- Generator: Sketch 48.2 (47327) - http://www.bohemiancoding.com/sketch -->
    <title>special_logo</title>
    <desc>Created with Sketch.</desc>
    <defs>
        <polygon id="path-1" points="0 0 8 0 8 7 0 7"></polygon>
    </defs>
    <g id="Symbols" stroke="none" stroke-width="1" fill="none" fill-rule="evenodd">
        <g id="special_logo">
            <g id="Group-Copy-10">
                <path d="M78.9456405,161.620481 C81.8041411,160.278223 85.2189504,161.486708 86.5735262,164.319216 L95.8090332,159.98418 L74.2688648,114.92966 L65.03401,119.265343 C66.3879336,122.097851 65.1683589,125.482255 62.3098583,126.824514 C59.4507055,128.166126 56.0358962,126.957641 54.6819726,124.125133 L45.4464656,128.460815 L66.9859818,173.514688 L76.2214888,169.179006 C74.8675651,166.346498 76.0864877,162.962093 78.9456405,161.620481" id="Fill-1" fill="#E24E51" transform="translate(70.627749, 144.222174) rotate(-39.000000) translate(-70.627749, -144.222174) "></path>
                <g id="Page-1-Copy" transform="translate(15.000000, 0.000000)">
                    <path d="M75.551307,112 C75.551307,112 77.8712469,112.003115 79.9785412,112.003115 C82.0858354,112.003115 86,114.41418 86,119.572737 L86,122 L80.6523313,122 L77.8712469,122 L72,116.083235 L75.551307,112 Z" id="Fill-1" fill="#FF5B5E"></path>
                    <path d="M79.2618629,120 L85,120 L85,119.386186 C85,115.603892 81.8986945,114.002312 80.6647,114.002312 L76.9752699,114 L75,116.075523 L79.2618629,120 Z M86.2981123,124 L78.4033947,124 C77.9519592,124 77.5197338,123.821639 77.2003672,123.503223 L71.4985933,117.819015 C70.8646627,117.186971 70.8310451,116.173066 71.4217532,115.500921 L74.870552,111.578177 C75.1941208,111.210681 75.6605641,111 76.1504196,111 L76.1528208,111 L80.449862,111.002993 C83.5354714,111.002993 88,114.196731 88,119.971317 L88,122.303177 C88,123.24047 87.2376024,124 86.2981123,124 Z" id="Fill-3" fill="#FFFFFF"></path>
                    <path d="M79.5270826,79 L58.6333413,94.3746105 C56.9755833,95.5945976 56,97.5137869 56,99.5529254 L56,120.385532 L73.8624648,138 C73.8624648,138 78.3283866,133.302688 81.6029477,130.073097 C84.87812,126.84411 82.7943084,121.853253 80.4121982,119.504899 C79.621829,118.725529 75.0538255,114.807587 75.0538255,114.807587 L78.5771725,108.042806 C78.5771725,108.042806 89.8935715,103.020003 92,91.2993267 L79.5270826,79 Z" id="Fill-5" fill="#FF5B5E"></path>
                    <path d="M57,120.923631 L72.9018516,137 C74.4510862,135.345897 77.1913894,132.438852 79.3754176,130.230328 C80.4124686,129.182546 80.7627829,127.799547 80.4173005,126.118578 C80.0536985,124.34724 79.0329552,122.815867 78.1994489,121.972634 C77.6564618,121.424319 74.7875087,118.875694 72.9912421,117.296694 C72.3963119,116.773414 72.2320266,115.9082 72.5914007,115.199298 L76.0734037,108.346585 C76.2503728,107.997935 76.540288,107.719504 76.8942262,107.558917 C76.9920726,107.513733 86.7277892,102.929382 89,92.744649 L78.371586,82 L58.9140447,96.6787158 C57.7157283,97.5830077 57,99.0252342 57,100.537069 L57,120.923631 Z M73.3644805,141 C72.9108426,141 72.474722,140.819308 72.153974,140.495035 L54.5019615,122.716622 C54.1806095,122.392957 54,121.954307 54,121.496797 L54,100.469573 C54,97.8802596 55.23044,95.4095822 57.2908382,93.8612261 L77.9377066,78.3423783 C78.6196737,77.8295043 79.5716489,77.9000777 80.1720698,78.5054272 L92.4976118,90.9196536 C92.8938654,91.31815 93.0714547,91.8851708 92.9735994,92.4400237 C91.0098485,103.600356 81.7069486,109.083787 79.2865395,110.335857 L76.6764603,115.454254 C78.0814694,116.691722 80.4595953,118.796756 81.0473313,119.388721 C82.5803979,120.933427 83.7588901,123.127286 84.1974269,125.257873 C84.7748941,128.060732 84.0742017,130.631185 82.2246153,132.494688 C79.0449215,135.696652 74.6571372,140.408035 74.613646,140.454881 C74.2965223,140.796189 73.8555693,140.992699 73.3922666,141 L73.3644805,141 Z" id="Fill-7" fill="#FFFFFF"></path>
                    <g id="Group-13" transform="translate(73.000000, 0.000000)" fill="#FFFFFF">
                        <path d="M4,75.1679411 L24.8320589,96 L96,24.8320589 L75.1679411,4 L4,75.1679411 Z M24.9003579,100 C24.4627613,100 24.0257676,99.8336417 23.691844,99.4997197 L0.500433227,76.307811 C-0.166811076,75.6405697 -0.166811076,74.559241 0.500433227,73.8919997 L73.8918817,0.500883025 C74.5585233,-0.166961008 75.6404596,-0.166961008 76.3083066,0.500883025 L99.4991147,23.692189 C100.166962,24.3594303 100.166962,25.4413617 99.4991147,26.108603 L26.108269,99.4997197 C25.7749482,99.8336417 25.3373517,100 24.9003579,100 Z" id="Fill-11"></path>
                    </g>
                    <path d="M77.7622098,149.76221 C79.8403213,147.684704 83.2089219,147.684704 85.2870334,149.76221 L92,143.049243 L58.9507568,110 L52.2377902,116.712967 C54.3159017,118.791078 54.3159017,122.159679 52.2377902,124.23779 C50.1596787,126.315902 46.7910781,126.315296 44.7129666,124.23779 L38,130.950757 L71.0492432,164 L77.7622098,157.287033 C75.6840983,155.208922 75.6840983,151.840321 77.7622098,149.76221" id="Fill-14" fill="#FFFFFF"></path>
                    <path d="M41,130.46826 L71.5317405,161 L75.9514123,156.580328 C75.30441,155.502595 74.9588588,154.266585 74.9588588,152.97681 C74.9588588,151.102255 75.6892283,149.340065 77.0140425,148.014042 L77.0146466,148.014042 C79.3338265,145.695467 82.8847875,145.34327 85.57912,146.953225 L90,142.53174 L59.4682595,112 L55.0485877,116.419672 C55.69559,117.497405 56.0411412,118.733415 56.0411412,120.02319 C56.0411412,121.897745 55.3107717,123.659935 53.9859575,124.985353 C51.6673817,127.303929 48.1158166,127.657334 45.42088,126.046775 L41,130.46826 Z M71.5034653,165 C71.0669371,165 70.6310101,164.834047 70.2985031,164.500939 L37.4987605,131.701798 C36.8337465,131.036182 36.8337465,129.957489 37.4987605,129.291873 L44.1615277,122.629707 C44.8265417,121.963491 45.9070392,121.963491 46.5714519,122.629707 C47.9670193,124.024072 50.2356432,124.02287 51.6288055,122.629707 C53.0237716,121.235343 53.0237716,118.966117 51.6288055,117.571753 C50.9637914,116.906137 50.9637914,115.827444 51.6288055,115.161828 L58.2915726,108.499662 C58.9565866,107.833446 60.0370841,107.833446 60.7014969,108.499662 L93.5012395,141.298202 C94.1662535,141.963818 94.1662535,143.043113 93.5012395,143.708728 L86.8384723,150.370894 C86.1734583,151.03711 85.0935621,151.03711 84.4285481,150.370894 C83.0335819,148.97713 80.7655594,148.97713 79.3705933,150.370894 C77.9768297,151.765259 77.9768297,154.034484 79.3711945,155.428247 C80.0362086,156.093863 80.0362086,157.173158 79.3711945,157.838773 L72.7084274,164.500939 C72.3759204,164.834047 71.9399935,165 71.5034653,165 Z" id="Fill-16" fill="#FFFFFF"></path>
                    <path d="M69.6453166,99 C69.6453166,99 62.1548496,118.101296 61.2906332,120.705775 C60.4258253,123.310849 61.5781138,125.625941 63.5946187,126.494695 C65.6123067,127.362261 67.9162923,127.362261 69.6453166,124.468395 C71.3737494,121.574529 78,108.550945 78,108.550945" id="Fill-18" fill="#FF5B5E"></path>
                    <path d="M65.6743152,129 C64.7355448,129 63.7455023,128.785979 62.7237197,128.351269 C59.6644759,127.048957 58.260593,123.671918 59.3855305,120.322161 C60.2821843,117.652057 67.722153,98.8867545 68.0383318,98.088876 C68.3886921,97.206723 69.3946047,96.7720126 70.2827132,97.1200235 C71.1714321,97.4680343 71.6084669,98.4659888 71.2581066,99.348748 C71.1805878,99.5433673 63.5355302,118.82523 62.6687852,121.409241 C62.1188293,123.046832 62.7017459,124.602574 64.0867068,125.191888 C65.922131,125.973397 67.1038342,125.57567 68.1646813,123.820459 C69.8981714,120.950885 76.660614,107.813778 76.7283666,107.681607 C77.1641806,106.835832 78.2073266,106.501765 79.0569809,106.933444 C79.907856,107.365123 80.2447879,108.400668 79.8101946,109.245837 C79.529418,109.790286 72.9250649,122.620003 71.1317571,125.589009 C69.7760946,127.833497 67.866814,129 65.6743152,129" id="Fill-20" fill="#FFFFFF"></path>
                    <polygon id="Fill-22" fill="#FFFFFF" points="119.394393 110 120.290343 112.691348 123 113.473214 120.735202 115.163699 120.834268 118 118.538318 116.353439 115.890343 117.32481 116.735202 114.616519 115 112.380108 117.818692 112.353126"></polygon>
                    <polygon id="Fill-24" fill="#FFFFFF" points="42.3943925 79 43.2903427 81.6913483 46 82.4732136 43.7352025 84.1636991 43.8342679 87 41.5383178 85.3534395 38.8897196 86.3248098 39.7352025 83.6165189 38 81.3801082 40.8186916 81.3531257"></polygon>
                    <g id="Group-28" transform="translate(0.000000, 150.000000)">
                        <mask id="mask-2" fill="white">
                            <use xlink:href="#path-1"></use>
                        </mask>
                        <g id="Clip-27"></g>
                        <polygon id="Fill-26" fill="#FFFFFF" mask="url(#mask-2)" points="4.39439252 0 5.29034268 2.3549298 8 3.03906189 5.73520249 4.51823672 5.83426791 7 3.53831776 5.55925955 0.890342679 6.40920857 1.73520249 4.03945407 0 2.08259471 2.81869159 2.05898502"></polygon>
                    </g>
                    <path d="M136,143.999717 C136,144.551968 135.552408,145 135,145 C134.447592,145 134,144.551968 134,143.999717 C134,143.447465 134.447592,143 135,143 C135.552408,143 136,143.447465 136,143.999717" id="Fill-29" fill="#FFFFFF"></path>
                    <path d="M116,157.999717 C116,158.551968 115.551968,159 114.999717,159 C114.448032,159 114,158.551968 114,157.999717 C114,157.447465 114.448032,157 114.999717,157 C115.551968,157 116,157.447465 116,157.999717" id="Fill-31" fill="#FFFFFF"></path>
                    <path d="M5,109 C5,109.552408 4.55196828,110 3.99971679,110 C3.44803172,110 3,109.552408 3,109 C3,108.447592 3.44803172,108 3.99971679,108 C4.55196828,108 5,108.447592 5,109" id="Fill-33" fill="#FFFFFF"></path>
                </g>
                <text id="특가의-발견-copy" font-family="NanumSquareOTFB, NanumSquareOTF" font-size="35" font-weight="bold" line-spacing="78" letter-spacing="-0.798245549" fill="#E24E51">
                    <tspan x="3.19517529" y="196">특가</tspan>
                    <tspan x="65.2986842" y="196" font-family="NanumSquareOTFL, NanumSquareOTF" font-weight="300" letter-spacing="-0.69846487">의 </tspan>
                    <tspan x="104.501754" y="196" letter-spacing="-0.69846487">발견</tspan>
                </text>
                <text id="특가의-발견" font-family="NanumSquareOTFB, NanumSquareOTF" font-size="35" font-weight="bold" line-spacing="78" letter-spacing="-0.798245549" fill="#FFFFFF">
                    <tspan x="0.19517529" y="193">특가</tspan>
                    <tspan x="62.2986842" y="193" font-family="NanumSquareOTFL, NanumSquareOTF" font-weight="300" letter-spacing="-0.69846487">의 </tspan>
                    <tspan x="101.501754" y="193" letter-spacing="-0.69846487">발견</tspan>
                </text>
                <text id="%-copy" transform="translate(80.500000, 139.000000) rotate(-315.000000) translate(-80.500000, -139.000000) " font-family="NanumSquareOTFEB, NanumSquareOTF" font-size="23" font-weight="600" letter-spacing="-0.524561763" fill="#FF5B5E">
                    <tspan x="70.2167809" y="146">%</tspan>
                </text>
            </g>
        </g>
    </g>
</svg>