<?xml version="1.0" encoding="utf-8"?>
<!-- Generator: Adobe Illustrator 22.0.1, SVG Export Plug-In . SVG Version: 6.00 Build 0)  -->
<svg version="1.1" id="Layer_1" xmlns="http://www.w3.org/2000/svg" xmlns:xlink="http://www.w3.org/1999/xlink" x="0px" y="0px"
	 viewBox="0 0 188 60" style="enable-background:new 0 0 188 60;" xml:space="preserve">
<style type="text/css">
	.st0{enable-background:new    ;}
	.st1{fill:#E24E51;}
	.st2{fill:#FFFFFF;}
</style>
<title>special_price_label</title>
<desc>Created with Sketch.</desc>
<g id="Symbols">
	<g id="special_price_label">
		<g class="st0">
			<path class="st1" d="M42.9,29.4v2.9H13.3v-2.9H42.9z M17.1,34.9h21.7v10.4h-3.5v-7.5H17.1V34.9z M38.6,24.1V27H17.7V13.6h20.7
				v2.9H21.1v2.3h17.2v2.8H21.1v2.3H38.6z"/>
			<path class="st1" d="M45.1,35c11.2-6.5,11.6-8.3,11.6-13.3v-3.1h-11v-3h14.4v6.1c0,6.4-0.4,8.3-13.2,16L45.1,35z M74.6,27.6h-5
				v17.3h-3.5V12.6h3.5v11.9h5V27.6z"/>
		</g>
		<g class="st0">
			<path class="st1" d="M76.5,35.9c11.2,0,15.5-0.1,21.2-0.8l0.1,1.4c-5.6,0.6-9.3,0.8-21.4,0.8V35.9z M94.4,23.5
				c0,4-4.3,6.3-8.1,6.3c-3.8,0-8.1-2.3-8.1-6.3v-2.1c0-3.9,4.3-6.3,8.1-6.3c3.8,0,8.1,2.4,8.1,6.4V23.5z M93,21.6c0-2.8-3-5-6.6-5
				c-3.6,0-6.6,2.2-6.6,5v2c0,2.7,3,5,6.6,5c3.6,0,6.6-2.2,6.6-5V21.6z M100.9,44.6V12.9h1.5v31.7H100.9z"/>
		</g>
		<g class="st0">
			<path class="st1" d="M116.3,27.8V13.6h3.4v4.7h8v-4.7h3.4v14.2H116.3z M119.7,24.9h8v-3.8h-8V24.9z M120.3,45.1v-8.7h16.4v-3
				h-16.6v-2.9h20v8.6h-16.4v3H141v2.9H120.3z M144.7,22.2h-4.6v6.7h-3.4V12.6h3.4v6.5h4.6V22.2z"/>
			<path class="st1" d="M158.5,17.6h-10.3v-2.9h13.7v5.7c0,5.2-2.4,7.4-13.7,12.2l-1.4-2.8c10-4.4,11.6-6.1,11.6-9.6V17.6z
				 M156.1,41.5h17.4v3h-20.8V33.9h3.5V41.5z M169.4,35.7v-7.8h-6.2v-3h6.2v-4.3h-5.7v-3h5.7v-4.9h3.4v23H169.4z"/>
		</g>
		<g class="st0">
			<path class="st2" d="M39.9,27.4v2.9H10.3v-2.9H39.9z M14.1,32.9h21.7v10.4h-3.5v-7.5H14.1V32.9z M35.6,22.1V25H14.7V11.6h20.7
				v2.9H18.1v2.3h17.2v2.8H18.1v2.3H35.6z"/>
			<path class="st2" d="M42.1,33c11.2-6.5,11.6-8.3,11.6-13.3v-3.1h-11v-3h14.4v6.1c0,6.4-0.4,8.3-13.2,16L42.1,33z M71.6,25.6h-5
				v17.3h-3.5V10.6h3.5v11.9h5V25.6z"/>
		</g>
		<g class="st0">
			<path class="st2" d="M73.5,33.9c11.2,0,15.5-0.1,21.2-0.8l0.1,1.4c-5.6,0.6-9.3,0.8-21.4,0.8V33.9z M91.4,21.5
				c0,4-4.3,6.3-8.1,6.3c-3.8,0-8.1-2.3-8.1-6.3v-2.1c0-3.9,4.3-6.3,8.1-6.3c3.8,0,8.1,2.4,8.1,6.4V21.5z M90,19.6c0-2.8-3-5-6.6-5
				c-3.6,0-6.6,2.2-6.6,5v2c0,2.7,3,5,6.6,5c3.6,0,6.6-2.2,6.6-5V19.6z M97.9,42.6V10.9h1.5v31.7H97.9z"/>
		</g>
		<g class="st0">
			<path class="st2" d="M113.3,25.8V11.6h3.4v4.7h8v-4.7h3.4v14.2H113.3z M116.7,22.9h8v-3.8h-8V22.9z M117.3,43.1v-8.7h16.4v-3
				h-16.6v-2.9h20v8.6h-16.4v3H138v2.9H117.3z M141.7,20.2h-4.6v6.7h-3.4V10.6h3.4v6.5h4.6V20.2z"/>
			<path class="st2" d="M155.5,15.6h-10.3v-2.9h13.7v5.7c0,5.2-2.4,7.4-13.7,12.2l-1.4-2.8c10-4.4,11.6-6.1,11.6-9.6V15.6z
				 M153.1,39.5h17.4v3h-20.8V31.9h3.5V39.5z M166.4,33.7v-7.8h-6.2v-3h6.2v-4.3h-5.7v-3h5.7v-4.9h3.4v23H166.4z"/>
		</g>
	</g>
</g>
</svg>
