<?xml version="1.0" encoding="UTF-8"?>
<svg width="139px" height="136px" viewBox="0 0 139 136" version="1.1" xmlns="http://www.w3.org/2000/svg" xmlns:xlink="http://www.w3.org/1999/xlink">
    <!-- Generator: Sketch 48.2 (47327) - http://www.bohemiancoding.com/sketch -->
    <title>special_price_banner</title>
    <desc>Created with Sketch.</desc>
    <defs>
        <rect id="path-1" x="0" y="0" width="142" height="143"></rect>
        <polygon id="path-3" points="0 0 8 0 8 7 0 7"></polygon>
    </defs>
    <g id="symbol" stroke="none" stroke-width="1" fill="none" fill-rule="evenodd">
        <g id="special_price_banner">
            <g id="Group" transform="translate(-2.000000, 0.000000)">
                <mask id="mask-2" fill="white">
                    <use xlink:href="#path-1"></use>
                </mask>
                <g id="Rectangle-2"></g>
                <g id="Group-Copy-10" mask="url(#mask-2)">
                    <g transform="translate(0.000000, -42.000000)">
                        <path d="M46.9456405,161.620481 C49.8041411,160.278223 53.2189504,161.486708 54.5735262,164.319216 L63.8090332,159.98418 L42.2688648,114.92966 L33.03401,119.265343 C34.3879336,122.097851 33.1683589,125.482255 30.3098583,126.824514 C27.4507055,128.166126 24.0358962,126.957641 22.6819726,124.125133 L13.4464656,128.460815 L34.9859818,173.514688 L44.2214888,169.179006 C42.8675651,166.346498 44.0864877,162.962093 46.9456405,161.620481" id="Fill-1" fill="#E24E51" transform="translate(38.627749, 144.222174) rotate(-39.000000) translate(-38.627749, -144.222174) "></path>
                        <g id="Page-1-Copy" stroke-width="1" fill="none" transform="translate(7.000000, 0.000000)">
                            <path d="M51.551307,112 C51.551307,112 53.8712469,112.003115 55.9785412,112.003115 C58.0858354,112.003115 62,114.41418 62,119.572737 L62,122 L56.6523313,122 L53.8712469,122 L48,116.083235 L51.551307,112 Z" id="Fill-1" fill="#FF5B5E"></path>
                            <path d="M55.2618629,120 L61,120 L61,119.386186 C61,115.603892 57.8986945,114.002312 56.6647,114.002312 L52.9752699,114 L51,116.075523 L55.2618629,120 Z M62.2981123,124 L54.4033947,124 C53.9519592,124 53.5197338,123.821639 53.2003672,123.503223 L47.4985933,117.819015 C46.8646627,117.186971 46.8310451,116.173066 47.4217532,115.500921 L50.870552,111.578177 C51.1941208,111.210681 51.6605641,111 52.1504196,111 L52.1528208,111 L56.449862,111.002993 C59.5354714,111.002993 64,114.196731 64,119.971317 L64,122.303177 C64,123.24047 63.2376024,124 62.2981123,124 Z" id="Fill-3" fill="#FFFFFF"></path>
                            <path d="M55.5270826,79 L34.6333413,94.3746105 C32.9755833,95.5945976 32,97.5137869 32,99.5529254 L32,120.385532 L49.8624648,138 C49.8624648,138 54.3283866,133.302688 57.6029477,130.073097 C60.87812,126.84411 58.7943084,121.853253 56.4121982,119.504899 C55.621829,118.725529 51.0538255,114.807587 51.0538255,114.807587 L54.5771725,108.042806 C54.5771725,108.042806 65.8935715,103.020003 68,91.2993267 L55.5270826,79 Z" id="Fill-5" fill="#FF5B5E"></path>
                            <path d="M33,120.923631 L48.9018516,137 C50.4510862,135.345897 53.1913894,132.438852 55.3754176,130.230328 C56.4124686,129.182546 56.7627829,127.799547 56.4173005,126.118578 C56.0536985,124.34724 55.0329552,122.815867 54.1994489,121.972634 C53.6564618,121.424319 50.7875087,118.875694 48.9912421,117.296694 C48.3963119,116.773414 48.2320266,115.9082 48.5914007,115.199298 L52.0734037,108.346585 C52.2503728,107.997935 52.540288,107.719504 52.8942262,107.558917 C52.9920726,107.513733 62.7277892,102.929382 65,92.744649 L54.371586,82 L34.9140447,96.6787158 C33.7157283,97.5830077 33,99.0252342 33,100.537069 L33,120.923631 Z M49.3644805,141 C48.9108426,141 48.474722,140.819308 48.153974,140.495035 L30.5019615,122.716622 C30.1806095,122.392957 30,121.954307 30,121.496797 L30,100.469573 C30,97.8802596 31.23044,95.4095822 33.2908382,93.8612261 L53.9377066,78.3423783 C54.6196737,77.8295043 55.5716489,77.9000777 56.1720698,78.5054272 L68.4976118,90.9196536 C68.8938654,91.31815 69.0714547,91.8851708 68.9735994,92.4400237 C67.0098485,103.600356 57.7069486,109.083787 55.2865395,110.335857 L52.6764603,115.454254 C54.0814694,116.691722 56.4595953,118.796756 57.0473313,119.388721 C58.5803979,120.933427 59.7588901,123.127286 60.1974269,125.257873 C60.7748941,128.060732 60.0742017,130.631185 58.2246153,132.494688 C55.0449215,135.696652 50.6571372,140.408035 50.613646,140.454881 C50.2965223,140.796189 49.8555693,140.992699 49.3922666,141 L49.3644805,141 Z" id="Fill-7" fill="#FFFFFF"></path>
                            <g id="Group-13" transform="translate(49.000000, 0.000000)" fill="#FFFFFF">
                                <path d="M4,75.1679411 L24.8320589,96 L96,24.8320589 L75.1679411,4 L4,75.1679411 Z M24.9003579,100 C24.4627613,100 24.0257676,99.8336417 23.691844,99.4997197 L0.500433227,76.307811 C-0.166811076,75.6405697 -0.166811076,74.559241 0.500433227,73.8919997 L73.8918817,0.500883025 C74.5585233,-0.166961008 75.6404596,-0.166961008 76.3083066,0.500883025 L99.4991147,23.692189 C100.166962,24.3594303 100.166962,25.4413617 99.4991147,26.108603 L26.108269,99.4997197 C25.7749482,99.8336417 25.3373517,100 24.9003579,100 Z" id="Fill-11"></path>
                            </g>
                            <path d="M61.2870334,149.76221 L68,143.049243 L34.9507568,110 L28.2377902,116.712967 C30.3159017,118.791078 30.3159017,122.159679 28.2377902,124.23779 C26.1596787,126.315902 22.7910781,126.315296 20.7129666,124.23779 L14,130.950757 L47.0492432,164 L53.7622098,157.287033 C51.6840983,155.208922 51.6840983,151.840321 53.7622098,149.76221 C55.8403213,147.684704 59.2089219,147.684704 61.2870334,149.76221 Z" id="Fill-14" fill="#FFFFFF"></path>
                            <path d="M17,130.46826 L47.5317405,161 L51.9514123,156.580328 C51.30441,155.502595 50.9588588,154.266585 50.9588588,152.97681 C50.9588588,151.102255 51.6892283,149.340065 53.0140425,148.014042 L53.0146466,148.014042 C55.3338265,145.695467 58.8847875,145.34327 61.57912,146.953225 L66,142.53174 L35.4682595,112 L31.0485877,116.419672 C31.69559,117.497405 32.0411412,118.733415 32.0411412,120.02319 C32.0411412,121.897745 31.3107717,123.659935 29.9859575,124.985353 C27.6673817,127.303929 24.1158166,127.657334 21.42088,126.046775 L17,130.46826 Z M47.5034653,165 C47.0669371,165 46.6310101,164.834047 46.2985031,164.500939 L13.4987605,131.701798 C12.8337465,131.036182 12.8337465,129.957489 13.4987605,129.291873 L20.1615277,122.629707 C20.8265417,121.963491 21.9070392,121.963491 22.5714519,122.629707 C23.9670193,124.024072 26.2356432,124.02287 27.6288055,122.629707 C29.0237716,121.235343 29.0237716,118.966117 27.6288055,117.571753 C26.9637914,116.906137 26.9637914,115.827444 27.6288055,115.161828 L34.2915726,108.499662 C34.9565866,107.833446 36.0370841,107.833446 36.7014969,108.499662 L69.5012395,141.298202 C70.1662535,141.963818 70.1662535,143.043113 69.5012395,143.708728 L62.8384723,150.370894 C62.1734583,151.03711 61.0935621,151.03711 60.4285481,150.370894 C59.0335819,148.97713 56.7655594,148.97713 55.3705933,150.370894 C53.9768297,151.765259 53.9768297,154.034484 55.3711945,155.428247 C56.0362086,156.093863 56.0362086,157.173158 55.3711945,157.838773 L48.7084274,164.500939 C48.3759204,164.834047 47.9399935,165 47.5034653,165 Z" id="Fill-16" fill="#FFFFFF"></path>
                            <path d="M45.6453166,99 C45.6453166,99 38.1548496,118.101296 37.2906332,120.705775 C36.4258253,123.310849 37.5781138,125.625941 39.5946187,126.494695 C41.6123067,127.362261 43.9162923,127.362261 45.6453166,124.468395 C47.3737494,121.574529 54,108.550945 54,108.550945" id="Fill-18" fill="#FF5B5E"></path>
                            <path d="M41.6743152,129 C40.7355448,129 39.7455023,128.785979 38.7237197,128.351269 C35.6644759,127.048957 34.260593,123.671918 35.3855305,120.322161 C36.2821843,117.652057 43.722153,98.8867545 44.0383318,98.088876 C44.3886921,97.206723 45.3946047,96.7720126 46.2827132,97.1200235 C47.1714321,97.4680343 47.6084669,98.4659888 47.2581066,99.348748 C47.1805878,99.5433673 39.5355302,118.82523 38.6687852,121.409241 C38.1188293,123.046832 38.7017459,124.602574 40.0867068,125.191888 C41.922131,125.973397 43.1038342,125.57567 44.1646813,123.820459 C45.8981714,120.950885 52.660614,107.813778 52.7283666,107.681607 C53.1641806,106.835832 54.2073266,106.501765 55.0569809,106.933444 C55.907856,107.365123 56.2447879,108.400668 55.8101946,109.245837 C55.529418,109.790286 48.9250649,122.620003 47.1317571,125.589009 C45.7760946,127.833497 43.866814,129 41.6743152,129" id="Fill-20" fill="#FFFFFF"></path>
                            <polygon id="Fill-22" fill="#FFFFFF" points="78.3943925 119 79.2903427 121.691348 82 122.473214 79.7352025 124.163699 79.8342679 127 77.5383178 125.353439 74.8903427 126.32481 75.7352025 123.616519 74 121.380108 76.8186916 121.353126"></polygon>
                            <polygon id="Fill-24" fill="#FFFFFF" points="17.3943925 100 18.2903427 102.691348 21 103.473214 18.7352025 105.163699 18.8342679 108 16.5383178 106.353439 13.8897196 107.32481 14.7352025 104.616519 13 102.380108 15.8186916 102.353126"></polygon>
                            <g id="Group-28" transform="translate(13.000000, 164.000000)">
                                <mask id="mask-4" fill="white">
                                    <use xlink:href="#path-3"></use>
                                </mask>
                                <g id="Clip-27"></g>
                                <polygon id="Fill-26" fill="#FFFFFF" mask="url(#mask-4)" points="4.39439252 0 5.29034268 2.3549298 8 3.03906189 5.73520249 4.51823672 5.83426791 7 3.53831776 5.55925955 0.890342679 6.40920857 1.73520249 4.03945407 0 2.08259471 2.81869159 2.05898502"></polygon>
                            </g>
                            <path d="M82,144.999717 C82,145.551968 81.5524079,146 81,146 C80.4475921,146 80,145.551968 80,144.999717 C80,144.447465 80.4475921,144 81,144 C81.5524079,144 82,144.447465 82,144.999717" id="Fill-29" fill="#FFFFFF"></path>
                            <path d="M65,158.999717 C65,159.551968 64.5519683,160 63.9997168,160 C63.4480317,160 63,159.551968 63,158.999717 C63,158.447465 63.4480317,158 63.9997168,158 C64.5519683,158 65,158.447465 65,158.999717" id="Fill-31" fill="#FFFFFF"></path>
                            <path d="M2,128 C2,128.552408 1.55196828,129 0.999716794,129 C0.448031719,129 0,128.552408 0,128 C0,127.447592 0.448031719,127 0.999716794,127 C1.55196828,127 2,127.447592 2,128" id="Fill-33" fill="#FFFFFF"></path>
                        </g>
                        <path d="M45.1397809,146.575 L42.4717809,146.575 L52.3847809,130.015 L55.0297809,130.015 L45.1397809,146.575 Z M43.4837809,129.693 C45.8987809,129.693 47.4167809,131.234 47.4167809,133.649 L47.4167809,134.546 C47.4167809,136.961 45.8987809,138.502 43.4837809,138.502 C41.0687809,138.502 39.5507809,136.961 39.5507809,134.546 L39.5507809,133.649 C39.5507809,131.234 41.0687809,129.693 43.4837809,129.693 Z M43.4837809,136.547 C44.7717809,136.547 45.1397809,135.742 45.1397809,134.5 L45.1397809,133.695 C45.1397809,132.476 44.7717809,131.648 43.4837809,131.648 C42.1957809,131.648 41.8277809,132.476 41.8277809,133.695 L41.8277809,134.5 C41.8277809,135.742 42.1957809,136.547 43.4837809,136.547 Z M54.0407809,137.973 C56.4557809,137.973 57.9737809,139.514 57.9737809,141.929 L57.9737809,142.826 C57.9737809,145.241 56.4557809,146.782 54.0407809,146.782 C51.6257809,146.782 50.1077809,145.241 50.1077809,142.826 L50.1077809,141.929 C50.1077809,139.514 51.6257809,137.973 54.0407809,137.973 Z M54.0407809,144.827 C55.3287809,144.827 55.6967809,144.022 55.6967809,142.78 L55.6967809,141.975 C55.6967809,140.756 55.3287809,139.928 54.0407809,139.928 C52.7527809,139.928 52.3847809,140.756 52.3847809,141.975 L52.3847809,142.78 C52.3847809,144.022 52.7527809,144.827 54.0407809,144.827 Z" id="%-copy" fill="#FF5B5E" transform="translate(48.762281, 138.237500) rotate(-315.000000) translate(-48.762281, -138.237500) "></path>
                    </g>
                </g>
            </g>
        </g>
    </g>
</svg>