<?xml version="1.0" encoding="utf-8"?>
<!-- Generator: Adobe Illustrator 22.0.1, SVG Export Plug-In . SVG Version: 6.00 Build 0)  -->
<svg version="1.1" id="Layer_1" xmlns="http://www.w3.org/2000/svg" xmlns:xlink="http://www.w3.org/1999/xlink" x="0px" y="0px"
	 viewBox="0 0 188 185" style="enable-background:new 0 0 188 185;" xml:space="preserve">
<style type="text/css">
	.st0{fill:#E24E51;}
	.st1{fill:#FF5B5E;}
	.st2{fill:#FFFFFF;}
	.st3{filter:url(#Adobe_OpacityMaskFilter);}
	.st4{mask:url(#mask-2_1_);fill:#FFFFFF;}
	.st5{enable-background:new    ;}
</style>
<title>special_price_head_img</title>
<desc>Created with Sketch.</desc>
<g id="Symbols">
	<g id="special_price_head_img">
		<g id="Group-Copy-10" transform="translate(15.000000, 0.000000)">
			<path id="Fill-1" class="st0" d="M73,152.5c1.4-2.8,4.8-4.1,7.6-2.7l4.4-9.2L40,119.2l-4.4,9.2c2.8,1.3,4,4.7,2.6,7.6
				c-1.4,2.8-4.8,4.1-7.6,2.7l-4.4,9.2l45.1,21.5l4.4-9.2C72.8,158.7,71.7,155.4,73,152.5"/>
			<g id="Page-1-Copy">
				<path id="Fill-1_1_" class="st1" d="M75.6,112c0,0,2.3,0,4.4,0c2.1,0,6,2.4,6,7.6v2.4h-5.3h-2.8l-5.9-5.9L75.6,112z"/>
				<path id="Fill-3" class="st2" d="M79.3,120H85v-0.6c0-3.8-3.1-5.4-4.3-5.4l-3.7,0l-2,2.1L79.3,120z M86.3,124h-7.9
					c-0.5,0-0.9-0.2-1.2-0.5l-5.7-5.7c-0.6-0.6-0.7-1.6-0.1-2.3l3.4-3.9c0.3-0.4,0.8-0.6,1.3-0.6h0l4.3,0c3.1,0,7.6,3.2,7.6,9v2.3
					C88,123.2,87.2,124,86.3,124z"/>
				<path id="Fill-5" class="st1" d="M79.5,79L58.6,94.4C57,95.6,56,97.5,56,99.6v20.8L73.9,138c0,0,4.5-4.7,7.7-7.9
					c3.3-3.2,1.2-8.2-1.2-10.6c-0.8-0.8-5.4-4.7-5.4-4.7l3.5-6.8c0,0,11.3-5,13.4-16.7L79.5,79z"/>
				<path id="Fill-7" class="st2" d="M57,120.9L72.9,137c1.5-1.7,4.3-4.6,6.5-6.8c1-1,1.4-2.4,1-4.1c-0.4-1.8-1.4-3.3-2.2-4.1
					c-0.5-0.5-3.4-3.1-5.2-4.7c-0.6-0.5-0.8-1.4-0.4-2.1l3.5-6.9c0.2-0.3,0.5-0.6,0.8-0.8c0.1,0,9.8-4.6,12.1-14.8L78.4,82
					L58.9,96.7c-1.2,0.9-1.9,2.3-1.9,3.9V120.9z M73.4,141c-0.5,0-0.9-0.2-1.2-0.5l-17.7-17.8c-0.3-0.3-0.5-0.8-0.5-1.2v-21
					c0-2.6,1.2-5.1,3.3-6.6l20.6-15.5c0.7-0.5,1.6-0.4,2.2,0.2l12.3,12.4c0.4,0.4,0.6,1,0.5,1.5c-2,11.2-11.3,16.6-13.7,17.9
					l-2.6,5.1c1.4,1.2,3.8,3.3,4.4,3.9c1.5,1.5,2.7,3.7,3.2,5.9c0.6,2.8-0.1,5.4-2,7.2c-3.2,3.2-7.6,7.9-7.6,8
					C74.3,140.8,73.9,141,73.4,141L73.4,141z"/>
				<g id="Group-13" transform="translate(73.000000, 0.000000)">
					<path id="Fill-11" class="st2" d="M4,75.2L24.8,96L96,24.8L75.2,4L4,75.2z M24.9,100c-0.4,0-0.9-0.2-1.2-0.5L0.5,76.3
						c-0.7-0.7-0.7-1.7,0-2.4L73.9,0.5c0.7-0.7,1.7-0.7,2.4,0l23.2,23.2c0.7,0.7,0.7,1.7,0,2.4L26.1,99.5
						C25.8,99.8,25.3,100,24.9,100z"/>
				</g>
				<path id="Fill-14" class="st2" d="M77.8,149.8c2.1-2.1,5.4-2.1,7.5,0L92,143l-33-33l-6.7,6.7c2.1,2.1,2.1,5.4,0,7.5
					c-2.1,2.1-5.4,2.1-7.5,0L38,131l33,33l6.7-6.7C75.7,155.2,75.7,151.8,77.8,149.8"/>
				<path id="Fill-16" class="st2" d="M41,130.5L71.5,161l4.4-4.4c-0.6-1.1-1-2.3-1-3.6c0-1.9,0.7-3.6,2.1-5h0
					c2.3-2.3,5.9-2.7,8.6-1.1l4.4-4.4L59.5,112l-4.4,4.4c0.6,1.1,1,2.3,1,3.6c0,1.9-0.7,3.6-2.1,5c-2.3,2.3-5.9,2.7-8.6,1.1
					L41,130.5z M71.5,165c-0.4,0-0.9-0.2-1.2-0.5l-32.8-32.8c-0.7-0.7-0.7-1.7,0-2.4l6.7-6.7c0.7-0.7,1.7-0.7,2.4,0
					c1.4,1.4,3.7,1.4,5.1,0c1.4-1.4,1.4-3.7,0-5.1c-0.7-0.7-0.7-1.7,0-2.4l6.7-6.7c0.7-0.7,1.7-0.7,2.4,0l32.8,32.8
					c0.7,0.7,0.7,1.7,0,2.4l-6.7,6.7c-0.7,0.7-1.7,0.7-2.4,0c-1.4-1.4-3.7-1.4-5.1,0c-1.4,1.4-1.4,3.7,0,5.1c0.7,0.7,0.7,1.7,0,2.4
					l-6.7,6.7C72.4,164.8,71.9,165,71.5,165z"/>
				<path id="Fill-18" class="st1" d="M69.6,99c0,0-7.5,19.1-8.4,21.7c-0.9,2.6,0.3,4.9,2.3,5.8c2,0.9,4.3,0.9,6.1-2
					c1.7-2.9,8.4-15.9,8.4-15.9"/>
				<path id="Fill-20" class="st2" d="M65.7,129c-0.9,0-1.9-0.2-3-0.6c-3.1-1.3-4.5-4.7-3.3-8c0.9-2.7,8.3-21.4,8.7-22.2
					c0.4-0.9,1.4-1.3,2.2-1c0.9,0.3,1.3,1.3,1,2.2c-0.1,0.2-7.7,19.5-8.6,22.1c-0.5,1.6,0,3.2,1.4,3.8c1.8,0.8,3,0.4,4.1-1.4
					c1.7-2.9,8.5-16,8.6-16.1c0.4-0.8,1.5-1.2,2.3-0.7c0.9,0.4,1.2,1.5,0.8,2.3c-0.3,0.5-6.9,13.4-8.7,16.3
					C69.8,127.8,67.9,129,65.7,129"/>
				<polygon id="Fill-22" class="st2" points="119.4,110 120.3,112.7 123,113.5 120.7,115.2 120.8,118 118.5,116.4 115.9,117.3 
					116.7,114.6 115,112.4 117.8,112.4 				"/>
				<polygon id="Fill-24" class="st2" points="42.4,79 43.3,81.7 46,82.5 43.7,84.2 43.8,87 41.5,85.4 38.9,86.3 39.7,83.6 38,81.4 
					40.8,81.4 				"/>
				<g id="Group-28" transform="translate(0.000000, 150.000000)">
					<g id="Clip-27">
					</g>
					<defs>
						<filter id="Adobe_OpacityMaskFilter" filterUnits="userSpaceOnUse" x="0" y="0" width="8" height="7">
							<feColorMatrix  type="matrix" values="1 0 0 0 0  0 1 0 0 0  0 0 1 0 0  0 0 0 1 0"/>
						</filter>
					</defs>
					<mask maskUnits="userSpaceOnUse" x="0" y="0" width="8" height="7" id="mask-2_1_">
						<g class="st3">
							<polygon id="path-1_1_" class="st2" points="0,0 8,0 8,7 0,7 							"/>
						</g>
					</mask>
					<polygon id="Fill-26" class="st4" points="4.4,0 5.3,2.4 8,3 5.7,4.5 5.8,7 3.5,5.6 0.9,6.4 1.7,4 0,2.1 2.8,2.1 					"/>
				</g>
				<path id="Fill-29" class="st2" d="M136,144c0,0.6-0.4,1-1,1s-1-0.4-1-1c0-0.6,0.4-1,1-1S136,143.4,136,144"/>
				<path id="Fill-31" class="st2" d="M116,158c0,0.6-0.4,1-1,1c-0.6,0-1-0.4-1-1c0-0.6,0.4-1,1-1C115.6,157,116,157.4,116,158"/>
				<path id="Fill-33" class="st2" d="M5,109c0,0.6-0.4,1-1,1c-0.6,0-1-0.4-1-1s0.4-1,1-1C4.6,108,5,108.4,5,109"/>
			</g>
			<g class="st5">
				<path class="st1" d="M55.9,140.1l18.7-4.7l1.4,1.4l-18.7,4.7L55.9,140.1z M68.4,134.3l-0.7,0.7c-1.7,1.7-3.8,1.7-5.4,0.1
					c-1.6-1.6-1.6-3.7,0.1-5.4l0.7-0.7c1.7-1.7,3.8-1.7,5.4-0.1C70.1,130.5,70.1,132.6,68.4,134.3z M69.6,147.3L69,148
					c-1.7,1.7-3.8,1.7-5.4,0.1s-1.6-3.7,0.1-5.4l0.7-0.7c1.7-1.7,3.8-1.7,5.4-0.1S71.3,145.6,69.6,147.3z M66.4,133.7l0.6-0.6
					c1.1-1.1,1.2-2.1,0.3-3.1c-0.9-0.9-2-0.8-3.1,0.3l-0.6,0.6c-1.1,1.1-1.2,2.1-0.3,3.1C64.3,134.9,65.3,134.8,66.4,133.7z
					 M67.7,146.7l0.6-0.6c1.1-1.1,1.2-2.1,0.3-3.1s-2-0.8-3.1,0.3l-0.6,0.6c-1.1,1.1-1.2,2.1-0.3,3.1S66.6,147.8,67.7,146.7z"/>
			</g>
		</g>
	</g>
</g>
</svg>
