<svg xmlns="http://www.w3.org/2000/svg" width="80" height="96" viewBox="0 0 80 96">
    <g fill="none" fill-rule="evenodd">
        <path fill="#303030" d="M29.167 36h10v2.4h-10z"/>
        <path fill="#303030" fill-rule="nonzero" d="M11.667 8.8V62c0 .663-.56 1.2-1.25 1.2s-1.25-.537-1.25-1.2V7.6c0-.663.56-1.2 1.25-1.2h15c.69 0 1.25.537 1.25 1.2 0 3.756 3.171 6.8 7.083 6.8h.833c3.912 0 7.084-3.044 7.084-6.8 0-.663.56-1.2 1.25-1.2H58.75c.69 0 1.25.537 1.25 1.2V62c0 .663-.56 1.2-1.25 1.2s-1.25-.537-1.25-1.2V8.8H44.086c-.613 4.514-4.634 8-9.503 8h-.833c-4.87 0-8.89-3.486-9.503-8h-12.58z"/>
        <ellipse cx="25.833" cy="29.2" stroke="#303030" stroke-width="2" rx="2.083" ry="2"/>
        <ellipse cx="42.5" cy="29.2" stroke="#303030" stroke-width="2" rx="2.083" ry="2"/>
        <ellipse cx="14.583" cy="62" fill="#303030" rx="1.25" ry="1.2"/>
        <ellipse cx="19.583" cy="62" fill="#303030" rx="1.25" ry="1.2"/>
        <ellipse cx="24.583" cy="62" fill="#303030" rx="1.25" ry="1.2"/>
        <ellipse cx="29.583" cy="62" fill="#303030" rx="1.25" ry="1.2"/>
        <ellipse cx="34.583" cy="62" fill="#303030" rx="1.25" ry="1.2"/>
        <ellipse cx="39.583" cy="62" fill="#303030" rx="1.25" ry="1.2"/>
        <ellipse cx="44.583" cy="62" fill="#303030" rx="1.25" ry="1.2"/>
        <ellipse cx="49.583" cy="62" fill="#303030" rx="1.25" ry="1.2"/>
        <ellipse cx="54.583" cy="62" fill="#303030" rx="1.25" ry="1.2"/>
        <path fill="#303030" fill-rule="nonzero" d="M22.5 87.2V70c0-.663-.56-1.2-1.25-1.2S20 69.337 20 70v18.4c0 .663.56 1.2 1.25 1.2h15c.69 0 1.25-.537 1.25-1.2 0-3.756 3.171-6.8 7.083-6.8h.834c3.912 0 7.083 3.044 7.083 6.8 0 .663.56 1.2 1.25 1.2h15.833c.69 0 1.25-.537 1.25-1.2V70c0-.663-.56-1.2-1.25-1.2s-1.25.537-1.25 1.2v17.2H54.92c-.612-4.514-4.633-8-9.502-8h-.834c-4.869 0-8.89 3.486-9.502 8H22.5z"/>
        <ellipse cx="25.417" cy="70" fill="#303030" rx="1.25" ry="1.2" transform="matrix(1 0 0 -1 0 140)"/>
        <ellipse cx="30.417" cy="70" fill="#303030" rx="1.25" ry="1.2" transform="matrix(1 0 0 -1 0 140)"/>
        <ellipse cx="35.417" cy="70" fill="#303030" rx="1.25" ry="1.2" transform="matrix(1 0 0 -1 0 140)"/>
        <ellipse cx="40.417" cy="70" fill="#303030" rx="1.25" ry="1.2" transform="matrix(1 0 0 -1 0 140)"/>
        <ellipse cx="45.417" cy="70" fill="#303030" rx="1.25" ry="1.2" transform="matrix(1 0 0 -1 0 140)"/>
        <ellipse cx="50.417" cy="70" fill="#303030" rx="1.25" ry="1.2" transform="matrix(1 0 0 -1 0 140)"/>
        <ellipse cx="55.417" cy="70" fill="#303030" rx="1.25" ry="1.2" transform="matrix(1 0 0 -1 0 140)"/>
        <ellipse cx="60.417" cy="70" fill="#303030" rx="1.25" ry="1.2" transform="matrix(1 0 0 -1 0 140)"/>
        <ellipse cx="65.417" cy="70" fill="#303030" rx="1.25" ry="1.2" transform="matrix(1 0 0 -1 0 140)"/>
        <path fill="#FF5B5E" fill-rule="nonzero" d="M69.777 64.38c-.68-.118-1.13-.743-1.007-1.395.124-.652.775-1.084 1.454-.966l4.583.8c.68.119 1.13.744 1.006 1.396-.123.652-.774 1.084-1.453.966l-4.583-.8zM70.226 59.829c-.592.341-1.36.157-1.715-.412a1.173 1.173 0 0 1 .43-1.646l4.166-2.4c.592-.341 1.36-.157 1.715.412a1.173 1.173 0 0 1-.429 1.646l-4.167 2.4zM67.04 57.116c-.182.64-.87 1.016-1.536.842-.666-.175-1.058-.834-.877-1.474l1.25-4.4c.182-.64.87-1.016 1.535-.842.666.175 1.059.834.877 1.474l-1.25 4.4z"/>
    </g>
</svg>
